<svg width="1240" height="124" viewBox="0 0 1240 124" fill="none" xmlns="http://www.w3.org/2000/svg">
<path d="M1186.82 0.916504H1200.23L1213.14 25.0709H1213.69L1226.6 0.916504H1240L1219.36 37.1754V57.0028H1207.47V37.1754L1186.82 0.916504Z" fill="#2362CA"/>
<path d="M1180.3 0.916504V57.0028H1168.33V0.916504H1180.3Z" fill="#2362CA"/>
<path d="M1097.11 0.916504H1111.87L1127.46 38.5995H1128.12L1143.71 0.916504H1158.47V57.0028H1146.86V20.4974H1146.39L1131.74 56.7289H1123.84L1109.19 20.3605H1108.72V57.0028H1097.11V0.916504Z" fill="#2362CA"/>
<path d="M1044.59 57.0028V49.9646L1072.84 10.6933H1044.54V0.916504H1087.87V7.95467L1059.6 47.226H1087.93V57.0028H1044.59Z" fill="#2362CA"/>
<path d="M996.729 57.0028H983.904L1003.44 0.916504H1018.87L1038.38 57.0028H1025.56L1011.38 13.7331H1010.94L996.729 57.0028ZM995.927 34.9572H1026.22V44.2136H995.927V34.9572Z" fill="#2362CA"/>
<path d="M935.9 57.0028V0.916504H958.233C962.508 0.916504 966.156 1.67418 969.178 3.18953C972.218 4.68663 974.53 6.8136 976.115 9.57044C977.718 12.309 978.52 15.5314 978.52 19.2377C978.52 22.9621 977.709 26.1663 976.087 28.8501C974.466 31.5157 972.117 33.5605 969.039 34.9845C965.981 36.4086 962.277 37.1206 957.929 37.1206H942.976V27.5904H955.994C958.279 27.5904 960.177 27.28 961.688 26.6592C963.198 26.0385 964.322 25.1074 965.059 23.8659C965.815 22.6244 966.193 21.0816 966.193 19.2377C966.193 17.3754 965.815 15.8053 965.059 14.5273C964.322 13.2493 963.189 12.2816 961.66 11.6244C960.149 10.9489 958.242 10.6111 955.939 10.6111H947.868V57.0028H935.9ZM966.469 31.4791L980.537 57.0028H967.326L953.562 31.4791H966.469Z" fill="#2362CA"/>
<path d="M927.035 28.9597C927.035 35.0758 925.865 40.2792 923.525 44.5696C921.203 48.8601 918.034 52.1373 914.017 54.4011C910.018 56.6468 905.523 57.7696 900.529 57.7696C895.499 57.7696 890.985 56.6377 886.986 54.3738C882.988 52.1099 879.828 48.8327 877.506 44.5422C875.184 40.2518 874.023 35.0576 874.023 28.9597C874.023 22.8435 875.184 17.6402 877.506 13.3497C879.828 9.05926 882.988 5.79121 886.986 3.54557C890.985 1.28167 895.499 0.149719 900.529 0.149719C905.523 0.149719 910.018 1.28167 914.017 3.54557C918.034 5.79121 921.203 9.05926 923.525 13.3497C925.865 17.6402 927.035 22.8435 927.035 28.9597ZM914.901 28.9597C914.901 24.9978 914.303 21.6568 913.105 18.9364C911.926 16.2161 910.258 14.153 908.102 12.7472C905.946 11.3414 903.422 10.6385 900.529 10.6385C897.636 10.6385 895.112 11.3414 892.956 12.7472C890.8 14.153 889.124 16.2161 887.926 18.9364C886.747 21.6568 886.157 24.9978 886.157 28.9597C886.157 32.9215 886.747 36.2626 887.926 38.9829C889.124 41.7032 890.8 43.7663 892.956 45.1721C895.112 46.5779 897.636 47.2808 900.529 47.2808C903.422 47.2808 905.946 46.5779 908.102 45.1721C910.258 43.7663 911.926 41.7032 913.105 38.9829C914.303 36.2626 914.901 32.9215 914.901 28.9597Z" fill="#2362CA"/>
<path d="M833.264 0.916504L844.679 20.0318H845.121L856.591 0.916504H870.106L852.832 28.9596L870.493 57.0028H856.729L845.121 37.8601H844.679L833.07 57.0028H819.361L837.078 28.9596L819.693 0.916504H833.264Z" fill="#2362CA"/>
<path d="M815.893 24.3313V33.5877H790.078V24.3313H815.893Z" fill="#2362CA"/>
<path d="M748.164 57.0028V0.916504H760.132V47.226H784.399V57.0028H748.164Z" fill="#2362CA"/>
<path d="M699.694 57.0028H686.869L706.41 0.916504H721.832L741.345 57.0028H728.521L714.342 13.7331H713.9L699.694 57.0028ZM698.892 34.9572H729.184V44.2136H698.892V34.9572Z" fill="#2362CA"/>
<path d="M635.365 57.0028H615.299V0.916504H635.531C641.224 0.916504 646.125 2.03933 650.234 4.28497C654.343 6.51235 657.503 9.7165 659.715 13.8974C661.944 18.0783 663.059 23.0808 663.059 28.9049C663.059 34.7472 661.944 39.7679 659.715 43.9671C657.503 48.1663 654.325 51.3887 650.179 53.6343C646.052 55.88 641.114 57.0028 635.365 57.0028ZM627.266 46.8426H634.867C638.405 46.8426 641.381 46.2219 643.795 44.9804C646.227 43.7206 648.051 41.7762 649.267 39.1472C650.502 36.4999 651.119 33.0858 651.119 28.9049C651.119 24.7605 650.502 21.3738 649.267 18.7447C648.051 16.1157 646.236 14.1804 643.822 12.9389C641.408 11.6974 638.433 11.0767 634.895 11.0767H627.266V46.8426Z" fill="#2362CA"/>
<path d="M566.838 57.0028H554.014L573.554 0.916504H588.977L608.49 57.0028H595.666L581.487 13.7331H581.045L566.838 57.0028ZM566.037 34.9572H596.329V44.2136H566.037V34.9572Z" fill="#2362CA"/>
<path d="M485.861 0.916504H500.62L516.209 38.5995H516.872L532.461 0.916504H547.22V57.0028H535.611V20.4974H535.142L520.493 56.7289H512.588L497.94 20.3605H497.47V57.0028H485.861V0.916504Z" fill="#2362CA"/>
<path d="M414.643 0.916504H429.402L444.99 38.5995H445.653L461.242 0.916504H476.001V57.0028H464.393V20.4974H463.923L449.274 56.7289H441.369L426.721 20.3605H426.251V57.0028H414.643V0.916504Z" fill="#2362CA"/>
<path d="M366.18 57.0028H353.355L372.896 0.916504H388.319L407.832 57.0028H395.007L380.829 13.7331H380.386L366.18 57.0028ZM365.378 34.9572H395.671V44.2136H365.378V34.9572Z" fill="#2362CA"/>
<path d="M298.352 57.0028V0.916504H310.319V24.0576H334.614V0.916504H346.554V57.0028H334.614V33.8343H310.319V57.0028H298.352Z" fill="#2362CA"/>
<path d="M276.539 0.916504H288.507V37.3397C288.507 41.4294 287.521 45.0078 285.55 48.075C283.597 51.1422 280.86 53.5339 277.341 55.2501C273.822 56.948 269.722 57.797 265.042 57.797C260.343 57.797 256.234 56.948 252.715 55.2501C249.195 53.5339 246.459 51.1422 244.506 48.075C242.553 45.0078 241.576 41.4294 241.576 37.3397V0.916504H253.544V36.3265C253.544 38.4626 254.014 40.3613 254.953 42.0227C255.912 43.6841 257.257 44.9895 258.989 45.9389C260.721 46.8883 262.738 47.363 265.042 47.363C267.363 47.363 269.381 46.8883 271.095 45.9389C272.827 44.9895 274.162 43.6841 275.102 42.0227C276.06 40.3613 276.539 38.4626 276.539 36.3265V0.916504Z" fill="#2362CA"/>
<path d="M170.357 0.916504H185.117L200.705 38.5995H201.368L216.957 0.916504H231.716V57.0028H220.107V20.4974H219.638L204.989 56.7289H197.084L182.436 20.3605H181.966V57.0028H170.357V0.916504Z" fill="#2362CA"/>
<path d="M1238.06 77.8815V122.751H1228.57V77.8815H1238.06Z" fill="#2362CA"/>
<path d="M1187.78 122.751V77.8815H1205.75C1209.05 77.8815 1211.8 78.3708 1214.01 79.3494C1216.21 80.328 1217.87 81.6863 1218.98 83.4244C1220.09 85.1479 1220.65 87.1343 1220.65 89.3836C1220.65 91.1363 1220.3 92.6772 1219.59 94.0063C1218.89 95.3209 1217.93 96.4017 1216.7 97.2488C1215.49 98.0814 1214.1 98.6729 1212.54 99.0234V99.4616C1214.25 99.5346 1215.85 100.017 1217.34 100.908C1218.84 101.799 1220.06 103.047 1221 104.654C1221.93 106.246 1222.4 108.145 1222.4 110.35C1222.4 112.731 1221.81 114.856 1220.62 116.726C1219.46 118.581 1217.73 120.048 1215.43 121.129C1213.14 122.21 1210.31 122.751 1206.95 122.751H1187.78ZM1197.27 114.995H1205C1207.65 114.995 1209.58 114.491 1210.79 113.483C1212 112.461 1212.61 111.102 1212.61 109.408C1212.61 108.167 1212.31 107.071 1211.71 106.122C1211.11 105.172 1210.25 104.428 1209.14 103.887C1208.05 103.347 1206.74 103.077 1205.22 103.077H1197.27V114.995ZM1197.27 96.6573H1204.3C1205.6 96.6573 1206.76 96.4309 1207.76 95.9781C1208.79 95.5107 1209.59 94.8535 1210.17 94.0063C1210.77 93.1592 1211.07 92.1441 1211.07 90.961C1211.07 89.3398 1210.5 88.0326 1209.34 87.0394C1208.2 86.0462 1206.58 85.5496 1204.48 85.5496H1197.27V96.6573Z" fill="#2362CA"/>
<path d="M1149.36 122.751H1139.2L1154.68 77.8815H1166.91L1182.38 122.751H1172.21L1160.97 88.1348H1160.62L1149.36 122.751ZM1148.73 105.114H1172.74V112.519H1148.73V105.114Z" fill="#2362CA"/>
<path d="M1104.19 85.7029V77.8815H1141.04V85.7029H1127.3V122.751H1117.93V85.7029H1104.19Z" fill="#2362CA"/>
<path d="M1063.37 122.751V77.8815H1072.85V97.6651H1073.45L1089.59 77.8815H1100.96L1084.31 97.9718L1101.16 122.751H1089.81L1077.52 104.303L1072.85 110V122.751H1063.37Z" fill="#2362CA"/>
<path d="M1024.95 122.751H1014.78L1030.27 77.8815H1042.5L1057.97 122.751H1047.8L1036.56 88.1348H1036.21L1024.95 122.751ZM1024.31 105.114H1048.33V112.519H1024.31V105.114Z" fill="#2362CA"/>
<path d="M960.762 77.8815H972.461L984.817 108.028H985.343L997.7 77.8815H1009.4V122.751H1000.2V93.5463H999.825L988.213 122.531H981.947L970.336 93.4367H969.963V122.751H960.762V77.8815Z" fill="#2362CA"/>
<path d="M903.562 85.7029V77.8815H940.413V85.7029H926.676V122.751H917.299V85.7029H903.562Z" fill="#2362CA"/>
<path d="M897.471 77.8815V122.751H887.984V77.8815H897.471Z" fill="#2362CA"/>
<path d="M865.866 77.8815V122.751H857.672L838.151 94.5102H837.822V122.751H828.336V77.8815H836.661L856.028 106.1H856.423V77.8815H865.866Z" fill="#2362CA"/>
<path d="M789.918 122.751H779.752L795.241 77.8815H807.466L822.934 122.751H812.768L801.529 88.1348H801.179L789.918 122.751ZM789.282 105.114H813.294V112.519H789.282V105.114Z" fill="#2362CA"/>
<path d="M766.39 92.3853C766.084 91.319 765.653 90.377 765.098 89.559C764.543 88.7265 763.864 88.0254 763.06 87.4558C762.272 86.8716 761.366 86.4261 760.344 86.1194C759.336 85.8126 758.218 85.6593 756.992 85.6593C754.698 85.6593 752.683 86.2289 750.945 87.3682C749.221 88.5074 747.878 90.1652 746.914 92.3414C745.95 94.5031 745.468 97.1467 745.468 100.272C745.468 103.398 745.942 106.056 746.892 108.247C747.841 110.438 749.185 112.11 750.923 113.264C752.661 114.404 754.713 114.973 757.079 114.973C759.226 114.973 761.059 114.593 762.578 113.834C764.112 113.06 765.28 111.972 766.084 110.569C766.902 109.167 767.311 107.51 767.311 105.596L769.239 105.881H757.671V98.7388H776.446V104.391C776.446 108.335 775.614 111.723 773.949 114.557C772.284 117.376 769.991 119.552 767.07 121.086C764.148 122.605 760.804 123.364 757.035 123.364C752.829 123.364 749.134 122.437 745.95 120.582C742.765 118.712 740.282 116.061 738.501 112.629C736.733 109.182 735.85 105.092 735.85 100.36C735.85 96.7232 736.375 93.4807 737.427 90.6326C738.493 87.7698 739.983 85.3453 741.896 83.3589C743.81 81.3725 746.037 79.8608 748.579 78.8238C751.12 77.7868 753.873 77.2682 756.838 77.2682C759.38 77.2682 761.746 77.6407 763.937 78.3856C766.127 79.1159 768.07 80.1529 769.764 81.4966C771.473 82.8404 772.868 84.4397 773.949 86.2946C775.03 88.135 775.723 90.1652 776.03 92.3853H766.39Z" fill="#2362CA"/>
<path d="M703.383 122.751V77.8815H712.869V114.929H732.105V122.751H703.383Z" fill="#2362CA"/>
<path d="M695.574 77.8815V122.751H686.088V77.8815H695.574Z" fill="#2362CA"/>
<path d="M645.604 122.751V77.8815H663.306C666.694 77.8815 669.586 78.4877 671.982 79.7C674.392 80.8976 676.225 82.5992 677.481 84.8047C678.751 86.9956 679.387 89.5735 679.387 92.5385C679.387 95.518 678.744 98.0814 677.459 100.228C676.173 102.361 674.311 103.997 671.872 105.136C669.447 106.275 666.512 106.845 663.065 106.845H651.212V99.2206H661.531C663.342 99.2206 664.847 98.9723 666.044 98.4757C667.242 97.9791 668.133 97.2342 668.717 96.241C669.316 95.2478 669.615 94.0136 669.615 92.5385C669.615 91.0487 669.316 89.7926 668.717 88.7702C668.133 87.7477 667.235 86.9736 666.022 86.4478C664.825 85.9074 663.313 85.6372 661.487 85.6372H655.09V122.751H645.604ZM669.835 102.332L680.986 122.751H670.514L659.603 102.332H669.835Z" fill="#2362CA"/>
<path d="M637.799 77.8815V122.751H628.312V77.8815H637.799Z" fill="#2362CA"/>
<path d="M585.387 85.7029V77.8815H622.237V85.7029H608.5V122.751H599.123V85.7029H585.387Z" fill="#2362CA"/>
<path d="M541.068 122.751V77.8815H550.555V96.3944H569.813V77.8815H579.277V122.751H569.813V104.216H550.555V122.751H541.068Z" fill="#2362CA"/>
<path d="M524.982 90.7859C524.807 89.0186 524.054 87.6457 522.725 86.6671C521.396 85.6885 519.592 85.1992 517.314 85.1992C515.766 85.1992 514.458 85.4183 513.392 85.8565C512.326 86.28 511.508 86.8716 510.938 87.6311C510.383 88.3906 510.106 89.2523 510.106 90.2163C510.077 91.0196 510.245 91.7207 510.61 92.3195C510.989 92.9184 511.508 93.4369 512.165 93.875C512.823 94.2986 513.582 94.6711 514.444 94.9924C515.306 95.2991 516.226 95.562 517.204 95.7811L521.235 96.7451C523.193 97.1833 524.989 97.7675 526.625 98.4978C528.261 99.2281 529.678 100.126 530.875 101.193C532.073 102.259 533 103.515 533.658 104.961C534.33 106.407 534.673 108.065 534.687 109.934C534.673 112.68 533.972 115.061 532.584 117.076C531.211 119.077 529.225 120.633 526.625 121.743C524.04 122.838 520.921 123.386 517.27 123.386C513.648 123.386 510.493 122.831 507.805 121.721C505.133 120.611 503.044 118.968 501.54 116.792C500.05 114.601 499.268 111.891 499.195 108.663H508.375C508.477 110.168 508.908 111.424 509.668 112.432C510.442 113.425 511.472 114.177 512.757 114.688C514.057 115.185 515.525 115.433 517.16 115.433C518.767 115.433 520.162 115.2 521.345 114.732C522.543 114.265 523.47 113.615 524.127 112.782C524.785 111.95 525.113 110.993 525.113 109.912C525.113 108.904 524.814 108.057 524.215 107.371C523.631 106.684 522.769 106.1 521.63 105.618C520.505 105.136 519.125 104.698 517.489 104.304L512.603 103.077C508.821 102.157 505.834 100.718 503.643 98.7607C501.452 96.8035 500.364 94.1672 500.378 90.8516C500.364 88.135 501.087 85.7615 502.547 83.7313C504.023 81.7011 506.045 80.1164 508.616 78.9771C511.187 77.8379 514.108 77.2682 517.38 77.2682C520.71 77.2682 523.616 77.8379 526.099 78.9771C528.597 80.1164 530.539 81.7011 531.927 83.7313C533.314 85.7615 534.03 88.1131 534.074 90.7859H524.982Z" fill="#2362CA"/>
<path d="M463.248 122.751H453.082L468.571 77.8815H480.797L496.264 122.751H486.098L474.859 88.1348H474.509L463.248 122.751ZM462.612 105.114H486.624V112.519H462.612V105.114Z" fill="#2362CA"/>
<path d="M419.365 122.751V77.8815H428.852V114.929H448.088V122.751H419.365Z" fill="#2362CA"/>
<path d="M403.281 90.7859C403.105 89.0186 402.353 87.6457 401.024 86.6671C399.695 85.6885 397.891 85.1992 395.613 85.1992C394.064 85.1992 392.757 85.4183 391.691 85.8565C390.625 86.28 389.807 86.8716 389.237 87.6311C388.682 88.3906 388.405 89.2523 388.405 90.2163C388.375 91.0196 388.543 91.7207 388.909 92.3195C389.288 92.9184 389.807 93.4369 390.464 93.875C391.121 94.2986 391.881 94.6711 392.743 94.9924C393.604 95.2991 394.525 95.562 395.503 95.7811L399.534 96.7451C401.491 97.1833 403.288 97.7675 404.924 98.4978C406.56 99.2281 407.976 100.126 409.174 101.193C410.372 102.259 411.299 103.515 411.957 104.961C412.628 106.407 412.972 108.065 412.986 109.934C412.972 112.68 412.271 115.061 410.883 117.076C409.51 119.077 407.524 120.633 404.924 121.743C402.339 122.838 399.22 123.386 395.569 123.386C391.947 123.386 388.792 122.831 386.104 121.721C383.431 120.611 381.343 118.968 379.838 116.792C378.349 114.601 377.567 111.891 377.494 108.663H386.674C386.776 110.168 387.207 111.424 387.967 112.432C388.741 113.425 389.77 114.177 391.056 114.688C392.356 115.185 393.823 115.433 395.459 115.433C397.066 115.433 398.461 115.2 399.644 114.732C400.842 114.265 401.769 113.615 402.426 112.782C403.084 111.95 403.412 110.993 403.412 109.912C403.412 108.904 403.113 108.057 402.514 107.371C401.93 106.684 401.068 106.1 399.929 105.618C398.804 105.136 397.424 104.698 395.788 104.304L390.902 103.077C387.119 102.157 384.132 100.718 381.942 98.7607C379.751 96.8035 378.663 94.1672 378.677 90.8516C378.663 88.135 379.386 85.7615 380.846 83.7313C382.321 81.7011 384.344 80.1164 386.915 78.9771C389.486 77.8379 392.407 77.2682 395.678 77.2682C399.008 77.2682 401.915 77.8379 404.398 78.9771C406.896 80.1164 408.838 81.7011 410.226 83.7313C411.613 85.7615 412.329 88.1131 412.373 90.7859H403.281Z" fill="#2362CA"/>
<path d="M371.913 100.316C371.913 105.209 370.986 109.372 369.131 112.804C367.291 116.237 364.779 118.858 361.594 120.669C358.425 122.466 354.861 123.364 350.903 123.364C346.916 123.364 343.337 122.459 340.168 120.647C336.998 118.836 334.493 116.215 332.653 112.782C330.813 109.35 329.893 105.195 329.893 100.316C329.893 95.4233 330.813 91.2606 332.653 87.8282C334.493 84.3959 336.998 81.7814 340.168 79.9849C343.337 78.1738 346.916 77.2682 350.903 77.2682C354.861 77.2682 358.425 78.1738 361.594 79.9849C364.779 81.7814 367.291 84.3959 369.131 87.8282C370.986 91.2606 371.913 95.4233 371.913 100.316ZM362.296 100.316C362.296 97.1467 361.821 94.4739 360.871 92.2976C359.937 90.1214 358.615 88.4709 356.906 87.3463C355.197 86.2216 353.196 85.6593 350.903 85.6593C348.61 85.6593 346.609 86.2216 344.9 87.3463C343.191 88.4709 341.862 90.1214 340.913 92.2976C339.978 94.4739 339.511 97.1467 339.511 100.316C339.511 103.486 339.978 106.159 340.913 108.335C341.862 110.511 343.191 112.162 344.9 113.286C346.609 114.411 348.61 114.973 350.903 114.973C353.196 114.973 355.197 114.411 356.906 113.286C358.615 112.162 359.937 110.511 360.871 108.335C361.821 106.159 362.296 103.486 362.296 100.316Z" fill="#2362CA"/>
<path d="M314.595 90.7859C314.42 89.0186 313.668 87.6457 312.339 86.6671C311.009 85.6885 309.206 85.1992 306.927 85.1992C305.379 85.1992 304.072 85.4183 303.005 85.8565C301.939 86.28 301.121 86.8716 300.552 87.6311C299.997 88.3906 299.719 89.2523 299.719 90.2163C299.69 91.0196 299.858 91.7207 300.223 92.3195C300.603 92.9184 301.121 93.4369 301.779 93.875C302.436 94.2986 303.195 94.6711 304.057 94.9924C304.919 95.2991 305.839 95.562 306.818 95.7811L310.849 96.7451C312.806 97.1833 314.602 97.7675 316.238 98.4978C317.874 99.2281 319.291 100.126 320.489 101.193C321.686 102.259 322.614 103.515 323.271 104.961C323.943 106.407 324.286 108.065 324.301 109.934C324.286 112.68 323.585 115.061 322.197 117.076C320.825 119.077 318.838 120.633 316.238 121.743C313.653 122.838 310.535 123.386 306.883 123.386C303.261 123.386 300.106 122.831 297.419 121.721C294.746 120.611 292.657 118.968 291.153 116.792C289.663 114.601 288.882 111.891 288.809 108.663H297.988C298.091 110.168 298.521 111.424 299.281 112.432C300.055 113.425 301.085 114.177 302.37 114.688C303.67 115.185 305.138 115.433 306.774 115.433C308.38 115.433 309.775 115.2 310.958 114.732C312.156 114.265 313.083 113.615 313.741 112.782C314.398 111.95 314.727 110.993 314.727 109.912C314.727 108.904 314.427 108.057 313.828 107.371C313.244 106.684 312.382 106.1 311.243 105.618C310.118 105.136 308.738 104.698 307.102 104.304L302.217 103.077C298.434 102.157 295.447 100.718 293.256 98.7607C291.065 96.8035 289.977 94.1672 289.992 90.8516C289.977 88.135 290.7 85.7615 292.161 83.7313C293.636 81.7011 295.659 80.1164 298.229 78.9771C300.8 77.8379 303.721 77.2682 306.993 77.2682C310.323 77.2682 313.23 77.8379 315.712 78.9771C318.21 80.1164 320.153 81.7011 321.54 83.7313C322.928 85.7615 323.643 88.1131 323.687 90.7859H314.595Z" fill="#2362CA"/>
<path d="M282.449 77.8815V122.751H272.963V77.8815H282.449Z" fill="#2362CA"/>
<path d="M230.039 85.7029V77.8815H266.89V85.7029H253.153V122.751H243.776V85.7029H230.039Z" fill="#2362CA"/>
<path d="M196.542 77.8815L205.59 93.1738H205.94L215.033 77.8815H225.746L212.053 100.316L226.053 122.751H215.142L205.94 107.436H205.59L196.388 122.751H185.521L199.565 100.316L185.784 77.8815H196.542Z" fill="#2362CA"/>
<path d="M179.844 77.8815V122.751H170.357V77.8815H179.844Z" fill="#2362CA"/>
<path fill-rule="evenodd" clip-rule="evenodd" d="M87.4566 63.7558C105.021 63.7558 119.26 49.5171 119.26 31.9527C119.26 14.3884 105.021 0.149719 87.4566 0.149719C69.8923 0.149719 55.6536 14.3884 55.6536 31.9527C55.6536 49.5171 69.8923 63.7558 87.4566 63.7558ZM59.6321 123.387C77.1964 123.387 91.4351 109.148 91.4351 91.5835C91.4351 74.0192 77.1964 59.7805 59.6321 59.7805C42.0677 59.7805 27.829 74.0192 27.829 91.5835C27.829 109.148 42.0677 123.387 59.6321 123.387ZM0 0.149726H23.8523V123.386H0V0.149726ZM147.089 0.149719H123.237V123.386H147.089V0.149719ZM27.829 0.149719H51.6813V55.805H27.829V0.149719ZM119.26 67.731H95.4076V123.386H119.26V67.731Z" fill="#2362CA"/>
</svg>
