<svg width="1240" height="124" viewBox="0 0 1240 124" fill="none" xmlns="http://www.w3.org/2000/svg">
<path d="M1186.82 0.766769H1200.23L1213.14 24.9211H1213.69L1226.6 0.766769H1240L1219.36 37.0257V56.8531H1207.47V37.0257L1186.82 0.766769Z" fill="white"/>
<path d="M1180.3 0.766769V56.8531H1168.33V0.766769H1180.3Z" fill="white"/>
<path d="M1097.11 0.766769H1111.87L1127.46 38.4497H1128.12L1143.71 0.766769H1158.47V56.8531H1146.86V20.3477H1146.39L1131.74 56.5792H1123.84L1109.19 20.2107H1108.72V56.8531H1097.11V0.766769Z" fill="white"/>
<path d="M1044.59 56.8531V49.8149L1072.84 10.5435H1044.54V0.766769H1087.87V7.80494L1059.6 47.0763H1087.93V56.8531H1044.59Z" fill="white"/>
<path d="M996.729 56.8531H983.904L1003.44 0.766769H1018.87L1038.38 56.8531H1025.56L1011.38 13.5834H1010.94L996.729 56.8531ZM995.927 34.8074H1026.22V44.0638H995.927V34.8074Z" fill="white"/>
<path d="M935.9 56.8531V0.766769H958.233C962.508 0.766769 966.156 1.52445 969.178 3.0398C972.218 4.53689 974.53 6.66386 976.115 9.42071C977.718 12.1593 978.52 15.3817 978.52 19.0879C978.52 22.8124 977.709 26.0165 976.087 28.7004C974.466 31.3659 972.117 33.4107 969.039 34.8348C965.981 36.2589 962.277 36.9709 957.929 36.9709H942.976V27.4406H955.994C958.279 27.4406 960.177 27.1302 961.688 26.5095C963.198 25.8887 964.322 24.9576 965.059 23.7161C965.815 22.4746 966.193 20.9319 966.193 19.0879C966.193 17.2257 965.815 15.6556 965.059 14.3776C964.322 13.0995 963.189 12.1319 961.66 11.4746C960.149 10.7991 958.242 10.4614 955.939 10.4614H947.868V56.8531H935.9ZM966.469 31.3294L980.537 56.8531H967.326L953.562 31.3294H966.469Z" fill="white"/>
<path d="M927.035 28.8099C927.035 34.9261 925.865 40.1294 923.525 44.4199C921.203 48.7104 918.034 51.9875 914.017 54.2514C910.018 56.4971 905.523 57.6199 900.529 57.6199C895.499 57.6199 890.985 56.4879 886.986 54.224C882.988 51.9601 879.828 48.683 877.506 44.3925C875.184 40.1021 874.023 34.9079 874.023 28.8099C874.023 22.6938 875.184 17.4904 877.506 13.2C879.828 8.90954 882.988 5.64149 886.986 3.39585C890.985 1.13195 895.499 0 900.529 0C905.523 0 910.018 1.13195 914.017 3.39585C918.034 5.64149 921.203 8.90954 923.525 13.2C925.865 17.4904 927.035 22.6938 927.035 28.8099ZM914.901 28.8099C914.901 24.8481 914.303 21.507 913.105 18.7867C911.926 16.0664 910.258 14.0033 908.102 12.5975C905.946 11.1917 903.422 10.4888 900.529 10.4888C897.636 10.4888 895.112 11.1917 892.956 12.5975C890.8 14.0033 889.124 16.0664 887.926 18.7867C886.747 21.507 886.157 24.8481 886.157 28.8099C886.157 32.7718 886.747 36.1128 887.926 38.8332C889.124 41.5535 890.8 43.6166 892.956 45.0224C895.112 46.4282 897.636 47.1311 900.529 47.1311C903.422 47.1311 905.946 46.4282 908.102 45.0224C910.258 43.6166 911.926 41.5535 913.105 38.8332C914.303 36.1128 914.901 32.7718 914.901 28.8099Z" fill="white"/>
<path d="M833.264 0.766769L844.679 19.8821H845.121L856.591 0.766769H870.106L852.832 28.8099L870.493 56.8531H856.729L845.121 37.7103H844.679L833.07 56.8531H819.361L837.078 28.8099L819.693 0.766769H833.264Z" fill="white"/>
<path d="M815.893 24.1816V33.438H790.078V24.1816H815.893Z" fill="white"/>
<path d="M748.164 56.8531V0.766769H760.132V47.0763H784.399V56.8531H748.164Z" fill="white"/>
<path d="M699.694 56.8531H686.869L706.41 0.766769H721.832L741.345 56.8531H728.521L714.342 13.5834H713.9L699.694 56.8531ZM698.892 34.8074H729.184V44.0638H698.892V34.8074Z" fill="white"/>
<path d="M635.365 56.8531H615.299V0.766769H635.531C641.224 0.766769 646.125 1.88959 650.234 4.13523C654.343 6.36262 657.503 9.56676 659.715 13.7477C661.944 17.9286 663.059 22.9311 663.059 28.7551C663.059 34.5975 661.944 39.6182 659.715 43.8174C657.503 48.0165 654.325 51.2389 650.179 53.4846C646.052 55.7302 641.114 56.8531 635.365 56.8531ZM627.266 46.6929H634.867C638.405 46.6929 641.381 46.0721 643.795 44.8306C646.227 43.5709 648.051 41.6265 649.267 38.9975C650.502 36.3502 651.119 32.9361 651.119 28.7551C651.119 24.6107 650.502 21.224 649.267 18.595C648.051 15.9659 646.236 14.0307 643.822 12.7892C641.408 11.5477 638.433 10.9269 634.895 10.9269H627.266V46.6929Z" fill="white"/>
<path d="M566.838 56.8531H554.014L573.554 0.766769H588.977L608.49 56.8531H595.666L581.487 13.5834H581.045L566.838 56.8531ZM566.037 34.8074H596.329V44.0638H566.037V34.8074Z" fill="white"/>
<path d="M485.861 0.766769H500.62L516.209 38.4497H516.872L532.461 0.766769H547.22V56.8531H535.611V20.3477H535.142L520.493 56.5792H512.588L497.94 20.2107H497.47V56.8531H485.861V0.766769Z" fill="white"/>
<path d="M414.643 0.766769H429.402L444.99 38.4497H445.653L461.242 0.766769H476.001V56.8531H464.393V20.3477H463.923L449.274 56.5792H441.369L426.721 20.2107H426.251V56.8531H414.643V0.766769Z" fill="white"/>
<path d="M366.18 56.8531H353.355L372.896 0.766769H388.319L407.832 56.8531H395.007L380.829 13.5834H380.386L366.18 56.8531ZM365.378 34.8074H395.671V44.0638H365.378V34.8074Z" fill="white"/>
<path d="M298.352 56.8531V0.766769H310.319V23.9078H334.614V0.766769H346.554V56.8531H334.614V33.6846H310.319V56.8531H298.352Z" fill="white"/>
<path d="M276.539 0.766769H288.507V37.19C288.507 41.2796 287.521 44.858 285.55 47.9253C283.597 50.9925 280.86 53.3842 277.341 55.1004C273.822 56.7983 269.722 57.6472 265.042 57.6472C260.343 57.6472 256.234 56.7983 252.715 55.1004C249.195 53.3842 246.459 50.9925 244.506 47.9253C242.553 44.858 241.576 41.2796 241.576 37.19V0.766769H253.544V36.1767C253.544 38.3128 254.014 40.2116 254.953 41.873C255.912 43.5344 257.257 44.8398 258.989 45.7892C260.721 46.7385 262.738 47.2132 265.042 47.2132C267.363 47.2132 269.381 46.7385 271.095 45.7892C272.827 44.8398 274.162 43.5344 275.102 41.873C276.06 40.2116 276.539 38.3128 276.539 36.1767V0.766769Z" fill="white"/>
<path d="M170.357 0.766769H185.117L200.705 38.4497H201.368L216.957 0.766769H231.716V56.8531H220.107V20.3477H219.638L204.989 56.5792H197.084L182.436 20.2107H181.966V56.8531H170.357V0.766769Z" fill="white"/>
<path d="M1238.06 77.7318V122.601H1228.57V77.7318H1238.06Z" fill="white"/>
<path d="M1187.78 122.601V77.7318H1205.75C1209.05 77.7318 1211.8 78.2211 1214.01 79.1997C1216.21 80.1783 1217.87 81.5366 1218.98 83.2747C1220.09 84.9982 1220.65 86.9846 1220.65 89.2339C1220.65 90.9866 1220.3 92.5275 1219.59 93.8566C1218.89 95.1711 1217.93 96.252 1216.7 97.0991C1215.49 97.9316 1214.1 98.5232 1212.54 98.8737V99.3119C1214.25 99.3849 1215.85 99.8669 1217.34 100.758C1218.84 101.649 1220.06 102.898 1221 104.504C1221.93 106.096 1222.4 107.995 1222.4 110.201C1222.4 112.581 1221.81 114.706 1220.62 116.576C1219.46 118.431 1217.73 119.899 1215.43 120.98C1213.14 122.06 1210.31 122.601 1206.95 122.601H1187.78ZM1197.27 114.845H1205C1207.65 114.845 1209.58 114.341 1210.79 113.333C1212 112.311 1212.61 110.953 1212.61 109.258C1212.61 108.017 1212.31 106.922 1211.71 105.972C1211.11 105.023 1210.25 104.278 1209.14 103.737C1208.05 103.197 1206.74 102.927 1205.22 102.927H1197.27V114.845ZM1197.27 96.5076H1204.3C1205.6 96.5076 1206.76 96.2812 1207.76 95.8284C1208.79 95.361 1209.59 94.7038 1210.17 93.8566C1210.77 93.0095 1211.07 91.9944 1211.07 90.8113C1211.07 89.1901 1210.5 87.8828 1209.34 86.8896C1208.2 85.8965 1206.58 85.3999 1204.48 85.3999H1197.27V96.5076Z" fill="white"/>
<path d="M1149.36 122.601H1139.2L1154.68 77.7318H1166.91L1182.38 122.601H1172.21L1160.97 87.9851H1160.62L1149.36 122.601ZM1148.73 104.964H1172.74V112.369H1148.73V104.964Z" fill="white"/>
<path d="M1104.19 85.5532V77.7318H1141.04V85.5532H1127.3V122.601H1117.93V85.5532H1104.19Z" fill="white"/>
<path d="M1063.37 122.601V77.7318H1072.85V97.5154H1073.45L1089.59 77.7318H1100.96L1084.31 97.8221L1101.16 122.601H1089.81L1077.52 104.154L1072.85 109.85V122.601H1063.37Z" fill="white"/>
<path d="M1024.95 122.601H1014.78L1030.27 77.7318H1042.5L1057.97 122.601H1047.8L1036.56 87.9851H1036.21L1024.95 122.601ZM1024.31 104.964H1048.33V112.369H1024.31V104.964Z" fill="white"/>
<path d="M960.762 77.7318H972.461L984.817 107.878H985.343L997.7 77.7318H1009.4V122.601H1000.2V93.3965H999.825L988.213 122.382H981.947L970.336 93.287H969.963V122.601H960.762V77.7318Z" fill="white"/>
<path d="M903.562 85.5532V77.7318H940.413V85.5532H926.676V122.601H917.299V85.5532H903.562Z" fill="white"/>
<path d="M897.471 77.7318V122.601H887.984V77.7318H897.471Z" fill="white"/>
<path d="M865.866 77.7318V122.601H857.672L838.151 94.3605H837.822V122.601H828.336V77.7318H836.661L856.028 105.95H856.423V77.7318H865.866Z" fill="white"/>
<path d="M789.918 122.601H779.752L795.241 77.7318H807.466L822.934 122.601H812.768L801.529 87.9851H801.179L789.918 122.601ZM789.282 104.964H813.294V112.369H789.282V104.964Z" fill="white"/>
<path d="M766.39 92.2356C766.084 91.1693 765.653 90.2273 765.098 89.4093C764.543 88.5768 763.864 87.8757 763.06 87.3061C762.272 86.7219 761.366 86.2764 760.344 85.9697C759.336 85.663 758.218 85.5096 756.992 85.5096C754.698 85.5096 752.683 86.0792 750.945 87.2185C749.221 88.3577 747.878 90.0155 746.914 92.1917C745.95 94.3534 745.468 96.9971 745.468 100.123C745.468 103.248 745.942 105.907 746.892 108.097C747.841 110.288 749.185 111.961 750.923 113.115C752.661 114.254 754.713 114.823 757.079 114.823C759.226 114.823 761.059 114.444 762.578 113.684C764.112 112.91 765.28 111.822 766.084 110.42C766.902 109.018 767.311 107.36 767.311 105.447L769.239 105.731H757.671V98.5891H776.446V104.242C776.446 108.185 775.614 111.574 773.949 114.407C772.284 117.226 769.991 119.402 767.07 120.936C764.148 122.455 760.804 123.214 757.035 123.214C752.829 123.214 749.134 122.287 745.95 120.432C742.765 118.563 740.282 115.912 738.501 112.479C736.733 109.032 735.85 104.943 735.85 100.21C735.85 96.5735 736.375 93.331 737.427 90.4829C738.493 87.6201 739.983 85.1956 741.896 83.2092C743.81 81.2228 746.037 79.7111 748.579 78.6741C751.12 77.6371 753.873 77.1186 756.838 77.1186C759.38 77.1186 761.746 77.491 763.937 78.2359C766.127 78.9662 768.07 80.0032 769.764 81.3469C771.473 82.6907 772.868 84.29 773.949 86.1449C775.03 87.9853 775.723 90.0155 776.03 92.2356H766.39Z" fill="white"/>
<path d="M703.383 122.601V77.7318H712.869V114.779H732.105V122.601H703.383Z" fill="white"/>
<path d="M695.574 77.7318V122.601H686.088V77.7318H695.574Z" fill="white"/>
<path d="M645.604 122.601V77.7318H663.306C666.694 77.7318 669.586 78.338 671.982 79.5502C674.392 80.7479 676.225 82.4495 677.481 84.655C678.751 86.8458 679.387 89.4238 679.387 92.3887C679.387 95.3683 678.744 97.9316 677.459 100.079C676.173 102.211 674.311 103.847 671.872 104.986C669.447 106.125 666.512 106.695 663.065 106.695H651.212V99.0709H661.531C663.342 99.0709 664.847 98.8226 666.044 98.326C667.242 97.8294 668.133 97.0845 668.717 96.0913C669.316 95.0981 669.615 93.8639 669.615 92.3887C669.615 90.8989 669.316 89.6428 668.717 88.6204C668.133 87.598 667.235 86.8239 666.022 86.2981C664.825 85.7577 663.313 85.4875 661.487 85.4875H655.09V122.601H645.604ZM669.835 102.182L680.986 122.601H670.514L659.603 102.182H669.835Z" fill="white"/>
<path d="M637.799 77.7318V122.601H628.312V77.7318H637.799Z" fill="white"/>
<path d="M585.387 85.5532V77.7318H622.237V85.5532H608.5V122.601H599.123V85.5532H585.387Z" fill="white"/>
<path d="M541.068 122.601V77.7318H550.555V96.2447H569.813V77.7318H579.277V122.601H569.813V104.066H550.555V122.601H541.068Z" fill="white"/>
<path d="M524.982 90.6362C524.807 88.8689 524.054 87.496 522.725 86.5174C521.396 85.5388 519.592 85.0495 517.314 85.0495C515.766 85.0495 514.458 85.2686 513.392 85.7068C512.326 86.1303 511.508 86.7219 510.938 87.4814C510.383 88.2409 510.106 89.1026 510.106 90.0666C510.077 90.8699 510.245 91.571 510.61 92.1698C510.989 92.7687 511.508 93.2872 512.165 93.7254C512.823 94.1489 513.582 94.5214 514.444 94.8427C515.306 95.1494 516.226 95.4123 517.204 95.6314L521.235 96.5954C523.193 97.0336 524.989 97.6178 526.625 98.3481C528.261 99.0784 529.678 99.9766 530.875 101.043C532.073 102.109 533 103.365 533.658 104.811C534.33 106.257 534.673 107.915 534.687 109.784C534.673 112.53 533.972 114.911 532.584 116.927C531.211 118.928 529.225 120.483 526.625 121.593C524.04 122.689 520.921 123.236 517.27 123.236C513.648 123.236 510.493 122.681 507.805 121.571C505.133 120.461 503.044 118.818 501.54 116.642C500.05 114.451 499.268 111.742 499.195 108.514H508.375C508.477 110.018 508.908 111.274 509.668 112.282C510.442 113.275 511.472 114.027 512.757 114.539C514.057 115.035 515.525 115.284 517.16 115.284C518.767 115.284 520.162 115.05 521.345 114.582C522.543 114.115 523.47 113.465 524.127 112.633C524.785 111.8 525.113 110.843 525.113 109.763C525.113 108.755 524.814 107.908 524.215 107.221C523.631 106.535 522.769 105.95 521.63 105.468C520.505 104.986 519.125 104.548 517.489 104.154L512.603 102.927C508.821 102.007 505.834 100.568 503.643 98.611C501.452 96.6538 500.364 94.0175 500.378 90.702C500.364 87.9853 501.087 85.6118 502.547 83.5816C504.023 81.5514 506.045 79.9667 508.616 78.8274C511.187 77.6882 514.108 77.1186 517.38 77.1186C520.71 77.1186 523.616 77.6882 526.099 78.8274C528.597 79.9667 530.539 81.5514 531.927 83.5816C533.314 85.6118 534.03 87.9634 534.074 90.6362H524.982Z" fill="white"/>
<path d="M463.248 122.601H453.082L468.571 77.7318H480.797L496.264 122.601H486.098L474.859 87.9851H474.509L463.248 122.601ZM462.612 104.964H486.624V112.369H462.612V104.964Z" fill="white"/>
<path d="M419.365 122.601V77.7318H428.852V114.779H448.088V122.601H419.365Z" fill="white"/>
<path d="M403.281 90.6362C403.105 88.8689 402.353 87.496 401.024 86.5174C399.695 85.5388 397.891 85.0495 395.613 85.0495C394.064 85.0495 392.757 85.2686 391.691 85.7068C390.625 86.1303 389.807 86.7219 389.237 87.4814C388.682 88.2409 388.405 89.1026 388.405 90.0666C388.375 90.8699 388.543 91.571 388.909 92.1698C389.288 92.7687 389.807 93.2872 390.464 93.7254C391.121 94.1489 391.881 94.5214 392.743 94.8427C393.604 95.1494 394.525 95.4123 395.503 95.6314L399.534 96.5954C401.491 97.0336 403.288 97.6178 404.924 98.3481C406.56 99.0784 407.976 99.9766 409.174 101.043C410.372 102.109 411.299 103.365 411.957 104.811C412.628 106.257 412.972 107.915 412.986 109.784C412.972 112.53 412.271 114.911 410.883 116.927C409.51 118.928 407.524 120.483 404.924 121.593C402.339 122.689 399.22 123.236 395.569 123.236C391.947 123.236 388.792 122.681 386.104 121.571C383.431 120.461 381.343 118.818 379.838 116.642C378.349 114.451 377.567 111.742 377.494 108.514H386.674C386.776 110.018 387.207 111.274 387.967 112.282C388.741 113.275 389.77 114.027 391.056 114.539C392.356 115.035 393.823 115.284 395.459 115.284C397.066 115.284 398.461 115.05 399.644 114.582C400.842 114.115 401.769 113.465 402.426 112.633C403.084 111.8 403.412 110.843 403.412 109.763C403.412 108.755 403.113 107.908 402.514 107.221C401.93 106.535 401.068 105.95 399.929 105.468C398.804 104.986 397.424 104.548 395.788 104.154L390.902 102.927C387.119 102.007 384.132 100.568 381.942 98.611C379.751 96.6538 378.663 94.0175 378.677 90.702C378.663 87.9853 379.386 85.6118 380.846 83.5816C382.321 81.5514 384.344 79.9667 386.915 78.8274C389.486 77.6882 392.407 77.1186 395.678 77.1186C399.008 77.1186 401.915 77.6882 404.398 78.8274C406.896 79.9667 408.838 81.5514 410.226 83.5816C411.613 85.6118 412.329 87.9634 412.373 90.6362H403.281Z" fill="white"/>
<path d="M371.913 100.167C371.913 105.059 370.986 109.222 369.131 112.654C367.291 116.087 364.779 118.709 361.594 120.52C358.425 122.316 354.861 123.214 350.903 123.214C346.916 123.214 343.337 122.309 340.168 120.498C336.998 118.687 334.493 116.065 332.653 112.633C330.813 109.2 329.893 105.045 329.893 100.167C329.893 95.2736 330.813 91.1109 332.653 87.6786C334.493 84.2462 336.998 81.6318 340.168 79.8352C343.337 78.0241 346.916 77.1186 350.903 77.1186C354.861 77.1186 358.425 78.0241 361.594 79.8352C364.779 81.6318 367.291 84.2462 369.131 87.6786C370.986 91.1109 371.913 95.2736 371.913 100.167ZM362.296 100.167C362.296 96.9971 361.821 94.3242 360.871 92.1479C359.937 89.9717 358.615 88.3212 356.906 87.1966C355.197 86.0719 353.196 85.5096 350.903 85.5096C348.61 85.5096 346.609 86.0719 344.9 87.1966C343.191 88.3212 341.862 89.9717 340.913 92.1479C339.978 94.3242 339.511 96.9971 339.511 100.167C339.511 103.336 339.978 106.009 340.913 108.185C341.862 110.361 343.191 112.012 344.9 113.136C346.609 114.261 348.61 114.823 350.903 114.823C353.196 114.823 355.197 114.261 356.906 113.136C358.615 112.012 359.937 110.361 360.871 108.185C361.821 106.009 362.296 103.336 362.296 100.167Z" fill="white"/>
<path d="M314.595 90.6362C314.42 88.8689 313.668 87.496 312.339 86.5174C311.009 85.5388 309.206 85.0495 306.927 85.0495C305.379 85.0495 304.072 85.2686 303.005 85.7068C301.939 86.1303 301.121 86.7219 300.552 87.4814C299.997 88.2409 299.719 89.1026 299.719 90.0666C299.69 90.8699 299.858 91.571 300.223 92.1698C300.603 92.7687 301.121 93.2872 301.779 93.7254C302.436 94.1489 303.195 94.5214 304.057 94.8427C304.919 95.1494 305.839 95.4123 306.818 95.6314L310.849 96.5954C312.806 97.0336 314.602 97.6178 316.238 98.3481C317.874 99.0784 319.291 99.9766 320.489 101.043C321.686 102.109 322.614 103.365 323.271 104.811C323.943 106.257 324.286 107.915 324.301 109.784C324.286 112.53 323.585 114.911 322.197 116.927C320.825 118.928 318.838 120.483 316.238 121.593C313.653 122.689 310.535 123.236 306.883 123.236C303.261 123.236 300.106 122.681 297.419 121.571C294.746 120.461 292.657 118.818 291.153 116.642C289.663 114.451 288.882 111.742 288.809 108.514H297.988C298.091 110.018 298.521 111.274 299.281 112.282C300.055 113.275 301.085 114.027 302.37 114.539C303.67 115.035 305.138 115.284 306.774 115.284C308.38 115.284 309.775 115.05 310.958 114.582C312.156 114.115 313.083 113.465 313.741 112.633C314.398 111.8 314.727 110.843 314.727 109.763C314.727 108.755 314.427 107.908 313.828 107.221C313.244 106.535 312.382 105.95 311.243 105.468C310.118 104.986 308.738 104.548 307.102 104.154L302.217 102.927C298.434 102.007 295.447 100.568 293.256 98.611C291.065 96.6538 289.977 94.0175 289.992 90.702C289.977 87.9853 290.7 85.6118 292.161 83.5816C293.636 81.5514 295.659 79.9667 298.229 78.8274C300.8 77.6882 303.721 77.1186 306.993 77.1186C310.323 77.1186 313.23 77.6882 315.712 78.8274C318.21 79.9667 320.153 81.5514 321.54 83.5816C322.928 85.6118 323.643 87.9634 323.687 90.6362H314.595Z" fill="white"/>
<path d="M282.449 77.7318V122.601H272.963V77.7318H282.449Z" fill="white"/>
<path d="M230.039 85.5532V77.7318H266.89V85.5532H253.153V122.601H243.776V85.5532H230.039Z" fill="white"/>
<path d="M196.542 77.7318L205.59 93.0241H205.94L215.033 77.7318H225.746L212.053 100.166L226.053 122.601H215.142L205.94 107.287H205.59L196.388 122.601H185.521L199.565 100.166L185.784 77.7318H196.542Z" fill="white"/>
<path d="M179.844 77.7318V122.601H170.357V77.7318H179.844Z" fill="white"/>
<path fill-rule="evenodd" clip-rule="evenodd" d="M0 0H23.8523V123.237H0V0ZM87.4566 63.606C105.021 63.606 119.26 49.3673 119.26 31.803C119.26 14.2387 105.021 0 87.4566 0C69.8923 0 55.6536 14.2387 55.6536 31.803C55.6536 49.3673 69.8923 63.606 87.4566 63.606ZM59.6321 123.237C77.1964 123.237 91.4351 108.998 91.4351 91.4339C91.4351 73.8695 77.1964 59.6308 59.6321 59.6308C42.0677 59.6308 27.829 73.8695 27.829 91.4339C27.829 108.998 42.0677 123.237 59.6321 123.237ZM147.089 0H123.237V123.237H147.089V0ZM27.829 0H51.6813V55.6553H27.829V0ZM119.26 67.5813H95.4076V123.237H119.26V67.5813Z" fill="#2362CA"/>
</svg>
