<svg width="1240" height="456" viewBox="0 0 1240 456" fill="none" xmlns="http://www.w3.org/2000/svg">
<path fill-rule="evenodd" clip-rule="evenodd" d="M636.69 134.82C629.014 134.82 622.389 133.567 616.814 131.063C611.32 128.477 607.038 124.761 603.968 119.913C600.978 114.985 599.322 109.006 598.999 101.977C598.918 98.5025 598.878 94.8263 598.878 90.9481C598.878 86.9892 598.918 83.2322 598.999 79.6773C599.322 72.8097 601.019 66.9925 604.089 62.2256C607.159 57.4587 611.482 53.8229 617.057 51.3182C622.631 48.8136 629.176 47.5613 636.69 47.5613C642.749 47.5613 648.122 48.3288 652.808 49.8639C657.494 51.3182 661.413 53.2977 664.564 55.8024C667.796 58.307 670.22 61.054 671.836 64.0434C673.532 67.0329 674.421 69.9819 674.502 72.8905C674.583 73.6176 674.34 74.2236 673.775 74.7084C673.29 75.1931 672.684 75.4355 671.957 75.4355H654.263C653.374 75.4355 652.687 75.3143 652.202 75.072C651.798 74.7488 651.435 74.3044 651.112 73.7388C650.546 72.5269 649.698 71.2746 648.567 69.9819C647.516 68.6084 646.022 67.4368 644.083 66.4673C642.224 65.4978 639.76 65.013 636.69 65.013C632.084 65.013 628.449 66.2249 625.782 68.6488C623.197 71.0726 621.783 74.9508 621.541 80.2832C621.298 87.2316 621.298 94.2607 621.541 101.371C621.783 107.026 623.278 111.106 626.025 113.611C628.772 116.116 632.408 117.368 636.932 117.368C640.002 117.368 642.709 116.843 645.052 115.793C647.476 114.742 649.375 113.126 650.748 110.945C652.122 108.683 652.808 105.814 652.808 102.34V100.038H641.416C640.528 100.038 639.76 99.7548 639.114 99.1892C638.548 98.5429 638.265 97.7753 638.265 96.8866V87.9183C638.265 87.0296 638.548 86.3024 639.114 85.7369C639.76 85.0905 640.528 84.7673 641.416 84.7673H671.957C672.846 84.7673 673.573 85.0905 674.138 85.7369C674.704 86.3024 674.987 87.0296 674.987 87.9183V101.734C674.987 108.683 673.411 114.621 670.26 119.55C667.109 124.478 662.625 128.275 656.808 130.942C651.071 133.527 644.365 134.82 636.69 134.82ZM689.733 132.759C690.299 133.325 691.026 133.608 691.914 133.608H708.154C709.043 133.608 709.77 133.325 710.336 132.759C710.901 132.194 711.184 131.467 711.184 130.578V51.8028C711.184 50.9141 710.901 50.1869 710.336 49.6213C709.77 49.0558 709.043 48.773 708.154 48.773H691.914C691.026 48.773 690.299 49.0558 689.733 49.6213C689.167 50.1869 688.885 50.9141 688.885 51.8028V130.578C688.885 131.467 689.167 132.194 689.733 132.759ZM749.872 133.608C748.983 133.608 748.256 133.325 747.691 132.759C747.125 132.194 746.842 131.467 746.842 130.578V67.8002H725.27C724.381 67.8002 723.654 67.5174 723.089 66.9519C722.523 66.3055 722.24 65.5783 722.24 64.7704V51.8028C722.24 50.9141 722.523 50.1869 723.089 49.6213C723.654 49.0558 724.381 48.773 725.27 48.773H790.472C791.36 48.773 792.088 49.0558 792.653 49.6213C793.219 50.1869 793.501 50.9141 793.501 51.8028V64.7704C793.501 65.5783 793.219 66.3055 792.653 66.9519C792.088 67.5174 791.36 67.8002 790.472 67.8002H768.899V130.578C768.899 131.467 768.617 132.194 768.051 132.759C767.486 133.325 766.758 133.608 765.87 133.608H749.872ZM789.214 132.881C789.779 133.365 790.385 133.608 791.031 133.608H805.938C807.312 133.608 808.281 133.325 808.847 132.759C809.412 132.113 809.776 131.547 809.937 131.063L814.543 118.701H846.901L851.628 131.063C851.789 131.547 852.153 132.113 852.718 132.759C853.365 133.325 854.294 133.608 855.506 133.608H870.412C871.14 133.608 871.746 133.365 872.23 132.881C872.796 132.315 873.079 131.709 873.079 131.063C873.079 130.659 872.998 130.295 872.836 129.972L844.477 52.1664C844.235 51.2776 843.71 50.5101 842.902 49.8637C842.175 49.1366 841.124 48.773 839.751 48.773H821.814C820.441 48.773 819.35 49.1366 818.542 49.8637C817.815 50.5101 817.33 51.2776 817.088 52.1664L788.608 129.972C788.527 130.295 788.486 130.659 788.486 131.063C788.486 131.709 788.729 132.315 789.214 132.881ZM842.053 101.249H819.512L830.661 69.2545L842.053 101.249ZM883.477 132.759C884.043 133.325 884.77 133.608 885.659 133.608H941.286C942.175 133.608 942.902 133.325 943.468 132.759C944.114 132.194 944.437 131.467 944.437 130.578V118.459C944.437 117.57 944.114 116.843 943.468 116.277C942.902 115.631 942.175 115.308 941.286 115.308H904.686V51.8028C904.686 50.9141 904.363 50.1869 903.716 49.6213C903.151 49.0558 902.464 48.773 901.656 48.773H885.659C884.77 48.773 884.043 49.0558 883.477 49.6213C882.912 50.1869 882.629 50.9141 882.629 51.8028V130.578C882.629 131.467 882.912 132.194 883.477 132.759ZM563.215 132.759C563.781 133.325 564.508 133.608 565.397 133.608H581.637C582.525 133.608 583.253 133.325 583.818 132.759C584.384 132.194 584.667 131.467 584.667 130.578V51.8028C584.667 50.9141 584.384 50.1869 583.818 49.6213C583.253 49.0558 582.525 48.773 581.637 48.773H565.397C564.508 48.773 563.781 49.0558 563.215 49.6213C562.65 50.1869 562.367 50.9141 562.367 51.8028V130.578C562.367 131.467 562.65 132.194 563.215 132.759ZM478.645 133.608C477.756 133.608 477.029 133.325 476.464 132.759C475.898 132.194 475.615 131.467 475.615 130.578V51.8028C475.615 50.9141 475.898 50.1869 476.464 49.6213C477.029 49.0558 477.756 48.773 478.645 48.773H510.155C518.073 48.773 524.819 50.0657 530.394 52.6512C535.969 55.1558 540.251 58.8724 543.241 63.8008C546.23 68.6485 547.846 74.6678 548.088 81.8585C548.169 85.4135 548.209 88.5241 548.209 91.1903C548.209 93.8566 548.169 96.9268 548.088 100.401C547.765 107.915 546.149 114.136 543.241 119.065C540.413 123.993 536.252 127.669 530.758 130.093C525.345 132.436 518.679 133.608 510.761 133.608H478.645ZM497.309 116.156H510.155C513.629 116.156 516.497 115.631 518.76 114.58C521.103 113.449 522.84 111.712 523.971 109.369C525.183 107.026 525.829 103.956 525.91 100.159C526.072 97.8155 526.152 95.7149 526.152 93.8566C526.233 91.9983 526.233 90.14 526.152 88.2817C526.152 86.4234 526.072 84.3632 525.91 82.1009C525.748 76.6068 524.294 72.6075 521.547 70.1029C518.881 67.5174 514.882 66.2247 509.549 66.2247H497.309V116.156ZM1170.81 237.905C1171.38 238.469 1172.1 238.752 1172.99 238.752H1187.51C1188.39 238.752 1189.12 238.469 1189.68 237.905C1190.25 237.34 1190.53 236.615 1190.53 235.728V191.701L1220.04 236.453C1220.2 236.695 1220.57 237.139 1221.13 237.784C1221.78 238.429 1222.74 238.752 1224.03 238.752H1236.98C1237.86 238.752 1238.59 238.469 1239.15 237.905C1239.72 237.26 1240 236.534 1240 235.728V157.109C1240 156.222 1239.72 155.496 1239.15 154.932C1238.59 154.368 1237.86 154.085 1236.98 154.085H1222.46C1221.57 154.085 1220.85 154.368 1220.28 154.932C1219.72 155.496 1219.44 156.222 1219.44 157.109V202.95L1189.93 156.383C1189.76 156.061 1189.36 155.617 1188.72 155.053C1188.15 154.408 1187.18 154.085 1185.81 154.085H1172.99C1172.1 154.085 1171.38 154.368 1170.81 154.932C1170.25 155.496 1169.97 156.222 1169.97 157.109V235.728C1169.97 236.615 1170.25 237.34 1170.81 237.905ZM1099.1 236.333C1093.62 233.914 1089.35 230.285 1086.28 225.447C1083.22 220.528 1081.53 214.4 1081.2 207.062C1081.12 203.595 1081.08 200.128 1081.08 196.661C1081.08 193.193 1081.12 189.686 1081.2 186.138C1081.53 178.881 1083.22 172.793 1086.28 167.874C1089.43 162.875 1093.74 159.125 1099.22 156.626C1104.71 154.126 1111.12 152.876 1118.46 152.876C1125.71 152.876 1132.08 154.126 1137.57 156.626C1143.13 159.125 1147.48 162.875 1150.63 167.874C1153.77 172.793 1155.47 178.881 1155.71 186.138C1155.87 189.686 1155.95 193.193 1155.95 196.661C1155.95 200.128 1155.87 203.595 1155.71 207.062C1155.39 214.4 1153.69 220.528 1150.63 225.447C1147.57 230.285 1143.29 233.914 1137.81 236.333C1132.33 238.752 1125.87 239.961 1118.46 239.961C1111.04 239.961 1104.59 238.752 1099.1 236.333ZM1118.46 222.544C1122.73 222.544 1126.2 221.254 1128.86 218.674C1131.6 216.094 1133.05 211.981 1133.21 206.337C1133.37 202.789 1133.45 199.443 1133.45 196.298C1133.45 193.153 1133.37 189.887 1133.21 186.501C1133.05 182.711 1132.33 179.647 1131.04 177.308C1129.83 174.889 1128.13 173.115 1125.96 171.987C1123.78 170.858 1121.28 170.293 1118.46 170.293C1115.71 170.293 1113.26 170.858 1111.08 171.987C1108.9 173.115 1107.17 174.889 1105.88 177.308C1104.59 179.647 1103.86 182.711 1103.7 186.501C1103.62 189.887 1103.58 193.153 1103.58 196.298C1103.58 199.443 1103.62 202.789 1103.7 206.337C1103.94 211.981 1105.39 216.094 1108.05 218.674C1110.72 221.254 1114.18 222.544 1118.46 222.544ZM1045.49 237.905C1046.05 238.469 1046.78 238.752 1047.67 238.752H1063.87C1064.76 238.752 1065.49 238.469 1066.05 237.905C1066.61 237.34 1066.9 236.615 1066.9 235.728V157.109C1066.9 156.222 1066.61 155.496 1066.05 154.932C1065.49 154.368 1064.76 154.085 1063.87 154.085H1047.67C1046.78 154.085 1046.05 154.368 1045.49 154.932C1044.92 155.496 1044.64 156.222 1044.64 157.109V235.728C1044.64 236.615 1044.92 237.34 1045.49 237.905ZM990.108 238.752C989.221 238.752 988.495 238.469 987.93 237.905C987.366 237.34 987.084 236.615 987.084 235.728V173.075H965.554C964.667 173.075 963.942 172.793 963.377 172.228C962.813 171.583 962.531 170.857 962.531 170.051V157.109C962.531 156.222 962.813 155.496 963.377 154.932C963.942 154.368 964.667 154.085 965.554 154.085H1030.63C1031.51 154.085 1032.24 154.368 1032.8 154.932C1033.37 155.496 1033.65 156.222 1033.65 157.109V170.051C1033.65 170.857 1033.37 171.583 1032.8 172.228C1032.24 172.793 1031.51 173.075 1030.63 173.075H1009.1V235.728C1009.1 236.615 1008.81 237.34 1008.25 237.905C1007.69 238.469 1006.96 238.752 1006.07 238.752H990.108ZM883.853 238.026C884.417 238.51 885.022 238.752 885.667 238.752H900.544C901.915 238.752 902.882 238.469 903.447 237.905C904.011 237.26 904.374 236.695 904.535 236.212L909.131 223.874H941.426L946.143 236.212C946.304 236.695 946.667 237.26 947.231 237.905C947.876 238.469 948.804 238.752 950.013 238.752H964.89C965.616 238.752 966.221 238.51 966.704 238.026C967.269 237.461 967.551 236.857 967.551 236.212C967.551 235.808 967.47 235.446 967.309 235.123L939.007 157.472C938.765 156.585 938.241 155.819 937.434 155.174C936.708 154.448 935.66 154.085 934.289 154.085H916.389C915.018 154.085 913.929 154.448 913.123 155.174C912.397 155.819 911.913 156.585 911.671 157.472L883.248 235.123C883.167 235.446 883.127 235.808 883.127 236.212C883.127 236.857 883.369 237.461 883.853 238.026ZM936.587 206.457H914.091L925.218 174.526L936.587 206.457ZM809.897 238.752C809.01 238.752 808.284 238.469 807.72 237.905C807.155 237.34 806.873 236.615 806.873 235.728V157.109C806.873 156.222 807.155 155.496 807.72 154.932C808.284 154.368 809.01 154.085 809.897 154.085H842.796C853.198 154.085 861.382 156.504 867.349 161.342C873.397 166.1 876.42 172.873 876.42 181.662C876.42 187.387 875.009 192.225 872.187 196.177C869.445 200.128 865.817 203.111 861.301 205.127L877.993 234.881C878.235 235.365 878.356 235.808 878.356 236.212C878.356 236.857 878.073 237.461 877.509 238.026C877.025 238.51 876.42 238.752 875.695 238.752H859.729C858.197 238.752 857.068 238.389 856.342 237.663C855.617 236.857 855.092 236.131 854.77 235.486L840.981 208.876H828.523V235.728C828.523 236.615 828.241 237.34 827.677 237.905C827.112 238.469 826.387 238.752 825.5 238.752H809.897ZM828.523 191.822H842.554C846.344 191.822 849.166 190.895 851.02 189.04C852.956 187.186 853.923 184.646 853.923 181.42C853.923 178.276 852.996 175.736 851.141 173.8C849.367 171.865 846.505 170.898 842.554 170.898H828.523V191.822ZM730.473 237.905C731.037 238.469 731.763 238.752 732.65 238.752H790.102C790.989 238.752 791.715 238.469 792.279 237.905C792.843 237.34 793.126 236.615 793.126 235.728V224.358C793.126 223.471 792.843 222.746 792.279 222.181C791.715 221.617 790.989 221.334 790.102 221.334H750.551V204.522H786.473C787.36 204.522 788.086 204.24 788.65 203.676C789.215 203.03 789.497 202.305 789.497 201.498V190.976C789.497 190.089 789.215 189.363 788.65 188.798C788.086 188.153 787.36 187.831 786.473 187.831H750.551V171.502H789.134C790.021 171.502 790.747 171.22 791.311 170.656C791.876 170.091 792.158 169.366 792.158 168.479V157.109C792.158 156.222 791.876 155.496 791.311 154.932C790.747 154.368 790.021 154.085 789.134 154.085H732.65C731.763 154.085 731.037 154.368 730.473 154.932C729.908 155.496 729.626 156.222 729.626 157.109V235.728C729.626 236.615 729.908 237.34 730.473 237.905ZM645.715 238.752C644.828 238.752 644.103 238.469 643.538 237.905C642.974 237.34 642.692 236.615 642.692 235.728V157.109C642.692 156.222 642.974 155.496 643.538 154.932C644.103 154.368 644.828 154.085 645.715 154.085H658.536C659.907 154.085 660.875 154.408 661.439 155.053C662.084 155.617 662.487 156.061 662.649 156.383L692.161 202.95V157.109C692.161 156.222 692.443 155.496 693.007 154.932C693.572 154.368 694.298 154.085 695.185 154.085H709.699C710.586 154.085 711.311 154.368 711.876 154.932C712.44 155.496 712.723 156.222 712.723 157.109V235.728C712.723 236.534 712.44 237.26 711.876 237.905C711.311 238.469 710.586 238.752 709.699 238.752H696.757C695.467 238.752 694.499 238.429 693.854 237.784C693.29 237.139 692.927 236.695 692.766 236.453L663.253 191.701V235.728C663.253 236.615 662.971 237.34 662.407 237.905C661.842 238.469 661.117 238.752 660.23 238.752H645.715ZM566.291 237.905C566.856 238.469 567.581 238.752 568.468 238.752H625.92C626.807 238.752 627.533 238.469 628.097 237.905C628.662 237.34 628.944 236.615 628.944 235.728V224.358C628.944 223.471 628.662 222.746 628.097 222.181C627.533 221.617 626.807 221.334 625.92 221.334H586.369V204.522H622.292C623.179 204.522 623.904 204.24 624.469 203.676C625.033 203.03 625.316 202.305 625.316 201.498V190.976C625.316 190.089 625.033 189.363 624.469 188.798C623.904 188.153 623.179 187.831 622.292 187.831H586.369V171.502H624.953C625.84 171.502 626.565 171.22 627.13 170.656C627.694 170.091 627.977 169.366 627.977 168.479V157.109C627.977 156.222 627.694 155.496 627.13 154.932C626.565 154.368 625.84 154.085 624.953 154.085H568.468C567.581 154.085 566.856 154.368 566.291 154.932C565.727 155.496 565.444 156.222 565.444 157.109V235.728C565.444 236.615 565.727 237.34 566.291 237.905ZM513.352 239.961C505.692 239.961 499.08 238.712 493.516 236.212C488.033 233.632 483.759 229.922 480.695 225.084C477.712 220.166 476.059 214.199 475.736 207.183C475.656 203.716 475.615 200.047 475.615 196.177C475.615 192.226 475.656 188.476 475.736 184.928C476.059 178.074 477.752 172.269 480.816 167.511C483.88 162.754 488.194 159.125 493.758 156.626C499.322 154.126 505.853 152.876 513.352 152.876C519.4 152.876 524.762 153.642 529.439 155.174C534.116 156.626 538.026 158.601 541.171 161.101C544.396 163.601 546.815 166.342 548.428 169.326C550.121 172.309 551.008 175.252 551.089 178.155C551.17 178.881 550.928 179.486 550.363 179.969C549.88 180.453 549.275 180.695 548.549 180.695H530.89C530.003 180.695 529.318 180.574 528.834 180.332C528.431 180.01 528.068 179.566 527.745 179.002C527.181 177.792 526.334 176.542 525.205 175.252C524.157 173.881 522.665 172.712 520.73 171.745C518.876 170.777 516.416 170.293 513.352 170.293C508.756 170.293 505.127 171.503 502.467 173.922C499.886 176.341 498.475 180.211 498.233 185.533C497.991 192.468 497.991 199.483 498.233 206.579C498.475 212.223 499.967 216.295 502.708 218.795C505.45 221.294 509.079 222.544 513.594 222.544C516.658 222.544 519.359 222.02 521.698 220.972C524.117 219.924 526.012 218.311 527.383 216.134C528.753 213.876 529.439 211.014 529.439 207.546V205.248H518.069C517.182 205.248 516.416 204.966 515.771 204.402C515.207 203.756 514.925 202.99 514.925 202.103V193.153C514.925 192.266 515.207 191.54 515.771 190.976C516.416 190.331 517.182 190.008 518.069 190.008H548.549C549.436 190.008 550.162 190.331 550.726 190.976C551.291 191.54 551.573 192.266 551.573 193.153V206.942C551.573 213.876 550.001 219.803 546.856 224.721C543.711 229.64 539.236 233.43 533.43 236.091C527.705 238.671 521.012 239.961 513.352 239.961ZM1165.53 343.905C1166.05 344.431 1166.8 344.694 1167.76 344.694H1174.07C1175.03 344.694 1175.78 344.431 1176.3 343.905C1176.92 343.292 1177.22 342.547 1177.22 341.671V276.495L1220.72 342.854C1220.89 343.029 1221.2 343.38 1221.64 343.905C1222.16 344.431 1222.91 344.694 1223.87 344.694H1230.18C1231.05 344.694 1231.76 344.387 1232.28 343.774C1232.89 343.161 1233.2 342.416 1233.2 341.54V255.864C1233.2 254.901 1232.89 254.156 1232.28 253.63C1231.76 253.017 1231.01 252.71 1230.05 252.71H1223.74C1222.78 252.71 1222.03 253.017 1221.51 253.63C1220.98 254.156 1220.72 254.901 1220.72 255.864V321.566L1177.09 254.55C1177 254.287 1176.7 253.937 1176.17 253.499C1175.65 252.973 1174.86 252.71 1173.81 252.71H1167.76C1166.8 252.71 1166.05 253.017 1165.53 253.63C1165 254.156 1164.74 254.901 1164.74 255.864V341.671C1164.74 342.547 1165 343.292 1165.53 343.905ZM1070.54 344.694C1069.84 344.694 1069.23 344.431 1068.7 343.905C1068.17 343.38 1067.91 342.766 1067.91 342.066C1067.91 341.628 1067.96 341.146 1068.04 340.62L1100.63 255.601C1100.98 254.725 1101.46 254.025 1102.08 253.499C1102.69 252.973 1103.61 252.71 1104.84 252.71H1113.77C1114.91 252.71 1115.79 252.973 1116.4 253.499C1117.1 254.025 1117.63 254.725 1117.98 255.601L1150.43 340.62C1150.61 341.146 1150.7 341.628 1150.7 342.066C1150.7 342.766 1150.43 343.38 1149.91 343.905C1149.38 344.431 1148.77 344.694 1148.07 344.694H1141.37C1140.32 344.694 1139.53 344.431 1139 343.905C1138.56 343.38 1138.26 342.898 1138.08 342.46L1130.85 323.8H1087.75L1080.53 342.46C1080.44 342.898 1080.13 343.38 1079.61 343.905C1079.08 344.431 1078.29 344.694 1077.24 344.694H1070.54ZM1091.56 312.5H1127.04L1109.3 265.851L1091.56 312.5ZM1031.26 343.905C1031.87 344.431 1032.61 344.694 1033.49 344.694H1040.32C1041.29 344.694 1042.03 344.431 1042.56 343.905C1043.17 343.292 1043.48 342.547 1043.48 341.671V264.405H1068.58C1069.54 264.405 1070.28 264.143 1070.81 263.617C1071.42 263.004 1071.73 262.259 1071.73 261.383V255.864C1071.73 254.901 1071.42 254.156 1070.81 253.63C1070.28 253.017 1069.54 252.71 1068.58 252.71H1005.24C1004.36 252.71 1003.62 253.017 1003 253.63C1002.48 254.156 1002.22 254.901 1002.22 255.864V261.383C1002.22 262.259 1002.48 263.004 1003 263.617C1003.62 264.143 1004.36 264.405 1005.24 264.405H1030.47V341.671C1030.47 342.547 1030.73 343.292 1031.26 343.905ZM959.212 346.008C951.591 346.008 945.196 344.869 940.027 342.591C934.859 340.226 930.873 337.203 928.07 333.524C925.354 329.757 923.908 325.771 923.733 321.566C923.733 320.865 923.996 320.252 924.522 319.727C925.135 319.113 925.836 318.807 926.624 318.807H933.326C934.377 318.807 935.165 319.07 935.691 319.595C936.217 320.121 936.567 320.734 936.742 321.435C937.18 323.537 938.231 325.64 939.896 327.742C941.648 329.757 944.057 331.465 947.123 332.867C950.277 334.181 954.307 334.838 959.212 334.838C966.746 334.838 972.265 333.524 975.769 330.896C979.361 328.18 981.157 324.589 981.157 320.121C981.157 317.055 980.193 314.602 978.266 312.762C976.426 310.835 973.579 309.127 969.725 307.637C965.87 306.148 960.877 304.528 954.745 302.775C948.35 300.936 943.05 298.921 938.845 296.731C934.64 294.541 931.486 291.825 929.384 288.584C927.369 285.342 926.361 281.225 926.361 276.232C926.361 271.501 927.632 267.296 930.172 263.617C932.712 259.85 936.348 256.872 941.079 254.681C945.897 252.491 951.722 251.396 958.555 251.396C963.987 251.396 968.717 252.141 972.747 253.63C976.864 255.032 980.281 256.959 982.997 259.412C985.712 261.777 987.771 264.362 989.173 267.165C990.574 269.881 991.319 272.552 991.406 275.181C991.406 275.794 991.187 276.407 990.749 277.02C990.311 277.546 989.611 277.809 988.647 277.809H981.683C981.069 277.809 980.412 277.633 979.711 277.283C979.098 276.933 978.616 276.276 978.266 275.312C977.74 271.72 975.726 268.698 972.221 266.245C968.717 263.792 964.162 262.566 958.555 262.566C952.861 262.566 948.218 263.661 944.626 265.851C941.122 268.041 939.37 271.457 939.37 276.1C939.37 279.079 940.203 281.576 941.867 283.59C943.531 285.518 946.16 287.226 949.751 288.715C953.343 290.204 958.03 291.781 963.812 293.446C970.82 295.373 976.558 297.432 981.026 299.622C985.493 301.724 988.778 304.396 990.881 307.637C993.071 310.791 994.166 314.865 994.166 319.858C994.166 325.377 992.721 330.108 989.83 334.05C986.939 337.904 982.865 340.883 977.609 342.985C972.44 345 966.308 346.008 959.212 346.008ZM894.504 343.905C895.029 344.431 895.774 344.694 896.737 344.694H903.702C904.578 344.694 905.279 344.431 905.804 343.905C906.417 343.292 906.724 342.547 906.724 341.671V255.733C906.724 254.857 906.417 254.156 905.804 253.63C905.279 253.017 904.578 252.71 903.702 252.71H896.737C895.774 252.71 895.029 253.017 894.504 253.63C893.978 254.156 893.715 254.857 893.715 255.733V341.671C893.715 342.547 893.978 343.292 894.504 343.905ZM817.819 344.694C816.855 344.694 816.111 344.431 815.585 343.905C815.06 343.292 814.797 342.547 814.797 341.671V255.864C814.797 254.901 815.06 254.156 815.585 253.63C816.111 253.017 816.855 252.71 817.819 252.71H824.389C825.353 252.71 826.098 253.017 826.623 253.63C827.236 254.156 827.543 254.901 827.543 255.864V288.452L862.628 254.813C862.978 254.463 863.548 254.025 864.336 253.499C865.212 252.973 866.351 252.71 867.753 252.71H874.849C875.549 252.71 876.163 252.973 876.688 253.499C877.214 254.025 877.477 254.638 877.477 255.339C877.477 256.039 877.301 256.609 876.951 257.047L836.347 296.731L879.579 340.226C880.017 340.751 880.236 341.365 880.236 342.066C880.236 342.766 879.973 343.38 879.448 343.905C878.922 344.431 878.309 344.694 877.608 344.694H870.249C868.76 344.694 867.621 344.431 866.833 343.905C866.044 343.292 865.475 342.854 865.125 342.591L827.543 305.535V341.671C827.543 342.547 827.236 343.292 826.623 343.905C826.098 344.431 825.353 344.694 824.389 344.694H817.819ZM735.896 343.905C736.422 344.431 737.166 344.694 738.13 344.694H793.451C794.415 344.694 795.16 344.431 795.685 343.905C796.211 343.292 796.474 342.547 796.474 341.671V336.547C796.474 335.583 796.211 334.838 795.685 334.313C795.16 333.787 794.415 333.524 793.451 333.524H747.723V303.695H789.509C790.473 303.695 791.217 303.433 791.743 302.907C792.269 302.294 792.532 301.549 792.532 300.673V295.811C792.532 294.848 792.269 294.103 791.743 293.577C791.217 292.964 790.473 292.657 789.509 292.657H747.723V263.88H792.4C793.364 263.88 794.108 263.617 794.634 263.091C795.16 262.566 795.422 261.821 795.422 260.858V255.864C795.422 254.901 795.16 254.156 794.634 253.63C794.108 253.017 793.364 252.71 792.4 252.71H738.13C737.166 252.71 736.422 253.017 735.896 253.63C735.371 254.156 735.108 254.901 735.108 255.864V341.671C735.108 342.547 735.371 343.292 735.896 343.905ZM650.357 344.694C649.394 344.694 648.649 344.431 648.124 343.905C647.598 343.292 647.335 342.547 647.335 341.671V255.864C647.335 254.901 647.598 254.156 648.124 253.63C648.649 253.017 649.394 252.71 650.357 252.71H686.362C692.932 252.71 698.276 253.806 702.394 255.996C706.599 258.098 709.665 260.989 711.592 264.668C713.607 268.348 714.614 272.465 714.614 277.02C714.614 280.612 714.001 283.722 712.775 286.35C711.636 288.891 710.19 290.993 708.438 292.657C706.686 294.234 704.978 295.461 703.313 296.337C706.73 298.001 709.752 300.717 712.38 304.484C715.096 308.251 716.454 312.806 716.454 318.15C716.454 322.968 715.359 327.392 713.169 331.422C710.979 335.451 707.694 338.693 703.313 341.146C699.021 343.511 693.677 344.694 687.282 344.694H650.357ZM660.213 334.05H685.574C691.268 334.05 695.648 332.517 698.714 329.451C701.78 326.385 703.313 322.618 703.313 318.15C703.313 313.507 701.78 309.696 698.714 306.718C695.648 303.652 691.268 302.119 685.574 302.119H660.213V334.05ZM660.213 291.606H684.391C689.998 291.606 694.247 290.336 697.137 287.795C700.028 285.167 701.474 281.619 701.474 277.152C701.474 272.684 700.028 269.267 697.137 266.902C694.247 264.537 689.998 263.354 684.391 263.354H660.213V291.606ZM563.288 343.774C563.814 344.387 564.558 344.694 565.522 344.694H627.545C628.509 344.694 629.253 344.431 629.779 343.905C630.392 343.292 630.699 342.547 630.699 341.671V336.415C630.699 335.451 630.392 334.707 629.779 334.181C629.253 333.568 628.509 333.261 627.545 333.261H579.188L627.545 266.114C628.071 265.501 628.465 264.843 628.728 264.143C629.078 263.442 629.253 262.566 629.253 261.515V255.864C629.253 254.901 628.99 254.156 628.465 253.63C627.939 253.017 627.195 252.71 626.231 252.71H566.705C565.829 252.71 565.084 253.017 564.471 253.63C563.945 254.156 563.682 254.901 563.682 255.864V261.12C563.682 261.996 563.945 262.741 564.471 263.354C565.084 263.88 565.829 264.143 566.705 264.143H613.353L564.471 331.028C564.208 331.378 563.814 331.947 563.288 332.736C562.763 333.524 562.5 334.575 562.5 335.889V341.54C562.5 342.416 562.763 343.161 563.288 343.774ZM511.094 346.008C503.736 346.008 497.385 344.694 492.041 342.065C486.785 339.437 482.711 335.451 479.82 330.108C477.017 324.676 475.615 317.712 475.615 309.214V255.864C475.615 254.901 475.878 254.156 476.404 253.63C476.929 253.017 477.674 252.71 478.638 252.71H485.339C486.303 252.71 487.047 253.017 487.573 253.63C488.186 254.156 488.493 254.901 488.493 255.864V309.477C488.493 318.062 490.508 324.414 494.537 328.531C498.567 332.648 504.086 334.707 511.094 334.707C518.015 334.707 523.49 332.648 527.52 328.531C531.637 324.414 533.696 318.062 533.696 309.477V255.864C533.696 254.901 533.959 254.156 534.484 253.63C535.098 253.017 535.842 252.71 536.718 252.71H543.551C544.427 252.71 545.128 253.017 545.654 253.63C546.267 254.156 546.574 254.901 546.574 255.864V309.214C546.574 317.712 545.128 324.676 542.237 330.108C539.434 335.451 535.404 339.437 530.148 342.065C524.892 344.694 518.541 346.008 511.094 346.008ZM1030.1 404.572C1032.85 407.161 1036.55 408.455 1041.2 408.455C1043.54 408.455 1045.6 408.151 1047.38 407.545C1049.2 406.938 1050.72 406.19 1051.93 405.3C1053.15 404.37 1054.06 403.44 1054.66 402.51C1055.31 401.539 1055.65 400.731 1055.69 400.084C1055.74 399.679 1055.61 399.376 1055.33 399.174C1055.09 398.931 1054.76 398.81 1054.36 398.81H1048.05C1047.57 398.81 1047.2 398.87 1046.96 398.992C1046.76 399.073 1046.47 399.315 1046.11 399.72C1045.91 400.003 1045.58 400.346 1045.14 400.751C1044.74 401.155 1044.21 401.499 1043.56 401.782C1042.92 402.065 1042.09 402.207 1041.08 402.207C1039.86 402.207 1038.81 401.883 1037.92 401.236C1037.07 400.589 1036.4 399.74 1035.92 398.688C1035.47 397.596 1035.23 396.404 1035.19 395.109V394.867V394.624H1055.03C1055.43 394.624 1055.78 394.483 1056.06 394.2C1056.38 393.916 1056.54 393.573 1056.54 393.168V391.773C1056.54 388.659 1055.96 385.909 1054.78 383.523C1053.65 381.097 1051.93 379.196 1049.63 377.821C1047.36 376.406 1044.53 375.698 1041.14 375.698C1038.1 375.698 1035.45 376.305 1033.19 377.518C1030.93 378.691 1029.17 380.409 1027.91 382.674C1026.66 384.898 1025.95 387.567 1025.79 390.681V392.016V393.29C1025.95 398.223 1027.39 401.984 1030.1 404.572ZM1046.35 385.222C1046.84 386.273 1047.08 387.527 1047.08 388.983V389.104H1035.19V388.983C1035.19 387.527 1035.41 386.273 1035.86 385.222C1036.34 384.13 1037.03 383.281 1037.92 382.674C1038.81 382.068 1039.88 381.764 1041.14 381.764C1042.39 381.764 1043.46 382.068 1044.35 382.674C1045.24 383.281 1045.91 384.13 1046.35 385.222ZM1002.58 407.848C1002.17 407.848 1001.83 407.706 1001.54 407.423C1001.26 407.14 1001.12 406.776 1001.12 406.331V377.821C1001.12 377.417 1001.26 377.073 1001.54 376.79C1001.83 376.466 1002.17 376.304 1002.58 376.304H1008.52C1008.93 376.304 1009.27 376.466 1009.55 376.79C1009.88 377.073 1010.04 377.417 1010.04 377.821V380.247C1011.05 378.994 1012.28 378.023 1013.74 377.336C1015.23 376.648 1016.95 376.304 1018.89 376.304H1021.5C1021.91 376.304 1022.25 376.446 1022.53 376.729C1022.82 377.012 1022.96 377.376 1022.96 377.821V383.038C1022.96 383.483 1022.82 383.847 1022.53 384.13C1022.25 384.413 1021.91 384.554 1021.5 384.554H1016.16C1014.38 384.554 1012.99 385.06 1011.98 386.071C1010.97 387.041 1010.46 388.436 1010.46 390.256V406.331C1010.46 406.776 1010.32 407.14 1010.04 407.423C1009.75 407.706 1009.39 407.848 1008.95 407.848H1002.58ZM983.355 407.423C983.638 407.706 983.982 407.848 984.387 407.848H990.453C990.897 407.848 991.261 407.706 991.544 407.423C991.827 407.14 991.969 406.776 991.969 406.331V377.821C991.969 377.376 991.827 377.013 991.544 376.729C991.261 376.446 990.897 376.305 990.453 376.305H984.387C983.982 376.305 983.638 376.446 983.355 376.729C983.072 377.013 982.931 377.376 982.931 377.821V406.331C982.931 406.776 983.072 407.14 983.355 407.423ZM983.173 371.027C983.456 371.31 983.8 371.452 984.205 371.452H990.574C991.019 371.452 991.383 371.31 991.666 371.027C991.989 370.744 992.151 370.38 992.151 369.936V365.083C992.151 364.638 991.989 364.274 991.666 363.991C991.383 363.667 991.019 363.506 990.574 363.506H984.205C983.8 363.506 983.456 363.667 983.173 363.991C982.89 364.274 982.749 364.638 982.749 365.083V369.936C982.749 370.38 982.89 370.744 983.173 371.027ZM946.716 419.373C946.271 419.373 945.907 419.232 945.624 418.949C945.341 418.666 945.2 418.302 945.2 417.857V377.821C945.2 377.376 945.341 377.013 945.624 376.729C945.907 376.446 946.271 376.305 946.716 376.305H952.479C952.924 376.305 953.288 376.446 953.571 376.729C953.854 377.013 953.995 377.376 953.995 377.821V380.126C954.966 378.832 956.22 377.781 957.756 376.972C959.293 376.123 961.214 375.698 963.519 375.698C965.622 375.698 967.442 376.042 968.978 376.729C970.556 377.376 971.87 378.327 972.921 379.58C974.013 380.794 974.842 382.27 975.408 384.009C976.015 385.748 976.359 387.709 976.44 389.893C976.48 390.661 976.5 391.389 976.5 392.076C976.5 392.764 976.48 393.512 976.44 394.321C976.399 396.383 976.076 398.284 975.469 400.023C974.903 401.762 974.074 403.258 972.982 404.512C971.89 405.765 970.556 406.736 968.978 407.423C967.442 408.111 965.622 408.455 963.519 408.455C961.457 408.455 959.657 408.091 958.12 407.363C956.624 406.594 955.391 405.563 954.42 404.269V417.857C954.42 418.302 954.279 418.666 953.995 418.949C953.712 419.232 953.369 419.373 952.964 419.373H946.716ZM960.789 401.175C962.326 401.175 963.539 400.852 964.429 400.205C965.319 399.517 965.945 398.628 966.309 397.536C966.714 396.444 966.956 395.251 967.037 393.957C967.118 392.703 967.118 391.45 967.037 390.196C966.956 388.902 966.714 387.709 966.309 386.617C965.945 385.525 965.319 384.656 964.429 384.009C963.539 383.321 962.326 382.977 960.789 382.977C959.293 382.977 958.08 383.321 957.15 384.009C956.22 384.696 955.552 385.566 955.148 386.617C954.744 387.668 954.501 388.801 954.42 390.014C954.38 390.742 954.359 391.49 954.359 392.258C954.359 393.027 954.38 393.795 954.42 394.563C954.461 395.696 954.703 396.767 955.148 397.778C955.633 398.749 956.321 399.558 957.21 400.205C958.141 400.852 959.334 401.175 960.789 401.175ZM918.261 407.605C920.081 408.172 922.244 408.455 924.752 408.455C927.906 408.455 930.555 408.05 932.698 407.241C934.882 406.392 936.54 405.24 937.672 403.784C938.805 402.288 939.371 400.589 939.371 398.688C939.371 397.233 939.007 395.878 938.279 394.624C937.591 393.33 936.439 392.198 934.821 391.227C933.204 390.257 931.02 389.529 928.27 389.043C925.965 388.599 924.246 388.174 923.114 387.77C921.982 387.365 921.233 386.92 920.869 386.435C920.506 385.95 920.324 385.424 920.324 384.858C920.324 383.968 920.667 383.24 921.355 382.674C922.083 382.068 923.114 381.764 924.448 381.764C925.54 381.764 926.43 381.926 927.117 382.25C927.805 382.573 928.391 382.957 928.877 383.402C929.402 383.806 929.908 384.17 930.393 384.494C930.514 384.615 930.656 384.716 930.818 384.797C930.979 384.838 931.161 384.858 931.364 384.858H936.762C937.126 384.858 937.45 384.716 937.733 384.433C938.016 384.15 938.137 383.806 938.097 383.402C938.056 382.755 937.733 382.007 937.126 381.158C936.56 380.268 935.711 379.419 934.579 378.61C933.446 377.761 932.031 377.073 930.332 376.547C928.674 375.981 926.733 375.698 924.509 375.698C921.597 375.698 919.171 376.184 917.23 377.154C915.289 378.084 913.813 379.277 912.802 380.733C911.831 382.189 911.346 383.705 911.346 385.283C911.346 387.021 911.73 388.518 912.498 389.771C913.267 390.985 914.419 391.996 915.956 392.804C917.493 393.613 919.353 394.26 921.537 394.745C923.842 395.231 925.581 395.676 926.753 396.08C927.926 396.484 928.715 396.929 929.119 397.414C929.564 397.9 929.786 398.506 929.786 399.234C929.786 400.245 929.321 401.034 928.391 401.6C927.461 402.126 926.329 402.389 924.994 402.389C923.862 402.389 922.912 402.227 922.143 401.903C921.415 401.58 920.768 401.196 920.202 400.751C919.636 400.266 919.09 399.841 918.564 399.477C918.443 399.315 918.322 399.214 918.2 399.174C918.079 399.133 917.958 399.113 917.836 399.113H911.952C911.629 399.113 911.305 399.255 910.982 399.538C910.658 399.821 910.517 400.185 910.557 400.629C910.598 401.236 910.881 401.984 911.407 402.874C911.973 403.723 912.802 404.572 913.894 405.422C915.026 406.271 916.482 406.999 918.261 407.605ZM875.393 407.848C874.989 407.848 874.645 407.706 874.362 407.423C874.079 407.14 873.937 406.776 873.937 406.332V377.821C873.937 377.376 874.079 377.013 874.362 376.729C874.645 376.446 874.989 376.305 875.393 376.305H881.338C881.783 376.305 882.147 376.446 882.43 376.729C882.713 377.013 882.854 377.376 882.854 377.821V380.187C883.906 378.893 885.26 377.821 886.919 376.972C888.577 376.123 890.599 375.698 892.985 375.698C895.37 375.698 897.453 376.244 899.233 377.336C901.052 378.387 902.468 379.944 903.479 382.007C904.53 384.029 905.056 386.496 905.056 389.407V406.332C905.056 406.776 904.894 407.14 904.571 407.423C904.288 407.706 903.944 407.848 903.539 407.848H897.109C896.665 407.848 896.301 407.706 896.018 407.423C895.734 407.14 895.593 406.776 895.593 406.332V389.771C895.593 387.628 895.067 385.97 894.016 384.797C893.005 383.584 891.508 382.977 889.527 382.977C887.626 382.977 886.11 383.584 884.977 384.797C883.845 385.97 883.279 387.628 883.279 389.771V406.332C883.279 406.776 883.137 407.14 882.854 407.423C882.571 407.706 882.228 407.848 881.823 407.848H875.393ZM856.17 407.423C856.453 407.706 856.797 407.848 857.201 407.848H863.267C863.712 407.848 864.076 407.706 864.359 407.423C864.642 407.14 864.783 406.776 864.783 406.331V377.821C864.783 377.376 864.642 377.013 864.359 376.729C864.076 376.446 863.712 376.305 863.267 376.305H857.201C856.797 376.305 856.453 376.446 856.17 376.729C855.887 377.013 855.745 377.376 855.745 377.821V406.331C855.745 406.776 855.887 407.14 856.17 407.423ZM855.988 371.027C856.271 371.31 856.615 371.452 857.019 371.452H863.388C863.833 371.452 864.197 371.31 864.48 371.027C864.804 370.744 864.965 370.38 864.965 369.936V365.083C864.965 364.638 864.804 364.274 864.48 363.991C864.197 363.667 863.833 363.506 863.388 363.506H857.019C856.615 363.506 856.271 363.667 855.988 363.991C855.705 364.274 855.563 364.638 855.563 365.083V369.936C855.563 370.38 855.705 370.744 855.988 371.027ZM825.466 412.397C825.143 412.397 824.859 412.256 824.617 411.973C824.415 411.73 824.334 411.427 824.374 411.063L826.073 400.023C826.154 399.497 826.356 399.032 826.679 398.628C827.003 398.223 827.488 398.021 828.135 398.021H834.444C834.767 398.021 835.03 398.142 835.232 398.385C835.475 398.587 835.596 398.85 835.596 399.173C835.596 399.416 835.556 399.659 835.475 399.901L831.229 410.759C831.067 411.164 830.824 411.528 830.501 411.851C830.218 412.215 829.753 412.397 829.106 412.397H825.466ZM793.379 404.572C796.129 407.161 799.829 408.455 804.479 408.455C806.825 408.455 808.887 408.151 810.667 407.545C812.487 406.938 814.003 406.19 815.216 405.3C816.43 404.37 817.339 403.44 817.946 402.51C818.593 401.539 818.937 400.731 818.977 400.084C819.018 399.679 818.896 399.376 818.613 399.174C818.371 398.931 818.047 398.81 817.643 398.81H811.334C810.849 398.81 810.485 398.87 810.242 398.992C810.04 399.073 809.757 399.315 809.393 399.72C809.191 400.003 808.867 400.346 808.422 400.751C808.018 401.155 807.492 401.499 806.845 401.782C806.198 402.065 805.369 402.207 804.358 402.207C803.145 402.207 802.094 401.883 801.204 401.236C800.355 400.589 799.687 399.74 799.202 398.688C798.757 397.596 798.515 396.404 798.474 395.109V394.867V394.624H818.31C818.714 394.624 819.058 394.483 819.341 394.2C819.665 393.916 819.826 393.573 819.826 393.168V391.773C819.826 388.659 819.24 385.909 818.067 383.523C816.935 381.097 815.216 379.196 812.911 377.821C810.647 376.406 807.816 375.698 804.419 375.698C801.386 375.698 798.737 376.305 796.472 377.518C794.208 378.691 792.449 380.409 791.195 382.674C789.941 384.898 789.234 387.567 789.072 390.681V392.016V393.29C789.234 398.223 790.669 401.984 793.379 404.572ZM810.364 389.104H798.474V388.983C798.474 387.527 798.697 386.273 799.141 385.222C799.627 384.13 800.314 383.281 801.204 382.674C802.094 382.068 803.165 381.764 804.419 381.764C805.672 381.764 806.744 382.068 807.634 382.674C808.523 383.281 809.191 384.13 809.636 385.222C810.121 386.273 810.364 387.527 810.364 388.983V389.104ZM765.856 407.848C765.452 407.848 765.108 407.706 764.825 407.423C764.542 407.14 764.4 406.776 764.4 406.331V377.821C764.4 377.417 764.542 377.073 764.825 376.79C765.108 376.466 765.452 376.304 765.856 376.304H771.801C772.205 376.304 772.549 376.466 772.832 376.79C773.156 377.073 773.317 377.417 773.317 377.821V380.247C774.328 378.994 775.562 378.023 777.018 377.336C778.514 376.648 780.233 376.304 782.174 376.304H784.782C785.186 376.304 785.53 376.446 785.813 376.729C786.096 377.012 786.238 377.376 786.238 377.821V383.038C786.238 383.483 786.096 383.847 785.813 384.13C785.53 384.413 785.186 384.554 784.782 384.554H779.444C777.665 384.554 776.269 385.06 775.258 386.071C774.247 387.041 773.742 388.436 773.742 390.256V406.331C773.742 406.776 773.6 407.14 773.317 407.423C773.034 407.706 772.67 407.848 772.225 407.848H765.856ZM732.732 407.241C734.431 408.05 736.352 408.455 738.495 408.455C740.153 408.455 741.589 408.252 742.802 407.848C744.056 407.444 745.127 406.918 746.017 406.271C746.907 405.583 747.614 404.855 748.14 404.087V406.332C748.14 406.776 748.282 407.14 748.565 407.423C748.848 407.706 749.191 407.848 749.596 407.848H755.54C755.985 407.848 756.349 407.706 756.632 407.423C756.915 407.14 757.057 406.776 757.057 406.332V387.588C757.057 385.93 756.794 384.393 756.268 382.977C755.743 381.522 754.934 380.248 753.842 379.156C752.75 378.064 751.294 377.215 749.474 376.608C747.655 376.002 745.471 375.698 742.923 375.698C740.456 375.698 738.374 376.002 736.675 376.608C734.977 377.215 733.582 377.983 732.49 378.913C731.398 379.803 730.589 380.713 730.063 381.643C729.538 382.573 729.275 383.382 729.275 384.069C729.234 384.433 729.335 384.757 729.578 385.04C729.821 385.283 730.164 385.404 730.609 385.404H736.372C736.979 385.404 737.444 385.141 737.767 384.615C738.212 383.766 738.839 383.079 739.648 382.553C740.456 382.027 741.528 381.764 742.863 381.764C744.682 381.764 745.956 382.189 746.684 383.038C747.412 383.887 747.776 385.101 747.776 386.678V387.77L739.83 388.922C736.028 389.529 732.955 390.661 730.609 392.319C728.304 393.977 727.152 396.242 727.152 399.113C727.152 400.852 727.657 402.429 728.668 403.844C729.679 405.26 731.034 406.392 732.732 407.241ZM744.5 401.297C743.449 401.863 742.256 402.146 740.921 402.146C740.072 402.146 739.263 402.004 738.495 401.721C737.727 401.438 737.1 401.014 736.615 400.447C736.17 399.881 735.947 399.214 735.947 398.446C735.947 397.394 736.453 396.505 737.464 395.777C738.475 395.049 740.072 394.503 742.256 394.139L747.897 393.229V394.26C747.897 396.04 747.594 397.516 746.987 398.688C746.381 399.861 745.552 400.731 744.5 401.297ZM691.987 407.848C691.543 407.848 691.179 407.706 690.895 407.423C690.612 407.14 690.471 406.776 690.471 406.331V366.296C690.471 365.851 690.612 365.487 690.895 365.204C691.179 364.921 691.543 364.779 691.987 364.779H698.539C698.943 364.779 699.287 364.921 699.57 365.204C699.853 365.487 699.994 365.851 699.994 366.296V379.944C701.086 378.65 702.421 377.619 703.998 376.85C705.575 376.082 707.476 375.698 709.7 375.698C712.086 375.698 714.189 376.244 716.009 377.336C717.869 378.387 719.325 379.944 720.376 382.006C721.428 384.028 721.953 386.495 721.953 389.407V406.331C721.953 406.776 721.812 407.14 721.529 407.423C721.246 407.706 720.882 407.848 720.437 407.848H713.825C713.421 407.848 713.077 407.706 712.794 407.423C712.511 407.14 712.369 406.776 712.369 406.331V389.771C712.369 387.628 711.843 385.97 710.792 384.797C709.74 383.584 708.244 382.977 706.303 382.977C704.402 382.977 702.866 383.584 701.693 384.797C700.561 385.97 699.994 387.628 699.994 389.771V406.331C699.994 406.776 699.853 407.14 699.57 407.423C699.287 407.706 698.943 407.848 698.539 407.848H691.987ZM663.54 407.605C665.359 408.172 667.523 408.455 670.03 408.455C673.185 408.455 675.833 408.05 677.977 407.241C680.161 406.392 681.819 405.24 682.951 403.784C684.083 402.288 684.649 400.589 684.649 398.688C684.649 397.233 684.285 395.878 683.557 394.624C682.87 393.33 681.717 392.198 680.1 391.227C678.482 390.257 676.299 389.529 673.549 389.043C671.244 388.599 669.525 388.174 668.393 387.77C667.26 387.365 666.512 386.92 666.148 386.435C665.784 385.95 665.602 385.424 665.602 384.858C665.602 383.968 665.946 383.24 666.633 382.674C667.361 382.068 668.393 381.764 669.727 381.764C670.819 381.764 671.709 381.926 672.396 382.25C673.084 382.573 673.67 382.957 674.155 383.402C674.681 383.806 675.186 384.17 675.672 384.494C675.793 384.615 675.935 384.716 676.096 384.797C676.258 384.838 676.44 384.858 676.642 384.858H682.041C682.405 384.858 682.728 384.716 683.012 384.433C683.295 384.15 683.416 383.806 683.376 383.402C683.335 382.755 683.012 382.007 682.405 381.158C681.839 380.268 680.99 379.419 679.857 378.61C678.725 377.761 677.31 377.073 675.611 376.547C673.953 375.981 672.012 375.698 669.788 375.698C666.876 375.698 664.45 376.184 662.508 377.154C660.567 378.084 659.091 379.277 658.08 380.733C657.11 382.189 656.624 383.705 656.624 385.283C656.624 387.021 657.009 388.518 657.777 389.771C658.545 390.985 659.698 391.996 661.235 392.804C662.771 393.613 664.632 394.26 666.815 394.745C669.12 395.231 670.859 395.676 672.032 396.08C673.205 396.484 673.993 396.929 674.398 397.414C674.843 397.9 675.065 398.506 675.065 399.234C675.065 400.245 674.6 401.034 673.67 401.6C672.74 402.126 671.607 402.389 670.273 402.389C669.141 402.389 668.19 402.227 667.422 401.903C666.694 401.58 666.047 401.196 665.481 400.751C664.915 400.266 664.369 399.841 663.843 399.477C663.722 399.315 663.6 399.214 663.479 399.174C663.358 399.133 663.236 399.113 663.115 399.113H657.231C656.908 399.113 656.584 399.255 656.261 399.538C655.937 399.821 655.795 400.185 655.836 400.629C655.876 401.236 656.159 401.984 656.685 402.874C657.251 403.723 658.08 404.572 659.172 405.422C660.305 406.271 661.76 406.999 663.54 407.605ZM627.313 412.397C626.99 412.397 626.707 412.256 626.464 411.973C626.262 411.73 626.181 411.427 626.221 411.063L627.92 400.023C628.001 399.497 628.203 399.032 628.527 398.628C628.85 398.223 629.335 398.021 629.982 398.021H636.291C636.615 398.021 636.877 398.142 637.08 398.385C637.322 398.587 637.444 398.85 637.444 399.173C637.444 399.416 637.403 399.659 637.322 399.901L633.076 410.759C632.914 411.164 632.672 411.528 632.348 411.851C632.065 412.215 631.6 412.397 630.953 412.397H627.313ZM589.778 407.423C590.061 407.706 590.404 407.848 590.809 407.848H597.239C597.643 407.848 597.987 407.706 598.27 407.423C598.553 407.14 598.695 406.776 598.695 406.332V389.771C598.695 387.628 599.261 385.97 600.393 384.797C601.525 383.584 603.042 382.977 604.943 382.977C606.924 382.977 608.42 383.584 609.431 384.797C610.483 385.97 611.009 387.628 611.009 389.771V406.332C611.009 406.776 611.15 407.14 611.433 407.423C611.716 407.706 612.08 407.848 612.525 407.848H618.955C619.359 407.848 619.703 407.706 619.986 407.423C620.31 407.14 620.471 406.776 620.471 406.332V389.407C620.471 386.496 619.946 384.029 618.894 382.007C617.883 379.944 616.468 378.387 614.648 377.336C612.869 376.244 610.786 375.698 608.4 375.698C606.014 375.698 603.992 376.123 602.334 376.972C600.676 377.821 599.321 378.893 598.27 380.187V377.821C598.27 377.376 598.128 377.013 597.845 376.729C597.562 376.446 597.198 376.305 596.753 376.305H590.809C590.404 376.305 590.061 376.446 589.778 376.729C589.494 377.013 589.353 377.376 589.353 377.821V406.332C589.353 406.776 589.494 407.14 589.778 407.423ZM564.448 407.848C564.044 407.848 563.7 407.706 563.417 407.423C563.134 407.14 562.993 406.776 562.993 406.331V377.821C562.993 377.417 563.134 377.073 563.417 376.79C563.7 376.466 564.044 376.304 564.448 376.304H570.393C570.798 376.304 571.141 376.466 571.424 376.79C571.748 377.073 571.91 377.417 571.91 377.821V380.247C572.921 378.994 574.154 378.023 575.61 377.336C577.106 376.648 578.825 376.304 580.766 376.304H583.374C583.779 376.304 584.122 376.446 584.406 376.729C584.689 377.012 584.83 377.376 584.83 377.821V383.038C584.83 383.483 584.689 383.847 584.406 384.13C584.122 384.413 583.779 384.554 583.374 384.554H578.036C576.257 384.554 574.862 385.06 573.851 386.071C572.84 387.041 572.334 388.436 572.334 390.256V406.331C572.334 406.776 572.193 407.14 571.91 407.423C571.627 407.706 571.263 407.848 570.818 407.848H564.448ZM531.322 407.241C533.021 408.05 534.941 408.455 537.085 408.455C538.743 408.455 540.178 408.252 541.392 407.848C542.645 407.444 543.717 406.918 544.607 406.271C545.496 405.583 546.204 404.855 546.73 404.087V406.332C546.73 406.776 546.871 407.14 547.154 407.423C547.437 407.706 547.781 407.848 548.186 407.848H554.13C554.575 407.848 554.939 407.706 555.222 407.423C555.505 407.14 555.647 406.776 555.647 406.332V387.588C555.647 385.93 555.384 384.393 554.858 382.977C554.332 381.522 553.524 380.248 552.432 379.156C551.34 378.064 549.884 377.215 548.064 376.608C546.244 376.002 544.061 375.698 541.513 375.698C539.046 375.698 536.963 376.002 535.265 376.608C533.567 377.215 532.171 377.983 531.079 378.913C529.988 379.803 529.179 380.713 528.653 381.643C528.127 382.573 527.864 383.382 527.864 384.069C527.824 384.433 527.925 384.757 528.168 385.04C528.41 385.283 528.754 385.404 529.199 385.404H534.962C535.568 385.404 536.033 385.141 536.357 384.615C536.802 383.766 537.429 383.079 538.237 382.553C539.046 382.027 540.118 381.764 541.452 381.764C543.272 381.764 544.546 382.189 545.274 383.038C546.002 383.887 546.366 385.101 546.366 386.678V387.77L538.419 388.922C534.618 389.529 531.545 390.661 529.199 392.319C526.894 393.977 525.741 396.242 525.741 399.113C525.741 400.852 526.247 402.429 527.258 403.844C528.269 405.26 529.624 406.392 531.322 407.241ZM543.09 401.297C542.039 401.863 540.846 402.146 539.511 402.146C538.662 402.146 537.853 402.004 537.085 401.721C536.316 401.438 535.69 401.014 535.204 400.447C534.759 399.881 534.537 399.214 534.537 398.446C534.537 397.394 535.043 396.505 536.054 395.777C537.065 395.049 538.662 394.503 540.846 394.139L546.487 393.229V394.26C546.487 396.04 546.184 397.516 545.577 398.688C544.971 399.861 544.142 400.731 543.09 401.297ZM506.397 408.455C501.747 408.455 498.046 407.161 495.296 404.572C492.587 401.984 491.151 398.223 490.99 393.29V392.016V390.681C491.151 387.567 491.859 384.898 493.113 382.674C494.366 380.409 496.125 378.691 498.39 377.518C500.655 376.305 503.304 375.698 506.337 375.698C509.734 375.698 512.564 376.406 514.829 377.821C517.134 379.196 518.853 381.097 519.985 383.523C521.158 385.909 521.744 388.659 521.744 391.773V393.168C521.744 393.573 521.582 393.916 521.259 394.2C520.976 394.483 520.632 394.624 520.228 394.624H500.392V394.867V395.109C500.432 396.404 500.675 397.596 501.12 398.688C501.605 399.74 502.272 400.589 503.122 401.236C504.011 401.883 505.063 402.207 506.276 402.207C507.287 402.207 508.116 402.065 508.763 401.782C509.41 401.499 509.936 401.155 510.34 400.751C510.785 400.346 511.108 400.003 511.311 399.72C511.675 399.315 511.958 399.073 512.16 398.992C512.403 398.87 512.767 398.81 513.252 398.81H519.56C519.965 398.81 520.288 398.931 520.531 399.174C520.814 399.376 520.935 399.679 520.895 400.084C520.855 400.731 520.511 401.539 519.864 402.51C519.257 403.44 518.347 404.37 517.134 405.3C515.921 406.19 514.404 406.938 512.585 407.545C510.805 408.151 508.743 408.455 506.397 408.455ZM500.392 389.104H512.281V388.983C512.281 387.527 512.039 386.273 511.553 385.222C511.108 384.13 510.441 383.281 509.552 382.674C508.662 382.068 507.59 381.764 506.337 381.764C505.083 381.764 504.011 382.068 503.122 382.674C502.232 383.281 501.544 384.13 501.059 385.222C500.614 386.273 500.392 387.527 500.392 388.983V389.104ZM476.04 407.423C476.323 407.706 476.687 407.848 477.132 407.848H483.198C483.602 407.848 483.946 407.706 484.229 407.423C484.512 407.14 484.654 406.776 484.654 406.331V366.296C484.654 365.851 484.512 365.487 484.229 365.204C483.946 364.921 483.602 364.779 483.198 364.779H477.132C476.687 364.779 476.323 364.921 476.04 365.204C475.757 365.487 475.615 365.851 475.615 366.296V406.331C475.615 406.776 475.757 407.14 476.04 407.423Z" fill="#3D67AD"/>
<path d="M180.923 5.91689C194.588 -1.97229 211.423 -1.9723 225.087 5.91689L383.928 97.6237C397.593 105.513 406.01 120.093 406.01 135.871V319.285C406.01 335.063 397.593 349.643 383.928 357.532L225.087 449.239C211.423 457.128 194.588 457.128 180.923 449.239L22.0821 357.532C8.41766 349.643 0 335.063 0 319.285V135.871C0 120.093 8.41766 105.513 22.0821 97.6237L180.923 5.91689Z" fill="#3D67AD"/>
<path d="M190.344 33.7613C197.701 29.5133 206.766 29.5133 214.124 33.7613L365.399 121.1C372.757 125.348 377.289 133.198 377.289 141.694V316.371C377.289 324.867 372.757 332.718 365.399 336.966L214.124 424.304C206.766 428.552 197.701 428.552 190.344 424.304L39.0691 336.966C31.7113 332.718 27.1787 324.867 27.1787 316.371V141.694C27.1787 133.198 31.7113 125.348 39.0691 121.1L190.344 33.7613Z" fill="white"/>
<path d="M186.849 84.9313C186.849 75.5501 194.454 67.9451 203.835 67.9451V67.9451C213.216 67.9451 220.821 75.5501 220.821 84.9313V373.697C220.821 383.079 213.216 390.684 203.835 390.684V390.684C194.454 390.684 186.849 383.079 186.849 373.697V84.9313Z" fill="#FDD207"/>
<path fill-rule="evenodd" clip-rule="evenodd" d="M329.535 139.287C320.154 139.287 312.549 146.892 312.549 156.273V173.26C312.549 182.641 320.154 190.246 329.535 190.246C338.916 190.246 346.521 182.641 346.521 173.26V156.273C346.521 146.892 338.916 139.287 329.535 139.287ZM329.535 203.835C320.154 203.835 312.549 211.44 312.549 220.821V302.355C312.549 311.736 320.154 319.341 329.535 319.341C338.916 319.341 346.521 311.736 346.521 302.355V220.821C346.521 211.44 338.916 203.835 329.535 203.835Z" fill="#9B5099"/>
<path fill-rule="evenodd" clip-rule="evenodd" d="M78.1357 319.341C68.7544 319.341 61.1494 311.736 61.1494 302.355V285.369C61.1494 275.988 68.7544 268.383 78.1357 268.383C87.5169 268.383 95.1219 275.988 95.1219 285.369V302.355C95.1219 311.736 87.5169 319.341 78.1357 319.341ZM78.1359 254.794C68.7546 254.794 61.1496 247.189 61.1496 237.808V156.274C61.1496 146.892 68.7546 139.287 78.1359 139.287C87.5171 139.287 95.1221 146.892 95.1221 156.274V237.808C95.1221 247.189 87.5171 254.794 78.1359 254.794Z" fill="#E32439"/>
<path fill-rule="evenodd" clip-rule="evenodd" d="M264.986 105.315C255.605 105.315 248 112.92 248 122.301V264.985C248 274.367 255.605 281.972 264.986 281.972C274.367 281.972 281.972 274.367 281.972 264.985V122.301C281.972 112.92 274.367 105.315 264.986 105.315ZM264.986 302.355C255.605 302.355 248 309.96 248 319.341V339.725C248 349.106 255.605 356.711 264.986 356.711C274.367 356.711 281.972 349.106 281.972 339.725V319.341C281.972 309.96 274.367 302.355 264.986 302.355Z" fill="#5FB465"/>
<path fill-rule="evenodd" clip-rule="evenodd" d="M139.288 356.711C129.907 356.711 122.302 349.106 122.302 339.725V197.041C122.302 187.659 129.907 180.054 139.288 180.054C148.669 180.054 156.274 187.659 156.274 197.041V339.725C156.274 349.106 148.669 356.711 139.288 356.711ZM139.288 159.671C129.907 159.671 122.302 152.066 122.302 142.684V122.301C122.302 112.92 129.907 105.315 139.288 105.315C148.669 105.315 156.274 112.92 156.274 122.301V142.684C156.274 152.066 148.669 159.671 139.288 159.671Z" fill="#EF8721"/>
</svg>
