<svg width="1240" height="456" viewBox="0 0 1240 456" fill="none" xmlns="http://www.w3.org/2000/svg">
<path fill-rule="evenodd" clip-rule="evenodd" d="M636.69 135.642C629.014 135.642 622.389 134.389 616.814 131.885C611.32 129.299 607.038 125.583 603.968 120.735C600.978 115.807 599.322 109.828 598.999 102.799C598.918 99.3244 598.878 95.6482 598.878 91.77C598.878 87.8111 598.918 84.0541 598.999 80.4992C599.322 73.6316 601.019 67.8144 604.089 63.0475C607.159 58.2806 611.482 54.6448 617.057 52.1401C622.631 49.6355 629.176 48.3832 636.69 48.3832C642.749 48.3832 648.122 49.1507 652.808 50.6858C657.494 52.1401 661.413 54.1196 664.564 56.6243C667.796 59.1289 670.22 61.8759 671.836 64.8653C673.532 67.8548 674.421 70.8038 674.502 73.7124C674.583 74.4395 674.34 75.0455 673.775 75.5303C673.29 76.015 672.684 76.2574 671.957 76.2574H654.263C653.374 76.2574 652.687 76.1362 652.202 75.8939C651.798 75.5707 651.435 75.1263 651.112 74.5607C650.546 73.3488 649.698 72.0965 648.567 70.8038C647.516 69.4303 646.022 68.2587 644.083 67.2892C642.224 66.3196 639.76 65.8349 636.69 65.8349C632.084 65.8349 628.449 67.0468 625.782 69.4707C623.197 71.8945 621.783 75.7727 621.541 81.1051C621.298 88.0535 621.298 95.0826 621.541 102.193C621.783 107.848 623.278 111.928 626.025 114.433C628.772 116.938 632.408 118.19 636.932 118.19C640.002 118.19 642.709 117.665 645.052 116.614C647.476 115.564 649.375 113.948 650.748 111.767C652.122 109.505 652.808 106.636 652.808 103.162V100.859H641.416C640.528 100.859 639.76 100.577 639.114 100.011C638.548 99.3648 638.265 98.5972 638.265 97.7085V88.7402C638.265 87.8515 638.548 87.1243 639.114 86.5588C639.76 85.9124 640.528 85.5892 641.416 85.5892H671.957C672.846 85.5892 673.573 85.9124 674.138 86.5588C674.704 87.1243 674.987 87.8515 674.987 88.7402V102.556C674.987 109.505 673.411 115.443 670.26 120.371C667.109 125.3 662.625 129.097 656.808 131.764C651.071 134.349 644.365 135.642 636.69 135.642ZM689.733 133.581C690.299 134.147 691.026 134.43 691.914 134.43H708.154C709.043 134.43 709.77 134.147 710.336 133.581C710.901 133.016 711.184 132.289 711.184 131.4V52.6247C711.184 51.736 710.901 51.0088 710.336 50.4432C709.77 49.8777 709.043 49.5949 708.154 49.5949H691.914C691.026 49.5949 690.299 49.8777 689.733 50.4432C689.167 51.0088 688.885 51.736 688.885 52.6247V131.4C688.885 132.289 689.167 133.016 689.733 133.581ZM749.872 134.43C748.983 134.43 748.256 134.147 747.691 133.581C747.125 133.016 746.842 132.289 746.842 131.4V68.6221H725.27C724.381 68.6221 723.654 68.3393 723.089 67.7738C722.523 67.1274 722.24 66.4002 722.24 65.5923V52.6247C722.24 51.736 722.523 51.0088 723.089 50.4432C723.654 49.8777 724.381 49.5949 725.27 49.5949H790.472C791.36 49.5949 792.088 49.8777 792.653 50.4432C793.219 51.0088 793.501 51.736 793.501 52.6247V65.5923C793.501 66.4002 793.219 67.1274 792.653 67.7738C792.088 68.3393 791.36 68.6221 790.472 68.6221H768.899V131.4C768.899 132.289 768.617 133.016 768.051 133.581C767.485 134.147 766.758 134.43 765.87 134.43H749.872ZM789.214 133.702C789.779 134.187 790.385 134.43 791.031 134.43H805.938C807.312 134.43 808.281 134.147 808.847 133.581C809.412 132.935 809.776 132.369 809.937 131.885L814.543 119.523H846.901L851.628 131.885C851.789 132.369 852.153 132.935 852.718 133.581C853.365 134.147 854.294 134.43 855.506 134.43H870.412C871.14 134.43 871.746 134.187 872.23 133.702C872.796 133.137 873.079 132.531 873.079 131.885C873.079 131.481 872.998 131.117 872.836 130.794L844.477 52.9883C844.235 52.0995 843.71 51.332 842.902 50.6856C842.175 49.9585 841.124 49.5949 839.751 49.5949H821.814C820.441 49.5949 819.35 49.9585 818.542 50.6856C817.815 51.332 817.33 52.0995 817.088 52.9883L788.608 130.794C788.527 131.117 788.486 131.481 788.486 131.885C788.486 132.531 788.729 133.137 789.214 133.702ZM842.053 102.071H819.512L830.661 70.0764L842.053 102.071ZM883.477 133.581C884.043 134.147 884.77 134.43 885.659 134.43H941.286C942.175 134.43 942.902 134.147 943.468 133.581C944.114 133.016 944.437 132.289 944.437 131.4V119.281C944.437 118.392 944.114 117.665 943.468 117.099C942.902 116.453 942.175 116.13 941.286 116.13H904.686V52.6247C904.686 51.736 904.363 51.0088 903.716 50.4432C903.151 49.8777 902.464 49.5949 901.656 49.5949H885.659C884.77 49.5949 884.043 49.8777 883.477 50.4432C882.912 51.0088 882.629 51.736 882.629 52.6247V131.4C882.629 132.289 882.912 133.016 883.477 133.581ZM563.215 133.581C563.781 134.147 564.508 134.43 565.397 134.43H581.637C582.525 134.43 583.253 134.147 583.818 133.581C584.384 133.016 584.667 132.289 584.667 131.4V52.6247C584.667 51.736 584.384 51.0088 583.818 50.4432C583.253 49.8777 582.525 49.5949 581.637 49.5949H565.397C564.508 49.5949 563.781 49.8777 563.215 50.4432C562.65 51.0088 562.367 51.736 562.367 52.6247V131.4C562.367 132.289 562.65 133.016 563.215 133.581ZM478.645 134.43C477.756 134.43 477.029 134.147 476.464 133.581C475.898 133.016 475.615 132.289 475.615 131.4V52.6247C475.615 51.736 475.898 51.0088 476.464 50.4432C477.029 49.8777 477.756 49.5949 478.645 49.5949H510.155C518.073 49.5949 524.819 50.8876 530.394 53.4731C535.969 55.9777 540.251 59.6943 543.241 64.6227C546.23 69.4704 547.846 75.4897 548.088 82.6804C548.169 86.2354 548.209 89.346 548.209 92.0122C548.209 94.6785 548.169 97.7487 548.088 101.223C547.765 108.737 546.149 114.958 543.241 119.886C540.413 124.815 536.252 128.491 530.758 130.915C525.345 133.258 518.679 134.43 510.761 134.43H478.645ZM497.309 116.978H510.155C513.629 116.978 516.497 116.453 518.76 115.402C521.103 114.271 522.84 112.534 523.971 110.191C525.183 107.848 525.829 104.778 525.91 100.98C526.072 98.6374 526.152 96.5367 526.152 94.6785C526.233 92.8202 526.233 90.9619 526.152 89.1036C526.152 87.2453 526.072 85.1851 525.91 82.9228C525.748 77.4287 524.294 73.4294 521.547 70.9248C518.881 68.3393 514.882 67.0466 509.549 67.0466H497.309V116.978ZM1170.81 238.727C1171.38 239.291 1172.1 239.573 1172.99 239.573H1187.51C1188.39 239.573 1189.12 239.291 1189.68 238.727C1190.25 238.162 1190.53 237.437 1190.53 236.55V192.523L1220.04 237.275C1220.2 237.517 1220.57 237.961 1221.13 238.606C1221.78 239.251 1222.74 239.573 1224.03 239.573H1236.98C1237.86 239.573 1238.59 239.291 1239.15 238.727C1239.72 238.082 1240 237.356 1240 236.55V157.931C1240 157.044 1239.72 156.318 1239.15 155.754C1238.59 155.189 1237.86 154.907 1236.98 154.907H1222.46C1221.57 154.907 1220.85 155.189 1220.28 155.754C1219.72 156.318 1219.44 157.044 1219.44 157.931V203.772L1189.93 157.205C1189.76 156.883 1189.36 156.439 1188.72 155.875C1188.15 155.23 1187.18 154.907 1185.81 154.907H1172.99C1172.1 154.907 1171.38 155.189 1170.81 155.754C1170.25 156.318 1169.97 157.044 1169.97 157.931V236.55C1169.97 237.437 1170.25 238.162 1170.81 238.727ZM1099.1 237.155C1093.62 234.736 1089.35 231.107 1086.28 226.269C1083.22 221.35 1081.53 215.222 1081.2 207.884C1081.12 204.417 1081.08 200.95 1081.08 197.483C1081.08 194.015 1081.12 190.508 1081.2 186.96C1081.53 179.703 1083.22 173.615 1086.28 168.696C1089.43 163.697 1093.74 159.947 1099.22 157.448C1104.71 154.948 1111.12 153.698 1118.46 153.698C1125.71 153.698 1132.08 154.948 1137.57 157.448C1143.13 159.947 1147.48 163.697 1150.63 168.696C1153.77 173.615 1155.47 179.703 1155.71 186.96C1155.87 190.508 1155.95 194.015 1155.95 197.483C1155.95 200.95 1155.87 204.417 1155.71 207.884C1155.39 215.222 1153.69 221.35 1150.63 226.269C1147.57 231.107 1143.29 234.736 1137.81 237.155C1132.33 239.574 1125.87 240.783 1118.46 240.783C1111.04 240.783 1104.59 239.574 1099.1 237.155ZM1118.46 223.366C1122.73 223.366 1126.2 222.076 1128.86 219.496C1131.6 216.915 1133.05 212.803 1133.21 207.159C1133.37 203.611 1133.45 200.264 1133.45 197.12C1133.45 193.975 1133.37 190.709 1133.21 187.323C1133.05 183.533 1132.33 180.469 1131.04 178.13C1129.83 175.711 1128.13 173.937 1125.96 172.808C1123.78 171.68 1121.28 171.115 1118.46 171.115C1115.71 171.115 1113.26 171.68 1111.08 172.808C1108.9 173.937 1107.17 175.711 1105.88 178.13C1104.59 180.469 1103.86 183.533 1103.7 187.323C1103.62 190.709 1103.58 193.975 1103.58 197.12C1103.58 200.264 1103.62 203.611 1103.7 207.159C1103.94 212.803 1105.39 216.915 1108.05 219.496C1110.72 222.076 1114.18 223.366 1118.46 223.366ZM1045.49 238.727C1046.05 239.291 1046.78 239.573 1047.67 239.573H1063.87C1064.76 239.573 1065.49 239.291 1066.05 238.727C1066.61 238.162 1066.9 237.437 1066.9 236.55V157.931C1066.9 157.044 1066.61 156.318 1066.05 155.754C1065.49 155.189 1064.76 154.907 1063.87 154.907H1047.67C1046.78 154.907 1046.05 155.189 1045.49 155.754C1044.92 156.318 1044.64 157.044 1044.64 157.931V236.55C1044.64 237.437 1044.92 238.162 1045.49 238.727ZM990.108 239.573C989.221 239.573 988.495 239.291 987.93 238.727C987.366 238.162 987.084 237.437 987.084 236.55V173.897H965.554C964.667 173.897 963.942 173.614 963.377 173.05C962.813 172.405 962.531 171.679 962.531 170.873V157.931C962.531 157.044 962.813 156.318 963.377 155.754C963.942 155.189 964.667 154.907 965.554 154.907H1030.63C1031.51 154.907 1032.24 155.189 1032.8 155.754C1033.37 156.318 1033.65 157.044 1033.65 157.931V170.873C1033.65 171.679 1033.37 172.405 1032.8 173.05C1032.24 173.614 1031.51 173.897 1030.63 173.897H1009.1V236.55C1009.1 237.437 1008.81 238.162 1008.25 238.727C1007.69 239.291 1006.96 239.573 1006.07 239.573H990.108ZM883.853 238.848C884.417 239.332 885.022 239.573 885.667 239.573H900.544C901.915 239.573 902.882 239.291 903.447 238.727C904.011 238.082 904.374 237.517 904.535 237.033L909.131 224.696H941.426L946.143 237.033C946.304 237.517 946.667 238.082 947.231 238.727C947.876 239.291 948.804 239.573 950.013 239.573H964.89C965.616 239.573 966.221 239.332 966.705 238.848C967.269 238.283 967.551 237.679 967.551 237.033C967.551 236.63 967.471 236.267 967.309 235.945L939.007 158.294C938.765 157.407 938.241 156.641 937.434 155.996C936.708 155.27 935.66 154.907 934.289 154.907H916.389C915.018 154.907 913.929 155.27 913.123 155.996C912.397 156.641 911.913 157.407 911.671 158.294L883.248 235.945C883.167 236.267 883.127 236.63 883.127 237.033C883.127 237.679 883.369 238.283 883.853 238.848ZM936.588 207.279H914.09L925.218 175.348L936.588 207.279ZM809.897 239.573C809.01 239.573 808.284 239.291 807.72 238.727C807.155 238.162 806.873 237.437 806.873 236.55V157.931C806.873 157.044 807.155 156.318 807.72 155.754C808.284 155.189 809.01 154.907 809.897 154.907H842.796C853.198 154.907 861.382 157.326 867.349 162.164C873.397 166.922 876.42 173.695 876.42 182.484C876.42 188.209 875.009 193.047 872.187 196.998C869.445 200.95 865.817 203.933 861.301 205.949L877.993 235.703C878.235 236.187 878.356 236.63 878.356 237.033C878.356 237.679 878.073 238.283 877.509 238.848C877.025 239.332 876.42 239.573 875.695 239.573H859.729C858.197 239.573 857.068 239.211 856.342 238.485C855.617 237.679 855.092 236.953 854.77 236.308L840.981 209.698H828.523V236.55C828.523 237.437 828.241 238.162 827.677 238.727C827.112 239.291 826.387 239.573 825.5 239.573H809.897ZM828.523 192.644H842.554C846.344 192.644 849.166 191.717 851.02 189.862C852.956 188.008 853.923 185.468 853.923 182.242C853.923 179.098 852.996 176.558 851.141 174.622C849.367 172.687 846.505 171.72 842.554 171.72H828.523V192.644ZM730.473 238.727C731.037 239.291 731.763 239.573 732.65 239.573H790.102C790.989 239.573 791.715 239.291 792.279 238.727C792.843 238.162 793.126 237.437 793.126 236.55V225.18C793.126 224.293 792.843 223.567 792.279 223.003C791.715 222.439 790.989 222.156 790.102 222.156H750.551V205.344H786.473C787.36 205.344 788.086 205.062 788.65 204.497C789.215 203.852 789.497 203.127 789.497 202.32V191.798C789.497 190.911 789.215 190.185 788.65 189.62C788.086 188.975 787.36 188.653 786.473 188.653H750.551V172.324H789.134C790.021 172.324 790.747 172.042 791.311 171.478C791.876 170.913 792.158 170.187 792.158 169.301V157.931C792.158 157.044 791.876 156.318 791.311 155.754C790.747 155.189 790.021 154.907 789.134 154.907H732.65C731.763 154.907 731.037 155.189 730.473 155.754C729.908 156.318 729.626 157.044 729.626 157.931V236.55C729.626 237.437 729.908 238.162 730.473 238.727ZM645.715 239.573C644.828 239.573 644.103 239.291 643.538 238.727C642.974 238.162 642.692 237.437 642.692 236.55V157.931C642.692 157.044 642.974 156.318 643.538 155.754C644.103 155.189 644.828 154.907 645.715 154.907H658.536C659.907 154.907 660.875 155.23 661.439 155.875C662.084 156.439 662.487 156.883 662.649 157.205L692.161 203.772V157.931C692.161 157.044 692.443 156.318 693.007 155.754C693.572 155.189 694.298 154.907 695.185 154.907H709.699C710.586 154.907 711.311 155.189 711.876 155.754C712.44 156.318 712.723 157.044 712.723 157.931V236.55C712.723 237.356 712.44 238.082 711.876 238.727C711.311 239.291 710.586 239.573 709.699 239.573H696.757C695.467 239.573 694.499 239.251 693.854 238.606C693.29 237.961 692.927 237.517 692.766 237.275L663.253 192.523V236.55C663.253 237.437 662.971 238.162 662.407 238.727C661.842 239.291 661.117 239.573 660.23 239.573H645.715ZM566.291 238.727C566.856 239.291 567.581 239.573 568.468 239.573H625.92C626.807 239.573 627.533 239.291 628.097 238.727C628.662 238.162 628.944 237.437 628.944 236.55V225.18C628.944 224.293 628.662 223.567 628.097 223.003C627.533 222.439 626.807 222.156 625.92 222.156H586.369V205.344H622.292C623.179 205.344 623.904 205.062 624.469 204.497C625.033 203.852 625.316 203.127 625.316 202.32V191.798C625.316 190.911 625.033 190.185 624.469 189.62C623.904 188.975 623.179 188.653 622.292 188.653H586.369V172.324H624.953C625.84 172.324 626.565 172.042 627.13 171.478C627.694 170.913 627.977 170.187 627.977 169.301V157.931C627.977 157.044 627.694 156.318 627.13 155.754C626.565 155.189 625.84 154.907 624.953 154.907H568.468C567.581 154.907 566.856 155.189 566.291 155.754C565.727 156.318 565.444 157.044 565.444 157.931V236.55C565.444 237.437 565.727 238.162 566.291 238.727ZM513.352 240.783C505.692 240.783 499.08 239.533 493.516 237.034C488.033 234.453 483.759 230.744 480.695 225.906C477.712 220.987 476.059 215.021 475.736 208.005C475.656 204.538 475.615 200.869 475.615 196.999C475.615 193.048 475.656 189.298 475.736 185.75C476.059 178.896 477.752 173.091 480.816 168.333C483.88 163.576 488.194 159.947 493.758 157.448C499.322 154.948 505.853 153.698 513.352 153.698C519.4 153.698 524.762 154.464 529.439 155.996C534.116 157.448 538.026 159.423 541.171 161.923C544.396 164.422 546.815 167.164 548.428 170.147C550.121 173.131 551.008 176.074 551.089 178.977C551.17 179.703 550.928 180.307 550.363 180.791C549.88 181.275 549.275 181.517 548.549 181.517H530.89C530.003 181.517 529.318 181.396 528.834 181.154C528.431 180.832 528.068 180.388 527.745 179.824C527.181 178.614 526.334 177.364 525.205 176.074C524.157 174.703 522.665 173.534 520.73 172.567C518.876 171.599 516.416 171.115 513.352 171.115C508.756 171.115 505.127 172.325 502.467 174.744C499.886 177.163 498.475 181.033 498.233 186.355C497.991 193.29 497.991 200.305 498.233 207.401C498.475 213.045 499.967 217.117 502.708 219.617C505.45 222.116 509.079 223.366 513.594 223.366C516.658 223.366 519.359 222.842 521.698 221.794C524.117 220.746 526.012 219.133 527.383 216.956C528.753 214.698 529.439 211.835 529.439 208.368V206.07H518.069C517.182 206.07 516.416 205.788 515.771 205.223C515.207 204.578 514.925 203.812 514.925 202.925V193.975C514.925 193.088 515.207 192.362 515.771 191.798C516.416 191.153 517.182 190.83 518.069 190.83H548.549C549.436 190.83 550.162 191.153 550.726 191.798C551.291 192.362 551.573 193.088 551.573 193.975V207.763C551.573 214.698 550.001 220.625 546.856 225.543C543.711 230.462 539.236 234.252 533.43 236.913C527.705 239.493 521.012 240.783 513.352 240.783ZM1165.53 344.727C1166.05 345.253 1166.8 345.516 1167.76 345.516H1174.07C1175.03 345.516 1175.78 345.253 1176.3 344.727C1176.92 344.114 1177.22 343.369 1177.22 342.493V277.317L1220.72 343.676C1220.89 343.851 1221.2 344.201 1221.64 344.727C1222.16 345.253 1222.91 345.516 1223.87 345.516H1230.18C1231.05 345.516 1231.76 345.209 1232.28 344.596C1232.89 343.982 1233.2 343.238 1233.2 342.362V256.686C1233.2 255.722 1232.89 254.978 1232.28 254.452C1231.76 253.839 1231.01 253.532 1230.05 253.532H1223.74C1222.78 253.532 1222.03 253.839 1221.51 254.452C1220.98 254.978 1220.72 255.722 1220.72 256.686V322.388L1177.09 255.372C1177 255.109 1176.7 254.759 1176.17 254.321C1175.65 253.795 1174.86 253.532 1173.81 253.532H1167.76C1166.8 253.532 1166.05 253.839 1165.53 254.452C1165 254.978 1164.74 255.722 1164.74 256.686V342.493C1164.74 343.369 1165 344.114 1165.53 344.727ZM1070.54 345.516C1069.84 345.516 1069.23 345.253 1068.7 344.727C1068.17 344.201 1067.91 343.588 1067.91 342.887C1067.91 342.449 1067.96 341.968 1068.04 341.442L1100.63 256.423C1100.98 255.547 1101.46 254.846 1102.08 254.321C1102.69 253.795 1103.61 253.532 1104.84 253.532H1113.77C1114.91 253.532 1115.79 253.795 1116.4 254.321C1117.1 254.846 1117.63 255.547 1117.98 256.423L1150.43 341.442C1150.61 341.968 1150.7 342.449 1150.7 342.887C1150.7 343.588 1150.43 344.201 1149.91 344.727C1149.38 345.253 1148.77 345.516 1148.07 345.516H1141.37C1140.32 345.516 1139.53 345.253 1139 344.727C1138.56 344.201 1138.26 343.72 1138.08 343.282L1130.85 324.622H1087.75L1080.53 343.282C1080.44 343.72 1080.13 344.201 1079.61 344.727C1079.08 345.253 1078.29 345.516 1077.24 345.516H1070.54ZM1127.04 313.321L1109.3 266.673L1091.56 313.321H1127.04ZM1031.26 344.727C1031.87 345.253 1032.61 345.516 1033.49 345.516H1040.32C1041.29 345.516 1042.03 345.253 1042.56 344.727C1043.17 344.114 1043.48 343.369 1043.48 342.493V265.227H1068.58C1069.54 265.227 1070.28 264.965 1070.81 264.439C1071.42 263.826 1071.73 263.081 1071.73 262.205V256.686C1071.73 255.722 1071.42 254.978 1070.81 254.452C1070.28 253.839 1069.54 253.532 1068.58 253.532H1005.24C1004.36 253.532 1003.62 253.839 1003 254.452C1002.48 254.978 1002.22 255.722 1002.22 256.686V262.205C1002.22 263.081 1002.48 263.826 1003 264.439C1003.62 264.965 1004.36 265.227 1005.24 265.227H1030.47V342.493C1030.47 343.369 1030.73 344.114 1031.26 344.727ZM959.212 346.829C951.591 346.829 945.196 345.691 940.027 343.413C934.859 341.048 930.873 338.025 928.07 334.346C925.354 330.579 923.908 326.593 923.733 322.388C923.733 321.687 923.996 321.074 924.522 320.549C925.135 319.935 925.836 319.629 926.624 319.629H933.326C934.377 319.629 935.165 319.892 935.691 320.417C936.217 320.943 936.567 321.556 936.742 322.257C937.18 324.359 938.231 326.462 939.896 328.564C941.648 330.579 944.057 332.287 947.123 333.689C950.277 335.003 954.307 335.66 959.212 335.66C966.746 335.66 972.265 334.346 975.769 331.718C979.361 329.002 981.157 325.411 981.157 320.943C981.157 317.877 980.193 315.424 978.266 313.584C976.426 311.657 973.579 309.949 969.725 308.459C965.87 306.97 960.877 305.349 954.745 303.597C948.35 301.758 943.05 299.743 938.845 297.553C934.64 295.363 931.486 292.647 929.384 289.406C927.369 286.164 926.361 282.047 926.361 277.054C926.361 272.323 927.631 268.118 930.172 264.439C932.712 260.672 936.348 257.693 941.079 255.503C945.897 253.313 951.722 252.218 958.555 252.218C963.987 252.218 968.717 252.963 972.747 254.452C976.864 255.854 980.281 257.781 982.997 260.234C985.712 262.599 987.771 265.183 989.173 267.987C990.574 270.702 991.319 273.374 991.407 276.002C991.407 276.616 991.187 277.229 990.749 277.842C990.311 278.368 989.611 278.631 988.647 278.631H981.683C981.069 278.631 980.412 278.455 979.711 278.105C979.098 277.754 978.616 277.097 978.266 276.134C977.74 272.542 975.726 269.52 972.221 267.067C968.717 264.614 964.162 263.388 958.555 263.388C952.861 263.388 948.218 264.483 944.626 266.673C941.122 268.863 939.37 272.279 939.37 276.922C939.37 279.901 940.203 282.397 941.867 284.412C943.531 286.34 946.16 288.048 949.751 289.537C953.343 291.026 958.03 292.603 963.812 294.268C970.82 296.195 976.558 298.254 981.025 300.444C985.493 302.546 988.778 305.218 990.881 308.459C993.071 311.613 994.166 315.687 994.166 320.68C994.166 326.199 992.721 330.93 989.83 334.872C986.939 338.726 982.865 341.705 977.609 343.807C972.44 345.822 966.308 346.829 959.212 346.829ZM894.504 344.727C895.029 345.253 895.774 345.516 896.737 345.516H903.702C904.578 345.516 905.279 345.253 905.804 344.727C906.417 344.114 906.724 343.369 906.724 342.493V256.555C906.724 255.679 906.417 254.978 905.804 254.452C905.279 253.839 904.578 253.532 903.702 253.532H896.737C895.774 253.532 895.029 253.839 894.504 254.452C893.978 254.978 893.715 255.679 893.715 256.555V342.493C893.715 343.369 893.978 344.114 894.504 344.727ZM817.819 345.516C816.855 345.516 816.111 345.253 815.585 344.727C815.06 344.114 814.797 343.369 814.797 342.493V256.686C814.797 255.722 815.06 254.978 815.585 254.452C816.111 253.839 816.855 253.532 817.819 253.532H824.389C825.353 253.532 826.098 253.839 826.623 254.452C827.236 254.978 827.543 255.722 827.543 256.686V289.274L862.628 255.635C862.978 255.284 863.548 254.846 864.336 254.321C865.212 253.795 866.351 253.532 867.753 253.532H874.849C875.549 253.532 876.163 253.795 876.688 254.321C877.214 254.846 877.477 255.46 877.477 256.16C877.477 256.861 877.301 257.431 876.951 257.869L836.347 297.553L879.579 341.048C880.017 341.573 880.236 342.187 880.236 342.887C880.236 343.588 879.973 344.201 879.448 344.727C878.922 345.253 878.309 345.516 877.608 345.516H870.249C868.76 345.516 867.621 345.253 866.833 344.727C866.044 344.114 865.475 343.676 865.125 343.413L827.543 306.357V342.493C827.543 343.369 827.236 344.114 826.623 344.727C826.098 345.253 825.353 345.516 824.389 345.516H817.819ZM735.896 344.727C736.422 345.253 737.166 345.516 738.13 345.516H793.451C794.415 345.516 795.16 345.253 795.685 344.727C796.211 344.114 796.474 343.369 796.474 342.493V337.368C796.474 336.405 796.211 335.66 795.685 335.135C795.16 334.609 794.415 334.346 793.451 334.346H747.723V304.517H789.509C790.473 304.517 791.217 304.254 791.743 303.729C792.269 303.116 792.532 302.371 792.532 301.495V296.633C792.532 295.669 792.269 294.925 791.743 294.399C791.217 293.786 790.473 293.479 789.509 293.479H747.723V264.702H792.4C793.364 264.702 794.108 264.439 794.634 263.913C795.16 263.388 795.422 262.643 795.422 261.679V256.686C795.422 255.722 795.16 254.978 794.634 254.452C794.108 253.839 793.364 253.532 792.4 253.532H738.13C737.166 253.532 736.422 253.839 735.896 254.452C735.371 254.978 735.108 255.722 735.108 256.686V342.493C735.108 343.369 735.371 344.114 735.896 344.727ZM650.357 345.516C649.394 345.516 648.649 345.253 648.124 344.727C647.598 344.114 647.335 343.369 647.335 342.493V256.686C647.335 255.722 647.598 254.978 648.124 254.452C648.649 253.839 649.394 253.532 650.357 253.532H686.362C692.932 253.532 698.276 254.627 702.394 256.817C706.599 258.92 709.665 261.811 711.592 265.49C713.607 269.17 714.614 273.287 714.614 277.842C714.614 281.434 714.001 284.544 712.775 287.172C711.636 289.712 710.19 291.815 708.438 293.479C706.686 295.056 704.978 296.283 703.313 297.159C706.73 298.823 709.752 301.539 712.38 305.306C715.096 309.073 716.454 313.628 716.454 318.972C716.454 323.79 715.359 328.214 713.169 332.244C710.979 336.273 707.694 339.515 703.313 341.968C699.021 344.333 693.677 345.516 687.282 345.516H650.357ZM660.213 334.872H685.574C691.268 334.872 695.648 333.339 698.714 330.273C701.78 327.206 703.313 323.44 703.313 318.972C703.313 314.329 701.78 310.518 698.714 307.54C695.648 304.474 691.268 302.94 685.574 302.94H660.213V334.872ZM660.213 292.428H684.391C689.998 292.428 694.247 291.158 697.137 288.617C700.028 285.989 701.474 282.441 701.474 277.974C701.474 273.506 700.028 270.089 697.137 267.724C694.247 265.359 689.998 264.176 684.391 264.176H660.213V292.428ZM563.288 344.596C563.814 345.209 564.558 345.516 565.522 345.516H627.545C628.509 345.516 629.253 345.253 629.779 344.727C630.392 344.114 630.699 343.369 630.699 342.493V337.237C630.699 336.273 630.392 335.529 629.779 335.003C629.253 334.39 628.509 334.083 627.545 334.083H579.188L627.545 266.936C628.071 266.322 628.465 265.665 628.728 264.965C629.078 264.264 629.253 263.388 629.253 262.336V256.686C629.253 255.722 628.99 254.978 628.465 254.452C627.939 253.839 627.195 253.532 626.231 253.532H566.705C565.829 253.532 565.084 253.839 564.471 254.452C563.945 254.978 563.682 255.722 563.682 256.686V261.942C563.682 262.818 563.945 263.563 564.471 264.176C565.084 264.702 565.829 264.965 566.705 264.965H613.353L564.471 331.849C564.208 332.2 563.814 332.769 563.288 333.558C562.763 334.346 562.5 335.397 562.5 336.711V342.362C562.5 343.238 562.763 343.982 563.288 344.596ZM511.094 346.83C503.736 346.83 497.385 345.516 492.041 342.887C486.785 340.259 482.711 336.273 479.82 330.93C477.017 325.498 475.615 318.534 475.615 310.036V256.686C475.615 255.722 475.878 254.978 476.404 254.452C476.929 253.839 477.674 253.532 478.638 253.532H485.339C486.303 253.532 487.047 253.839 487.573 254.452C488.186 254.978 488.493 255.722 488.493 256.686V310.299C488.493 318.884 490.508 325.235 494.537 329.353C498.567 333.47 504.086 335.529 511.094 335.529C518.015 335.529 523.49 333.47 527.52 329.353C531.637 325.235 533.696 318.884 533.696 310.299V256.686C533.696 255.722 533.959 254.978 534.484 254.452C535.098 253.839 535.842 253.532 536.718 253.532H543.551C544.427 253.532 545.128 253.839 545.654 254.452C546.267 254.978 546.574 255.722 546.574 256.686V310.036C546.574 318.534 545.128 325.498 542.237 330.93C539.434 336.273 535.404 340.259 530.148 342.887C524.892 345.516 518.541 346.83 511.094 346.83ZM1030.1 405.394C1032.85 407.982 1036.55 409.276 1041.2 409.276C1043.54 409.276 1045.6 408.973 1047.38 408.367C1049.2 407.76 1050.72 407.012 1051.93 406.122C1053.15 405.192 1054.06 404.262 1054.66 403.332C1055.31 402.361 1055.65 401.552 1055.69 400.905C1055.74 400.501 1055.61 400.198 1055.33 399.996C1055.09 399.753 1054.76 399.632 1054.36 399.632H1048.05C1047.57 399.632 1047.2 399.692 1046.96 399.814C1046.76 399.894 1046.47 400.137 1046.11 400.541C1045.91 400.825 1045.58 401.168 1045.14 401.573C1044.74 401.977 1044.21 402.321 1043.56 402.604C1042.92 402.887 1042.09 403.029 1041.08 403.029C1039.86 403.029 1038.81 402.705 1037.92 402.058C1037.07 401.411 1036.4 400.562 1035.92 399.51C1035.47 398.418 1035.23 397.225 1035.19 395.931V395.689V395.446H1055.03C1055.43 395.446 1055.78 395.305 1056.06 395.021C1056.38 394.738 1056.54 394.395 1056.54 393.99V392.595C1056.54 389.481 1055.96 386.731 1054.78 384.345C1053.65 381.919 1051.93 380.018 1049.63 378.643C1047.36 377.228 1044.53 376.52 1041.14 376.52C1038.1 376.52 1035.45 377.127 1033.19 378.34C1030.93 379.513 1029.17 381.231 1027.91 383.496C1026.66 385.72 1025.95 388.389 1025.79 391.503V392.838V394.112C1025.95 399.045 1027.39 402.806 1030.1 405.394ZM1047.08 389.926H1035.19V389.805C1035.19 388.349 1035.41 387.095 1035.86 386.044C1036.34 384.952 1037.03 384.103 1037.92 383.496C1038.81 382.889 1039.88 382.586 1041.14 382.586C1042.39 382.586 1043.46 382.889 1044.35 383.496C1045.24 384.103 1045.91 384.952 1046.35 386.044C1046.84 387.095 1047.08 388.349 1047.08 389.805V389.926ZM1002.58 408.67C1002.17 408.67 1001.83 408.528 1001.54 408.245C1001.26 407.962 1001.12 407.598 1001.12 407.153V378.643C1001.12 378.238 1001.26 377.895 1001.54 377.612C1001.83 377.288 1002.17 377.126 1002.58 377.126H1008.52C1008.93 377.126 1009.27 377.288 1009.55 377.612C1009.88 377.895 1010.04 378.238 1010.04 378.643V381.069C1011.05 379.816 1012.28 378.845 1013.74 378.158C1015.23 377.47 1016.95 377.126 1018.89 377.126H1021.5C1021.91 377.126 1022.25 377.268 1022.53 377.551C1022.82 377.834 1022.96 378.198 1022.96 378.643V383.86C1022.96 384.304 1022.82 384.668 1022.53 384.952C1022.25 385.235 1021.91 385.376 1021.5 385.376H1016.16C1014.38 385.376 1012.99 385.882 1011.98 386.893C1010.97 387.863 1010.46 389.258 1010.46 391.078V407.153C1010.46 407.598 1010.32 407.962 1010.04 408.245C1009.75 408.528 1009.39 408.67 1008.95 408.67H1002.58ZM983.355 408.245C983.638 408.528 983.982 408.67 984.386 408.67H990.453C990.897 408.67 991.261 408.528 991.544 408.245C991.827 407.962 991.969 407.598 991.969 407.153V378.643C991.969 378.198 991.827 377.834 991.544 377.551C991.261 377.268 990.897 377.127 990.453 377.127H984.386C983.982 377.127 983.638 377.268 983.355 377.551C983.072 377.834 982.931 378.198 982.931 378.643V407.153C982.931 407.598 983.072 407.962 983.355 408.245ZM983.173 371.849C983.456 372.132 983.8 372.274 984.205 372.274H990.574C991.019 372.274 991.383 372.132 991.666 371.849C991.989 371.566 992.151 371.202 992.151 370.757V365.905C992.151 365.46 991.989 365.096 991.666 364.813C991.383 364.489 991.019 364.327 990.574 364.327H984.205C983.8 364.327 983.456 364.489 983.173 364.813C982.89 365.096 982.749 365.46 982.749 365.905V370.757C982.749 371.202 982.89 371.566 983.173 371.849ZM946.716 420.195C946.271 420.195 945.907 420.054 945.624 419.771C945.341 419.488 945.2 419.124 945.2 418.679V378.643C945.2 378.198 945.341 377.834 945.624 377.551C945.907 377.268 946.271 377.127 946.716 377.127H952.479C952.924 377.127 953.288 377.268 953.571 377.551C953.854 377.834 953.995 378.198 953.995 378.643V380.948C954.966 379.654 956.22 378.603 957.756 377.794C959.293 376.945 961.214 376.52 963.519 376.52C965.622 376.52 967.442 376.864 968.978 377.551C970.556 378.198 971.87 379.149 972.921 380.402C974.013 381.616 974.842 383.092 975.408 384.831C976.015 386.569 976.359 388.531 976.44 390.715C976.48 391.483 976.5 392.211 976.5 392.898C976.5 393.586 976.48 394.334 976.44 395.143C976.399 397.205 976.076 399.106 975.469 400.845C974.903 402.584 974.074 404.08 972.982 405.334C971.89 406.587 970.556 407.558 968.978 408.245C967.442 408.933 965.622 409.276 963.519 409.276C961.457 409.276 959.657 408.913 958.12 408.185C956.624 407.416 955.391 406.385 954.42 405.091V418.679C954.42 419.124 954.279 419.488 953.995 419.771C953.712 420.054 953.369 420.195 952.964 420.195H946.716ZM960.789 401.997C962.326 401.997 963.539 401.674 964.429 401.027C965.319 400.339 965.945 399.45 966.309 398.358C966.714 397.266 966.956 396.073 967.037 394.779C967.118 393.525 967.118 392.272 967.037 391.018C966.956 389.724 966.714 388.531 966.309 387.439C965.945 386.347 965.319 385.478 964.429 384.831C963.539 384.143 962.326 383.799 960.789 383.799C959.293 383.799 958.08 384.143 957.15 384.831C956.22 385.518 955.552 386.387 955.148 387.439C954.744 388.49 954.501 389.623 954.42 390.836C954.38 391.564 954.359 392.312 954.359 393.08C954.359 393.849 954.38 394.617 954.42 395.385C954.461 396.518 954.703 397.589 955.148 398.6C955.633 399.571 956.321 400.38 957.21 401.027C958.141 401.674 959.334 401.997 960.789 401.997ZM918.261 408.427C920.081 408.993 922.244 409.276 924.752 409.276C927.906 409.276 930.555 408.872 932.698 408.063C934.882 407.214 936.54 406.062 937.672 404.606C938.805 403.109 939.371 401.411 939.371 399.51C939.371 398.054 939.007 396.7 938.279 395.446C937.591 394.152 936.439 393.02 934.821 392.049C933.204 391.079 931.02 390.351 928.27 389.865C925.965 389.42 924.246 388.996 923.114 388.591C921.982 388.187 921.233 387.742 920.869 387.257C920.506 386.772 920.324 386.246 920.324 385.68C920.324 384.79 920.667 384.062 921.355 383.496C922.083 382.889 923.114 382.586 924.448 382.586C925.54 382.586 926.43 382.748 927.117 383.071C927.805 383.395 928.391 383.779 928.877 384.224C929.402 384.628 929.908 384.992 930.393 385.316C930.514 385.437 930.656 385.538 930.818 385.619C930.979 385.66 931.161 385.68 931.364 385.68H936.762C937.126 385.68 937.45 385.538 937.733 385.255C938.016 384.972 938.137 384.628 938.097 384.224C938.056 383.577 937.733 382.829 937.126 381.98C936.56 381.09 935.711 380.241 934.579 379.432C933.446 378.583 932.031 377.895 930.332 377.369C928.674 376.803 926.733 376.52 924.509 376.52C921.597 376.52 919.171 377.005 917.23 377.976C915.289 378.906 913.813 380.099 912.802 381.555C911.831 383.011 911.346 384.527 911.346 386.104C911.346 387.843 911.73 389.34 912.498 390.593C913.267 391.806 914.419 392.817 915.956 393.626C917.493 394.435 919.353 395.082 921.537 395.567C923.842 396.053 925.581 396.497 926.753 396.902C927.926 397.306 928.715 397.751 929.119 398.236C929.564 398.722 929.786 399.328 929.786 400.056C929.786 401.067 929.321 401.856 928.391 402.422C927.461 402.948 926.329 403.211 924.994 403.211C923.862 403.211 922.912 403.049 922.143 402.725C921.415 402.402 920.768 402.018 920.202 401.573C919.636 401.087 919.09 400.663 918.564 400.299C918.443 400.137 918.322 400.036 918.2 399.996C918.079 399.955 917.958 399.935 917.836 399.935H911.952C911.629 399.935 911.305 400.076 910.982 400.359C910.658 400.643 910.517 401.007 910.557 401.451C910.598 402.058 910.881 402.806 911.407 403.696C911.973 404.545 912.802 405.394 913.894 406.243C915.026 407.093 916.482 407.821 918.261 408.427ZM875.393 408.67C874.989 408.67 874.645 408.528 874.362 408.245C874.079 407.962 873.937 407.598 873.937 407.153V378.643C873.937 378.198 874.079 377.834 874.362 377.551C874.645 377.268 874.989 377.127 875.393 377.127H881.338C881.783 377.127 882.147 377.268 882.43 377.551C882.713 377.834 882.854 378.198 882.854 378.643V381.009C883.906 379.715 885.26 378.643 886.919 377.794C888.577 376.945 890.599 376.52 892.985 376.52C895.37 376.52 897.453 377.066 899.232 378.158C901.052 379.209 902.468 380.766 903.479 382.829C904.53 384.851 905.056 387.318 905.056 390.229V407.153C905.056 407.598 904.894 407.962 904.571 408.245C904.287 408.528 903.944 408.67 903.539 408.67H897.109C896.665 408.67 896.301 408.528 896.018 408.245C895.734 407.962 895.593 407.598 895.593 407.153V390.593C895.593 388.45 895.067 386.792 894.016 385.619C893.005 384.406 891.508 383.799 889.527 383.799C887.626 383.799 886.11 384.406 884.977 385.619C883.845 386.792 883.279 388.45 883.279 390.593V407.153C883.279 407.598 883.137 407.962 882.854 408.245C882.571 408.528 882.227 408.67 881.823 408.67H875.393ZM856.17 408.245C856.453 408.528 856.797 408.67 857.201 408.67H863.267C863.712 408.67 864.076 408.528 864.359 408.245C864.642 407.962 864.783 407.598 864.783 407.153V378.643C864.783 378.198 864.642 377.834 864.359 377.551C864.076 377.268 863.712 377.127 863.267 377.127H857.201C856.797 377.127 856.453 377.268 856.17 377.551C855.887 377.834 855.745 378.198 855.745 378.643V407.153C855.745 407.598 855.887 407.962 856.17 408.245ZM855.988 371.849C856.271 372.132 856.615 372.274 857.019 372.274H863.388C863.833 372.274 864.197 372.132 864.48 371.849C864.804 371.566 864.965 371.202 864.965 370.757V365.905C864.965 365.46 864.804 365.096 864.48 364.813C864.197 364.489 863.833 364.327 863.388 364.327H857.019C856.615 364.327 856.271 364.489 855.988 364.813C855.705 365.096 855.563 365.46 855.563 365.905V370.757C855.563 371.202 855.705 371.566 855.988 371.849ZM825.466 413.219C825.143 413.219 824.859 413.078 824.617 412.795C824.415 412.552 824.334 412.249 824.374 411.885L826.073 400.845C826.154 400.319 826.356 399.854 826.679 399.449C827.003 399.045 827.488 398.843 828.135 398.843H834.444C834.767 398.843 835.03 398.964 835.232 399.207C835.475 399.409 835.596 399.672 835.596 399.995C835.596 400.238 835.556 400.481 835.475 400.723L831.229 411.581C831.067 411.986 830.824 412.35 830.501 412.673C830.218 413.037 829.753 413.219 829.106 413.219H825.466ZM793.379 405.394C796.129 407.982 799.829 409.276 804.48 409.276C806.825 409.276 808.887 408.973 810.667 408.367C812.487 407.76 814.003 407.012 815.216 406.122C816.429 405.192 817.339 404.262 817.946 403.332C818.593 402.361 818.937 401.552 818.977 400.905C819.018 400.501 818.896 400.198 818.613 399.996C818.371 399.753 818.047 399.632 817.643 399.632H811.334C810.849 399.632 810.485 399.692 810.242 399.814C810.04 399.894 809.757 400.137 809.393 400.541C809.191 400.825 808.867 401.168 808.422 401.573C808.018 401.977 807.492 402.321 806.845 402.604C806.198 402.887 805.369 403.029 804.358 403.029C803.145 403.029 802.094 402.705 801.204 402.058C800.355 401.411 799.687 400.562 799.202 399.51C798.757 398.418 798.515 397.225 798.474 395.931V395.689V395.446H818.31C818.714 395.446 819.058 395.305 819.341 395.021C819.665 394.738 819.826 394.395 819.826 393.99V392.595C819.826 389.481 819.24 386.731 818.067 384.345C816.935 381.919 815.216 380.018 812.911 378.643C810.647 377.228 807.816 376.52 804.419 376.52C801.386 376.52 798.737 377.127 796.472 378.34C794.208 379.513 792.449 381.231 791.195 383.496C789.941 385.72 789.234 388.389 789.072 391.503V392.838V394.112C789.234 399.045 790.669 402.806 793.379 405.394ZM809.636 386.044C810.121 387.095 810.364 388.349 810.364 389.805V389.926H798.474V389.805C798.474 388.349 798.697 387.095 799.141 386.044C799.627 384.952 800.314 384.103 801.204 383.496C802.094 382.889 803.165 382.586 804.419 382.586C805.672 382.586 806.744 382.889 807.634 383.496C808.523 384.103 809.191 384.952 809.636 386.044ZM765.856 408.67C765.452 408.67 765.108 408.528 764.825 408.245C764.542 407.962 764.4 407.598 764.4 407.153V378.643C764.4 378.238 764.542 377.895 764.825 377.612C765.108 377.288 765.452 377.126 765.856 377.126H771.801C772.205 377.126 772.549 377.288 772.832 377.612C773.156 377.895 773.317 378.238 773.317 378.643V381.069C774.328 379.816 775.562 378.845 777.018 378.158C778.514 377.47 780.233 377.126 782.174 377.126H784.782C785.187 377.126 785.53 377.268 785.813 377.551C786.096 377.834 786.238 378.198 786.238 378.643V383.86C786.238 384.304 786.096 384.668 785.813 384.952C785.53 385.235 785.187 385.376 784.782 385.376H779.444C777.665 385.376 776.269 385.882 775.258 386.893C774.247 387.863 773.742 389.258 773.742 391.078V407.153C773.742 407.598 773.6 407.962 773.317 408.245C773.034 408.528 772.67 408.67 772.225 408.67H765.856ZM732.732 408.063C734.431 408.872 736.352 409.276 738.495 409.276C740.153 409.276 741.589 409.074 742.802 408.67C744.056 408.266 745.127 407.74 746.017 407.093C746.907 406.405 747.614 405.677 748.14 404.909V407.153C748.14 407.598 748.282 407.962 748.565 408.245C748.848 408.528 749.191 408.67 749.596 408.67H755.541C755.985 408.67 756.349 408.528 756.632 408.245C756.915 407.962 757.057 407.598 757.057 407.153V388.409C757.057 386.751 756.794 385.215 756.268 383.799C755.743 382.344 754.934 381.07 753.842 379.978C752.75 378.886 751.294 378.037 749.475 377.43C747.655 376.823 745.471 376.52 742.923 376.52C740.456 376.52 738.374 376.823 736.675 377.43C734.977 378.037 733.582 378.805 732.49 379.735C731.398 380.625 730.589 381.535 730.063 382.465C729.538 383.395 729.275 384.204 729.275 384.891C729.234 385.255 729.335 385.579 729.578 385.862C729.821 386.104 730.164 386.226 730.609 386.226H736.372C736.979 386.226 737.444 385.963 737.767 385.437C738.212 384.588 738.839 383.9 739.648 383.375C740.456 382.849 741.528 382.586 742.863 382.586C744.682 382.586 745.956 383.011 746.684 383.86C747.412 384.709 747.776 385.922 747.776 387.5V388.591L739.83 389.744C736.028 390.351 732.955 391.483 730.609 393.141C728.304 394.799 727.152 397.064 727.152 399.935C727.152 401.674 727.657 403.251 728.668 404.666C729.679 406.082 731.034 407.214 732.732 408.063ZM744.5 402.119C743.449 402.685 742.256 402.968 740.921 402.968C740.072 402.968 739.263 402.826 738.495 402.543C737.727 402.26 737.1 401.836 736.615 401.269C736.17 400.703 735.947 400.036 735.947 399.268C735.947 398.216 736.453 397.327 737.464 396.599C738.475 395.871 740.072 395.325 742.256 394.961L747.897 394.051V395.082C747.897 396.861 747.594 398.337 746.987 399.51C746.381 400.683 745.552 401.552 744.5 402.119ZM691.987 408.669C691.543 408.669 691.179 408.528 690.895 408.245C690.612 407.962 690.471 407.598 690.471 407.153V367.117C690.471 366.673 690.612 366.309 690.895 366.026C691.179 365.742 691.543 365.601 691.987 365.601H698.539C698.943 365.601 699.287 365.742 699.57 366.026C699.853 366.309 699.994 366.673 699.994 367.117V380.766C701.086 379.472 702.421 378.441 703.998 377.672C705.575 376.904 707.476 376.52 709.7 376.52C712.086 376.52 714.189 377.066 716.009 378.158C717.869 379.209 719.325 380.766 720.376 382.828C721.428 384.85 721.953 387.317 721.953 390.229V407.153C721.953 407.598 721.812 407.962 721.529 408.245C721.246 408.528 720.882 408.669 720.437 408.669H713.825C713.421 408.669 713.077 408.528 712.794 408.245C712.511 407.962 712.369 407.598 712.369 407.153V390.593C712.369 388.45 711.843 386.791 710.792 385.619C709.74 384.406 708.244 383.799 706.303 383.799C704.402 383.799 702.866 384.406 701.693 385.619C700.561 386.791 699.994 388.45 699.994 390.593V407.153C699.994 407.598 699.853 407.962 699.57 408.245C699.287 408.528 698.943 408.669 698.539 408.669H691.987ZM663.54 408.427C665.359 408.993 667.523 409.276 670.03 409.276C673.185 409.276 675.833 408.872 677.977 408.063C680.161 407.214 681.819 406.062 682.951 404.606C684.083 403.109 684.649 401.411 684.649 399.51C684.649 398.054 684.285 396.7 683.557 395.446C682.87 394.152 681.717 393.02 680.1 392.049C678.482 391.079 676.299 390.351 673.549 389.865C671.244 389.42 669.525 388.996 668.393 388.591C667.26 388.187 666.512 387.742 666.148 387.257C665.784 386.772 665.602 386.246 665.602 385.68C665.602 384.79 665.946 384.062 666.633 383.496C667.361 382.889 668.393 382.586 669.727 382.586C670.819 382.586 671.709 382.748 672.396 383.071C673.084 383.395 673.67 383.779 674.155 384.224C674.681 384.628 675.186 384.992 675.672 385.316C675.793 385.437 675.935 385.538 676.096 385.619C676.258 385.66 676.44 385.68 676.642 385.68H682.041C682.405 385.68 682.728 385.538 683.012 385.255C683.295 384.972 683.416 384.628 683.376 384.224C683.335 383.577 683.012 382.829 682.405 381.98C681.839 381.09 680.99 380.241 679.857 379.432C678.725 378.583 677.31 377.895 675.611 377.369C673.953 376.803 672.012 376.52 669.788 376.52C666.876 376.52 664.45 377.005 662.508 377.976C660.567 378.906 659.091 380.099 658.08 381.555C657.11 383.011 656.624 384.527 656.624 386.104C656.624 387.843 657.009 389.34 657.777 390.593C658.545 391.806 659.698 392.817 661.235 393.626C662.771 394.435 664.632 395.082 666.815 395.567C669.12 396.053 670.859 396.497 672.032 396.902C673.205 397.306 673.993 397.751 674.398 398.236C674.843 398.722 675.065 399.328 675.065 400.056C675.065 401.067 674.6 401.856 673.67 402.422C672.74 402.948 671.607 403.211 670.273 403.211C669.141 403.211 668.19 403.049 667.422 402.725C666.694 402.402 666.047 402.018 665.481 401.573C664.915 401.087 664.369 400.663 663.843 400.299C663.722 400.137 663.6 400.036 663.479 399.996C663.358 399.955 663.236 399.935 663.115 399.935H657.231C656.908 399.935 656.584 400.076 656.261 400.359C655.937 400.643 655.795 401.007 655.836 401.451C655.876 402.058 656.159 402.806 656.685 403.696C657.251 404.545 658.08 405.394 659.172 406.243C660.305 407.093 661.76 407.821 663.54 408.427ZM627.313 413.219C626.99 413.219 626.707 413.078 626.464 412.795C626.262 412.552 626.181 412.249 626.221 411.885L627.92 400.845C628.001 400.319 628.203 399.854 628.527 399.449C628.85 399.045 629.335 398.843 629.982 398.843H636.291C636.615 398.843 636.877 398.964 637.08 399.207C637.322 399.409 637.444 399.672 637.444 399.995C637.444 400.238 637.403 400.481 637.322 400.723L633.076 411.581C632.914 411.986 632.672 412.35 632.348 412.673C632.065 413.037 631.6 413.219 630.953 413.219H627.313ZM589.778 408.245C590.061 408.528 590.404 408.67 590.809 408.67H597.239C597.643 408.67 597.987 408.528 598.27 408.245C598.553 407.962 598.695 407.598 598.695 407.153V390.593C598.695 388.45 599.261 386.792 600.393 385.619C601.525 384.406 603.042 383.799 604.943 383.799C606.924 383.799 608.42 384.406 609.431 385.619C610.483 386.792 611.009 388.45 611.009 390.593V407.153C611.009 407.598 611.15 407.962 611.433 408.245C611.716 408.528 612.08 408.67 612.525 408.67H618.955C619.359 408.67 619.703 408.528 619.986 408.245C620.31 407.962 620.471 407.598 620.471 407.153V390.229C620.471 387.318 619.946 384.851 618.894 382.829C617.883 380.766 616.468 379.209 614.648 378.158C612.869 377.066 610.786 376.52 608.4 376.52C606.014 376.52 603.992 376.945 602.334 377.794C600.676 378.643 599.321 379.715 598.27 381.009V378.643C598.27 378.198 598.128 377.834 597.845 377.551C597.562 377.268 597.198 377.127 596.753 377.127H590.809C590.404 377.127 590.061 377.268 589.778 377.551C589.494 377.834 589.353 378.198 589.353 378.643V407.153C589.353 407.598 589.494 407.962 589.778 408.245ZM564.448 408.67C564.044 408.67 563.7 408.528 563.417 408.245C563.134 407.962 562.993 407.598 562.993 407.153V378.643C562.993 378.238 563.134 377.895 563.417 377.612C563.7 377.288 564.044 377.126 564.448 377.126H570.393C570.798 377.126 571.141 377.288 571.424 377.612C571.748 377.895 571.91 378.238 571.91 378.643V381.069C572.921 379.816 574.154 378.845 575.61 378.158C577.106 377.47 578.825 377.126 580.766 377.126H583.374C583.779 377.126 584.122 377.268 584.406 377.551C584.689 377.834 584.83 378.198 584.83 378.643V383.86C584.83 384.304 584.689 384.668 584.406 384.952C584.122 385.235 583.779 385.376 583.374 385.376H578.036C576.257 385.376 574.862 385.882 573.851 386.893C572.84 387.863 572.334 389.258 572.334 391.078V407.153C572.334 407.598 572.193 407.962 571.91 408.245C571.627 408.528 571.263 408.67 570.818 408.67H564.448ZM531.322 408.063C533.021 408.872 534.941 409.276 537.085 409.276C538.743 409.276 540.178 409.074 541.392 408.67C542.645 408.266 543.717 407.74 544.607 407.093C545.496 406.405 546.204 405.677 546.73 404.909V407.153C546.73 407.598 546.871 407.962 547.154 408.245C547.437 408.528 547.781 408.67 548.186 408.67H554.13C554.575 408.67 554.939 408.528 555.222 408.245C555.505 407.962 555.647 407.598 555.647 407.153V388.409C555.647 386.751 555.384 385.215 554.858 383.799C554.332 382.344 553.524 381.07 552.432 379.978C551.34 378.886 549.884 378.037 548.064 377.43C546.244 376.823 544.061 376.52 541.513 376.52C539.046 376.52 536.963 376.823 535.265 377.43C533.567 378.037 532.171 378.805 531.079 379.735C529.988 380.625 529.179 381.535 528.653 382.465C528.127 383.395 527.864 384.204 527.864 384.891C527.824 385.255 527.925 385.579 528.168 385.862C528.41 386.104 528.754 386.226 529.199 386.226H534.962C535.568 386.226 536.033 385.963 536.357 385.437C536.802 384.588 537.429 383.9 538.237 383.375C539.046 382.849 540.118 382.586 541.452 382.586C543.272 382.586 544.546 383.011 545.274 383.86C546.002 384.709 546.366 385.922 546.366 387.5V388.591L538.419 389.744C534.618 390.351 531.545 391.483 529.199 393.141C526.894 394.799 525.741 397.064 525.741 399.935C525.741 401.674 526.247 403.251 527.258 404.666C528.269 406.082 529.624 407.214 531.322 408.063ZM543.09 402.119C542.039 402.685 540.846 402.968 539.511 402.968C538.662 402.968 537.853 402.826 537.085 402.543C536.316 402.26 535.69 401.836 535.204 401.269C534.759 400.703 534.537 400.036 534.537 399.268C534.537 398.216 535.043 397.327 536.054 396.599C537.065 395.871 538.662 395.325 540.846 394.961L546.487 394.051V395.082C546.487 396.861 546.184 398.337 545.577 399.51C544.971 400.683 544.142 401.552 543.09 402.119ZM506.397 409.276C501.747 409.276 498.046 407.982 495.296 405.394C492.587 402.806 491.151 399.045 490.99 394.112V392.838V391.503C491.151 388.389 491.859 385.72 493.113 383.496C494.366 381.231 496.125 379.513 498.39 378.34C500.655 377.127 503.304 376.52 506.337 376.52C509.734 376.52 512.564 377.228 514.829 378.643C517.134 380.018 518.853 381.919 519.985 384.345C521.158 386.731 521.744 389.481 521.744 392.595V393.99C521.744 394.395 521.582 394.738 521.259 395.021C520.976 395.305 520.632 395.446 520.228 395.446H500.392V395.689V395.931C500.432 397.225 500.675 398.418 501.12 399.51C501.605 400.562 502.272 401.411 503.122 402.058C504.011 402.705 505.063 403.029 506.276 403.029C507.287 403.029 508.116 402.887 508.763 402.604C509.41 402.321 509.936 401.977 510.34 401.573C510.785 401.168 511.108 400.825 511.311 400.541C511.675 400.137 511.958 399.894 512.16 399.814C512.403 399.692 512.767 399.632 513.252 399.632H519.56C519.965 399.632 520.288 399.753 520.531 399.996C520.814 400.198 520.935 400.501 520.895 400.905C520.855 401.552 520.511 402.361 519.864 403.332C519.257 404.262 518.347 405.192 517.134 406.122C515.921 407.012 514.404 407.76 512.585 408.367C510.805 408.973 508.743 409.276 506.397 409.276ZM500.392 389.926H512.281V389.805C512.281 388.349 512.039 387.095 511.553 386.044C511.108 384.952 510.441 384.103 509.552 383.496C508.662 382.889 507.59 382.586 506.337 382.586C505.083 382.586 504.011 382.889 503.122 383.496C502.232 384.103 501.544 384.952 501.059 386.044C500.614 387.095 500.392 388.349 500.392 389.805V389.926ZM476.04 408.245C476.323 408.528 476.687 408.669 477.132 408.669H483.198C483.602 408.669 483.946 408.528 484.229 408.245C484.512 407.962 484.654 407.598 484.654 407.153V367.117C484.654 366.673 484.512 366.309 484.229 366.026C483.946 365.742 483.602 365.601 483.198 365.601H477.132C476.687 365.601 476.323 365.742 476.04 366.026C475.757 366.309 475.615 366.673 475.615 367.117V407.153C475.615 407.598 475.757 407.962 476.04 408.245Z" fill="white"/>
<path d="M180.923 6.73879C194.588 -1.15039 211.423 -1.1504 225.087 6.73878L383.928 98.4456C397.593 106.335 406.01 120.915 406.01 136.693V320.107C406.01 335.885 397.593 350.465 383.928 358.354L225.087 450.061C211.423 457.95 194.588 457.95 180.923 450.061L22.0821 358.354C8.41766 350.465 0 335.885 0 320.107V136.693C0 120.915 8.41766 106.335 22.0821 98.4456L180.923 6.73879Z" fill="#3D67AD"/>
<path d="M190.344 34.5832C197.701 30.3352 206.766 30.3352 214.124 34.5832L365.399 121.922C372.757 126.17 377.289 134.02 377.289 142.516V317.193C377.289 325.689 372.757 333.54 365.399 337.788L214.124 425.126C206.766 429.374 197.701 429.374 190.344 425.126L39.0691 337.788C31.7113 333.54 27.1787 325.689 27.1787 317.193V142.516C27.1787 134.02 31.7113 126.17 39.0691 121.922L190.344 34.5832Z" fill="white"/>
<path d="M186.849 85.7532C186.849 76.372 194.454 68.767 203.835 68.767V68.767C213.216 68.767 220.821 76.372 220.821 85.7532V374.519C220.821 383.901 213.216 391.506 203.835 391.506V391.506C194.454 391.506 186.849 383.901 186.849 374.519V85.7532Z" fill="#FDD207"/>
<path fill-rule="evenodd" clip-rule="evenodd" d="M329.535 140.109C320.154 140.109 312.549 147.714 312.549 157.095V174.082C312.549 183.463 320.154 191.068 329.535 191.068C338.916 191.068 346.521 183.463 346.521 174.082V157.095C346.521 147.714 338.916 140.109 329.535 140.109ZM329.535 204.657C320.154 204.657 312.549 212.262 312.549 221.643V303.177C312.549 312.558 320.154 320.163 329.535 320.163C338.916 320.163 346.521 312.558 346.521 303.177V221.643C346.521 212.262 338.916 204.657 329.535 204.657Z" fill="#9B5099"/>
<path fill-rule="evenodd" clip-rule="evenodd" d="M78.1357 320.163C68.7544 320.163 61.1494 312.558 61.1494 303.177V286.191C61.1494 276.81 68.7544 269.205 78.1357 269.205C87.5169 269.205 95.1219 276.81 95.1219 286.191V303.177C95.1219 312.558 87.5169 320.163 78.1357 320.163ZM78.1359 255.616C68.7546 255.616 61.1496 248.011 61.1496 238.629V157.095C61.1496 147.714 68.7546 140.109 78.1359 140.109C87.5171 140.109 95.1221 147.714 95.1221 157.095V238.629C95.1221 248.011 87.5171 255.616 78.1359 255.616Z" fill="#E32439"/>
<path fill-rule="evenodd" clip-rule="evenodd" d="M264.986 106.137C255.605 106.137 248 113.742 248 123.123V265.807C248 275.189 255.605 282.794 264.986 282.794C274.367 282.794 281.972 275.189 281.972 265.807V123.123C281.972 113.742 274.367 106.137 264.986 106.137ZM264.986 303.177C255.605 303.177 248 310.782 248 320.163V340.547C248 349.928 255.605 357.533 264.986 357.533C274.367 357.533 281.972 349.928 281.972 340.547V320.163C281.972 310.782 274.367 303.177 264.986 303.177Z" fill="#5FB465"/>
<path fill-rule="evenodd" clip-rule="evenodd" d="M139.288 357.533C129.907 357.533 122.302 349.928 122.302 340.547V197.863C122.302 188.481 129.907 180.876 139.288 180.876C148.669 180.876 156.274 188.481 156.274 197.863V340.547C156.274 349.928 148.669 357.533 139.288 357.533ZM139.288 160.493C129.907 160.493 122.302 152.888 122.302 143.506V123.123C122.302 113.742 129.907 106.137 139.288 106.137C148.669 106.137 156.274 113.742 156.274 123.123V143.506C156.274 152.888 148.669 160.493 139.288 160.493Z" fill="#EF8721"/>
</svg>
