<svg width="1647" height="370" viewBox="0 0 1647 370" fill="none" xmlns="http://www.w3.org/2000/svg">
<path d="M0 0.568115H183.761V174.208H0V0.568115Z" fill="#F14F21"/>
<path d="M205.379 0.568115H389.141V174.208H205.379V0.568115Z" fill="#7EB900"/>
<path d="M0 195.913H183.761V369.552H0V195.913Z" fill="#00A3EE"/>
<path d="M205.379 195.913H389.141V369.552H205.379V195.913Z" fill="#FFB901"/>
<path d="M144.019 132.994H123.815V78.4344C123.815 76.1029 123.836 73.8136 123.878 71.5669C123.92 69.3201 123.983 66.7977 124.068 63.9998H123.561C123.097 65.3987 122.674 66.6705 122.294 67.8151C121.915 68.9174 121.555 69.9772 121.218 70.9946L99.9365 132.994H83.2157L61.5545 71.6305C61.1322 70.401 60.7733 69.2988 60.4777 68.3238C60.2244 67.3489 59.8022 65.9075 59.211 63.9998H58.641C58.7677 67.7303 58.8521 71.0581 58.8944 73.9832C58.9366 76.9083 58.9576 79.7699 58.9576 82.5676V132.994H40.21V41.8074H70.485L89.0426 95.8577C89.7183 97.7654 90.2671 99.4612 90.6894 100.945C91.1117 102.386 91.6395 104.188 92.2728 106.35H92.6528C93.4129 104.061 94.004 102.259 94.4263 100.945C94.8908 99.6306 95.503 97.8926 96.263 95.7305L114.821 41.8074H144.019V132.994Z" fill="white"/>
<path d="M257.266 132.994V41.8074H289.44C305.571 41.8074 317.668 45.5167 325.733 52.9353C333.798 60.3117 337.829 71.4185 337.829 86.2559C337.829 100.457 333.418 111.797 324.593 120.276C315.81 128.754 304.092 132.994 289.44 132.994H257.266ZM277.723 58.8491V115.952H287.858C296.725 115.952 303.67 113.323 308.696 108.067C313.762 102.768 316.295 95.5822 316.295 86.5103C316.295 77.9045 313.783 71.1429 308.759 66.2254C303.777 61.3079 296.766 58.8491 287.731 58.8491H277.723Z" fill="white"/>
<path d="M132.168 307.589C128.959 314.074 123.997 319.395 117.284 323.549C110.612 327.661 103.054 329.718 94.6091 329.718C80.5061 329.718 69.211 325.796 60.724 317.954C52.2368 310.069 47.9932 298.92 47.9932 284.506C47.9932 269.627 52.1734 257.735 60.5339 248.834C68.9366 239.888 79.8305 235.416 93.2157 235.416C102.843 235.416 110.802 237.577 117.094 241.901C123.427 246.183 128.283 252.096 131.661 259.643L113.547 266.446C111.478 261.826 108.818 258.498 105.566 256.464C102.357 254.386 98.3671 253.348 93.5958 253.348C86.5865 253.348 80.8229 256.145 76.3048 261.741C71.7867 267.294 69.5278 274.396 69.5278 283.043C69.5278 292.158 71.8501 299.174 76.4947 304.091C81.1395 309.008 87.4309 311.468 95.3691 311.468C99.7605 311.468 103.603 310.451 106.896 308.415C110.19 306.38 112.745 303.371 114.56 299.386L132.168 307.589Z" fill="white"/>
<path d="M334.979 290.207C334.979 301.822 331.749 311.212 325.289 318.376C318.828 325.498 309.349 329.059 296.85 329.059C284.732 329.059 275.526 325.562 269.235 318.567C262.986 311.53 259.861 302.332 259.861 290.97V236.284H280.382V290.207C280.382 297.031 281.966 302.225 285.132 305.786C288.299 309.305 292.458 311.064 297.609 311.064C302.635 311.064 306.71 309.369 309.834 305.977C312.959 302.543 314.521 297.541 314.521 290.97V236.284H334.979V290.207Z" fill="white"/>
<path d="M1057.98 279.552C1065.16 279.552 1070.88 281.899 1075.13 286.591C1079.46 291.209 1081.62 297.588 1081.62 305.726V341.576H1062.92V308.255C1062.92 304.149 1061.86 300.96 1059.73 298.688C1057.61 296.415 1054.75 295.278 1051.16 295.278C1047.56 295.278 1044.71 296.415 1042.58 298.688C1040.45 300.96 1039.39 304.149 1039.39 308.255V341.576H1020.58V280.212H1039.39V288.35C1041.3 285.638 1043.86 283.511 1047.09 281.972C1050.31 280.359 1053.94 279.552 1057.98 279.552Z" fill="white"/>
<path d="M942.208 310.785C942.208 304.48 943.381 298.944 945.727 294.179C948.147 289.413 951.409 285.748 955.515 283.182C959.62 280.616 964.202 279.333 969.261 279.333C973.587 279.333 977.362 280.213 980.588 281.972C983.887 283.732 986.417 286.041 988.176 288.9V280.213H1006.98V341.577H988.176V332.889C986.343 335.748 983.777 338.058 980.478 339.817C977.252 341.577 973.477 342.456 969.151 342.456C964.166 342.456 959.62 341.173 955.515 338.607C951.409 335.968 948.147 332.266 945.727 327.5C943.381 322.662 942.208 317.09 942.208 310.785ZM988.176 310.895C988.176 306.203 986.856 302.5 984.217 299.787C981.651 297.075 978.499 295.719 974.76 295.719C971.021 295.719 967.831 297.075 965.192 299.787C962.626 302.427 961.343 306.093 961.343 310.785C961.343 315.477 962.626 319.216 965.192 322.002C967.831 324.714 971.021 326.071 974.76 326.071C978.499 326.071 981.651 324.714 984.217 322.002C986.856 319.289 988.176 315.587 988.176 310.895Z" fill="white"/>
<path d="M935.472 325.631V341.577H925.905C919.086 341.577 913.771 339.927 909.959 336.628C906.146 333.255 904.24 327.794 904.24 320.242V295.828H896.762V280.213H904.24V265.256H923.045V280.213H935.362V295.828H923.045V320.462C923.045 322.295 923.485 323.615 924.365 324.421C925.245 325.228 926.711 325.631 928.764 325.631H935.472Z" fill="white"/>
<path d="M864.911 342.456C859.559 342.456 854.794 341.54 850.615 339.707C846.436 337.874 843.137 335.382 840.717 332.229C838.298 329.003 836.942 325.411 836.648 321.452H855.234C855.454 323.578 856.443 325.301 858.203 326.621C859.962 327.94 862.125 328.6 864.691 328.6C867.037 328.6 868.833 328.16 870.08 327.28C871.399 326.327 872.059 325.118 872.059 323.651C872.059 321.892 871.143 320.609 869.31 319.802C867.477 318.923 864.508 317.969 860.402 316.943C856.003 315.917 852.338 314.854 849.405 313.754C846.473 312.581 843.943 310.785 841.817 308.365C839.691 305.873 838.628 302.537 838.628 298.358C838.628 294.839 839.581 291.65 841.487 288.79C843.467 285.858 846.326 283.548 850.065 281.862C853.877 280.176 858.386 279.333 863.591 279.333C871.289 279.333 877.338 281.239 881.737 285.051C886.209 288.864 888.775 293.922 889.435 300.227H872.059C871.766 298.101 870.813 296.415 869.2 295.169C867.66 293.922 865.608 293.299 863.042 293.299C860.842 293.299 859.156 293.739 857.983 294.619C856.81 295.425 856.223 296.562 856.223 298.028C856.223 299.787 857.14 301.107 858.973 301.987C860.879 302.867 863.811 303.746 867.77 304.626C872.316 305.799 876.018 306.972 878.878 308.145C881.737 309.245 884.229 311.078 886.356 313.644C888.555 316.137 889.691 319.509 889.765 323.761C889.765 327.354 888.738 330.58 886.686 333.439C884.706 336.225 881.81 338.424 877.998 340.037C874.259 341.65 869.897 342.456 864.911 342.456Z" fill="white"/>
<path d="M816.972 273.834C813.672 273.834 810.96 272.881 808.834 270.975C806.781 268.995 805.754 266.576 805.754 263.717C805.754 260.784 806.781 258.365 808.834 256.458C810.96 254.479 813.672 253.489 816.972 253.489C820.197 253.489 822.837 254.479 824.889 256.458C827.016 258.365 828.079 260.784 828.079 263.717C828.079 266.576 827.016 268.995 824.889 270.975C822.837 272.881 820.197 273.834 816.972 273.834ZM826.319 280.212V341.577H807.514V280.212H826.319Z" fill="white"/>
<path d="M777.035 341.577L758.339 315.843V341.577H739.534V260.198H758.339V305.176L776.925 280.212H800.129L774.615 311.004L800.348 341.577H777.035Z" fill="white"/>
<path d="M729.615 309.905C729.615 311.664 729.505 313.497 729.285 315.403H686.726C687.019 319.216 688.229 322.148 690.355 324.201C692.554 326.181 695.23 327.17 698.383 327.17C703.075 327.17 706.338 325.191 708.17 321.232H728.185C727.159 325.264 725.289 328.893 722.577 332.119C719.937 335.345 716.602 337.874 712.569 339.707C708.537 341.54 704.028 342.456 699.043 342.456C693.031 342.456 687.679 341.173 682.987 338.607C678.295 336.041 674.629 332.376 671.99 327.61C669.35 322.845 668.031 317.273 668.031 310.895C668.031 304.516 669.314 298.944 671.88 294.179C674.519 289.413 678.185 285.748 682.877 283.182C687.569 280.616 692.958 279.333 699.043 279.333C704.981 279.333 710.26 280.579 714.879 283.072C719.497 285.564 723.09 289.12 725.656 293.739C728.295 298.358 729.615 303.746 729.615 309.905ZM710.37 304.956C710.37 301.73 709.27 299.164 707.071 297.258C704.871 295.352 702.122 294.399 698.823 294.399C695.67 294.399 692.994 295.315 690.795 297.148C688.669 298.981 687.349 301.584 686.836 304.956H710.37Z" fill="white"/>
<path d="M615.935 288.9C617.694 286.041 620.223 283.731 623.523 281.972C626.822 280.212 630.597 279.333 634.85 279.333C639.908 279.333 644.491 280.616 648.596 283.182C652.702 285.748 655.928 289.413 658.274 294.179C660.693 298.944 661.903 304.479 661.903 310.784C661.903 317.089 660.693 322.661 658.274 327.5C655.928 332.266 652.702 335.968 648.596 338.607C644.491 341.173 639.908 342.456 634.85 342.456C630.524 342.456 626.748 341.613 623.523 339.927C620.297 338.167 617.767 335.858 615.935 332.999V341.577H597.129V260.198H615.935V288.9ZM642.768 310.784C642.768 306.092 641.448 302.427 638.809 299.787C636.243 297.075 633.053 295.718 629.241 295.718C625.502 295.718 622.313 297.075 619.674 299.787C617.108 302.5 615.825 306.202 615.825 310.894C615.825 315.587 617.108 319.289 619.674 322.002C622.313 324.714 625.502 326.071 629.241 326.071C632.98 326.071 636.169 324.714 638.809 322.002C641.448 319.216 642.768 315.477 642.768 310.784Z" fill="white"/>
<path d="M560.168 326.071H586.781V341.577H539.164V326.62L564.677 295.718H539.384V280.212H586.231V295.169L560.168 326.071Z" fill="white"/>
<path d="M483.509 264.376V310.565C483.509 315.183 484.645 318.739 486.918 321.232C489.191 323.724 492.526 324.971 496.925 324.971C501.324 324.971 504.697 323.724 507.043 321.232C509.389 318.739 510.562 315.183 510.562 310.565V264.376H529.367V310.455C529.367 317.346 527.901 323.175 524.968 327.94C522.035 332.706 518.077 336.298 513.091 338.717C508.179 341.137 502.68 342.346 496.595 342.346C490.51 342.346 485.048 341.173 480.21 338.827C475.444 336.408 471.668 332.815 468.883 328.05C466.097 323.211 464.704 317.346 464.704 310.455V264.376H483.509Z" fill="white"/>
<path d="M1239.58 157.362C1246.76 157.362 1252.48 159.708 1256.73 164.4C1261.06 169.019 1263.22 175.397 1263.22 183.535V219.386H1244.53V186.064C1244.53 181.959 1243.46 178.77 1241.34 176.497C1239.21 174.224 1236.35 173.088 1232.76 173.088C1229.17 173.088 1226.31 174.224 1224.18 176.497C1222.06 178.77 1220.99 181.959 1220.99 186.064V219.386H1202.19V158.022H1220.99V166.16C1222.9 163.447 1225.47 161.321 1228.69 159.781C1231.92 158.168 1235.55 157.362 1239.58 157.362Z" fill="white"/>
<path d="M1179.21 151.643C1175.91 151.643 1173.2 150.69 1171.07 148.784C1169.02 146.805 1168 144.385 1168 141.526C1168 138.593 1169.02 136.174 1171.07 134.268C1173.2 132.288 1175.91 131.299 1179.21 131.299C1182.44 131.299 1185.08 132.288 1187.13 134.268C1189.26 136.174 1190.32 138.593 1190.32 141.526C1190.32 144.385 1189.26 146.805 1187.13 148.784C1185.08 150.69 1182.44 151.643 1179.21 151.643ZM1188.56 158.022V219.386H1169.75V158.022H1188.56Z" fill="white"/>
<path d="M1139.65 158.022L1101.16 248.528H1080.93L1095 217.296L1070.04 158.022H1091.04L1105.23 196.402L1119.31 158.022H1139.65Z" fill="white"/>
<path d="M1066.49 203.44V219.386H1056.93C1050.11 219.386 1044.79 217.736 1040.98 214.437C1037.17 211.065 1035.26 205.603 1035.26 198.051V173.638H1027.78V158.022H1035.26V143.066H1054.07V158.022H1066.38V173.638H1054.07V198.271C1054.07 200.104 1054.51 201.424 1055.39 202.23C1056.27 203.037 1057.73 203.44 1059.78 203.44H1066.49Z" fill="white"/>
<path d="M1009.31 151.643C1006.02 151.643 1003.3 150.69 1001.18 148.784C999.124 146.805 998.098 144.385 998.098 141.526C998.098 138.593 999.124 136.174 1001.18 134.268C1003.3 132.288 1006.02 131.299 1009.31 131.299C1012.54 131.299 1015.18 132.288 1017.23 134.268C1019.36 136.174 1020.42 138.593 1020.42 141.526C1020.42 144.385 1019.36 146.805 1017.23 148.784C1015.18 150.69 1012.54 151.643 1009.31 151.643ZM1018.66 158.022V219.386H999.857V158.022H1018.66Z" fill="white"/>
<path d="M963.146 157.362C970.331 157.362 976.05 159.708 980.302 164.4C984.627 169.019 986.79 175.397 986.79 183.535V219.386H968.095V186.064C968.095 181.959 967.032 178.77 964.906 176.497C962.78 174.224 959.92 173.088 956.328 173.088C952.736 173.088 949.876 174.224 947.75 176.497C945.624 178.77 944.561 181.959 944.561 186.064V219.386H925.756V158.022H944.561V166.16C946.467 163.447 949.033 161.321 952.259 159.781C955.485 158.168 959.114 157.362 963.146 157.362Z" fill="white"/>
<path d="M912.249 158.022V219.386H893.444V211.028C891.538 213.741 888.935 215.94 885.636 217.626C882.41 219.239 878.818 220.046 874.859 220.046C870.167 220.046 866.024 219.019 862.432 216.967C858.84 214.84 856.054 211.798 854.074 207.839C852.095 203.88 851.105 199.224 851.105 193.872V158.022H869.8V191.343C869.8 195.449 870.863 198.638 872.989 200.911C875.115 203.183 877.975 204.32 881.567 204.32C885.233 204.32 888.129 203.183 890.255 200.911C892.381 198.638 893.444 195.449 893.444 191.343V158.022H912.249Z" fill="white"/>
<path d="M813.538 157.362C821.163 157.362 827.211 159.671 831.683 164.29C836.229 168.909 838.502 175.324 838.502 183.535V219.386H819.806V186.064C819.806 182.105 818.743 179.063 816.617 176.937C814.564 174.737 811.705 173.638 808.04 173.638C804.374 173.638 801.478 174.737 799.352 176.937C797.299 179.063 796.273 182.105 796.273 186.064V219.386H777.577V186.064C777.577 182.105 776.514 179.063 774.388 176.937C772.335 174.737 769.476 173.638 765.81 173.638C762.145 173.638 759.249 174.737 757.123 176.937C755.07 179.063 754.043 182.105 754.043 186.064V219.386H735.238V158.022H754.043V165.72C755.95 163.154 758.442 161.138 761.521 159.671C764.601 158.132 768.083 157.362 771.969 157.362C776.588 157.362 780.693 158.352 784.286 160.331C787.951 162.311 790.811 165.133 792.863 168.799C794.99 165.426 797.885 162.677 801.551 160.551C805.217 158.425 809.213 157.362 813.538 157.362Z" fill="white"/>
<path d="M697.123 157.362C704.748 157.362 710.796 159.671 715.268 164.29C719.814 168.909 722.087 175.324 722.087 183.535V219.386H703.391V186.064C703.391 182.105 702.328 179.063 700.202 176.937C698.149 174.737 695.29 173.638 691.624 173.638C687.959 173.638 685.063 174.737 682.937 176.937C680.884 179.063 679.857 182.105 679.857 186.064V219.386H661.162V186.064C661.162 182.105 660.099 179.063 657.973 176.937C655.92 174.737 653.061 173.638 649.395 173.638C645.73 173.638 642.834 174.737 640.708 176.937C638.655 179.063 637.628 182.105 637.628 186.064V219.386H618.823V158.022H637.628V165.72C639.535 163.154 642.027 161.138 645.106 159.671C648.186 158.132 651.668 157.362 655.554 157.362C660.173 157.362 664.278 158.352 667.871 160.331C671.536 162.311 674.396 165.133 676.448 168.799C678.574 165.426 681.47 162.677 685.136 160.551C688.802 158.425 692.797 157.362 697.123 157.362Z" fill="white"/>
<path d="M576.736 220.266C570.724 220.266 565.299 218.983 560.46 216.417C555.695 213.851 551.919 210.185 549.133 205.42C546.42 200.654 545.064 195.082 545.064 188.704C545.064 182.399 546.457 176.864 549.243 172.098C552.029 167.259 555.841 163.557 560.68 160.991C565.519 158.425 570.944 157.142 576.956 157.142C582.968 157.142 588.393 158.425 593.232 160.991C598.07 163.557 601.883 167.259 604.669 172.098C607.455 176.864 608.848 182.399 608.848 188.704C608.848 195.009 607.418 200.581 604.559 205.42C601.773 210.185 597.924 213.851 593.012 216.417C588.173 218.983 582.748 220.266 576.736 220.266ZM576.736 203.99C580.328 203.99 583.371 202.67 585.863 200.031C588.429 197.392 589.712 193.616 589.712 188.704C589.712 183.792 588.466 180.016 585.973 177.377C583.554 174.738 580.548 173.418 576.956 173.418C573.29 173.418 570.247 174.738 567.828 177.377C565.409 179.943 564.199 183.719 564.199 188.704C564.199 193.616 565.372 197.392 567.718 200.031C570.137 202.67 573.143 203.99 576.736 203.99Z" fill="white"/>
<path d="M461.846 180.676C461.846 173.051 463.495 166.27 466.794 160.331C470.094 154.319 474.676 149.664 480.541 146.365C486.479 142.992 493.188 141.306 500.666 141.306C509.83 141.306 517.675 143.726 524.2 148.564C530.725 153.403 535.087 160.001 537.286 168.359H516.612C515.072 165.133 512.873 162.677 510.013 160.991C507.227 159.305 504.038 158.462 500.446 158.462C494.654 158.462 489.962 160.478 486.369 164.51C482.777 168.542 480.981 173.931 480.981 180.676C480.981 187.421 482.777 192.81 486.369 196.842C489.962 200.874 494.654 202.89 500.446 202.89C504.038 202.89 507.227 202.047 510.013 200.361C512.873 198.675 515.072 196.219 516.612 192.993H537.286C535.087 201.351 530.725 207.949 524.2 212.788C517.675 217.553 509.83 219.936 500.666 219.936C493.188 219.936 486.479 218.286 480.541 214.987C474.676 211.615 470.094 206.959 466.794 201.021C463.495 195.082 461.846 188.301 461.846 180.676Z" fill="white"/>
<path d="M1622.15 98.0749C1616.8 98.0749 1612.03 97.1585 1607.85 95.3256C1603.67 93.4927 1600.37 91.0001 1597.95 87.8475C1595.53 84.6217 1594.18 81.0293 1593.88 77.0703H1612.47C1612.69 79.1964 1613.68 80.9193 1615.44 82.239C1617.2 83.5586 1619.36 84.2185 1621.93 84.2185C1624.27 84.2185 1626.07 83.7786 1627.32 82.8988C1628.64 81.9457 1629.3 80.736 1629.3 79.2697C1629.3 77.5102 1628.38 76.2272 1626.55 75.4207C1624.71 74.541 1621.74 73.5879 1617.64 72.5615C1613.24 71.5351 1609.57 70.472 1606.64 69.3723C1603.71 68.1993 1601.18 66.4031 1599.05 63.9837C1596.93 61.491 1595.86 58.1552 1595.86 53.9763C1595.86 50.4572 1596.82 47.268 1598.72 44.4087C1600.7 41.4762 1603.56 39.1668 1607.3 37.4805C1611.11 35.7943 1615.62 34.9512 1620.83 34.9512C1628.53 34.9512 1634.57 36.8573 1638.97 40.6697C1643.45 44.4821 1646.01 49.5407 1646.67 55.8458H1629.3C1629 53.7197 1628.05 52.0334 1626.44 50.7871C1624.9 49.5407 1622.84 48.9176 1620.28 48.9176C1618.08 48.9176 1616.39 49.3575 1615.22 50.2372C1614.05 51.0437 1613.46 52.1801 1613.46 53.6464C1613.46 55.4059 1614.38 56.7256 1616.21 57.6053C1618.12 58.4851 1621.05 59.3649 1625.01 60.2446C1629.55 61.4177 1633.25 62.5907 1636.11 63.7637C1638.97 64.8635 1641.47 66.6963 1643.59 69.2623C1645.79 71.755 1646.93 75.1275 1647 79.3797C1647 82.9721 1645.97 86.198 1643.92 89.0572C1641.94 91.8432 1639.05 94.0426 1635.23 95.6555C1631.5 97.2684 1627.13 98.0749 1622.15 98.0749Z" fill="white"/>
<path d="M1568.95 46.0583C1571.15 42.6859 1573.9 40.0466 1577.2 38.1404C1580.5 36.1609 1584.16 35.1711 1588.2 35.1711V55.076H1583.03C1578.33 55.076 1574.82 56.1024 1572.47 58.1552C1570.12 60.1347 1568.95 63.6538 1568.95 68.7125V97.1951H1550.15V35.831H1568.95V46.0583Z" fill="white"/>
<path d="M1540.23 65.5233C1540.23 67.2828 1540.12 69.1157 1539.9 71.0219H1497.34C1497.63 74.8342 1498.84 77.7668 1500.97 79.8196C1503.17 81.7991 1505.84 82.7888 1508.99 82.7888C1513.69 82.7888 1516.95 80.8093 1518.78 76.8504H1538.8C1537.77 80.8827 1535.9 84.5117 1533.19 87.7376C1530.55 90.9634 1527.21 93.4927 1523.18 95.3256C1519.15 97.1585 1514.64 98.0749 1509.65 98.0749C1503.64 98.0749 1498.29 96.7919 1493.6 94.2259C1488.91 91.6599 1485.24 87.9942 1482.6 83.2287C1479.96 78.4633 1478.64 72.8914 1478.64 66.513C1478.64 60.1347 1479.92 54.5628 1482.49 49.7973C1485.13 45.0319 1488.8 41.3662 1493.49 38.8002C1498.18 36.2342 1503.57 34.9512 1509.65 34.9512C1515.59 34.9512 1520.87 36.1975 1525.49 38.6902C1530.11 41.1829 1533.7 44.7386 1536.27 49.3575C1538.91 53.9763 1540.23 59.3649 1540.23 65.5233ZM1520.98 60.5746C1520.98 57.3487 1519.88 54.7827 1517.68 52.8765C1515.48 50.9704 1512.73 50.0173 1509.43 50.0173C1506.28 50.0173 1503.61 50.9337 1501.41 52.7666C1499.28 54.5994 1497.96 57.2021 1497.45 60.5746H1520.98Z" fill="white"/>
<path d="M1426.55 44.5187C1428.38 41.6594 1430.91 39.35 1434.13 37.5905C1437.36 35.8309 1441.14 34.9512 1445.46 34.9512C1450.52 34.9512 1455.1 36.2342 1459.21 38.8002C1463.31 41.3662 1466.54 45.0319 1468.88 49.7973C1471.3 54.5628 1472.51 60.098 1472.51 66.4031C1472.51 72.7081 1471.3 78.28 1468.88 83.1187C1466.54 87.8842 1463.31 91.5866 1459.21 94.2259C1455.1 96.7919 1450.52 98.0749 1445.46 98.0749C1441.21 98.0749 1437.43 97.1951 1434.13 95.4356C1430.91 93.676 1428.38 91.4033 1426.55 88.6173V126.448H1407.74V35.8309H1426.55V44.5187ZM1453.38 66.4031C1453.38 61.7109 1452.06 58.0452 1449.42 55.4059C1446.85 52.6933 1443.66 51.3369 1439.85 51.3369C1436.11 51.3369 1432.92 52.6933 1430.28 55.4059C1427.72 58.1185 1426.44 61.8209 1426.44 66.513C1426.44 71.2052 1427.72 74.9075 1430.28 77.6202C1432.92 80.3328 1436.11 81.6891 1439.85 81.6891C1443.59 81.6891 1446.78 80.3328 1449.42 77.6202C1452.06 74.8342 1453.38 71.0952 1453.38 66.4031Z" fill="white"/>
<path d="M1365.65 98.0749C1359.64 98.0749 1354.22 96.7919 1349.38 94.2259C1344.61 91.6599 1340.84 87.9942 1338.05 83.2287C1335.34 78.4633 1333.98 72.8914 1333.98 66.513C1333.98 60.208 1335.37 54.6728 1338.16 49.9073C1340.95 45.0686 1344.76 41.3662 1349.6 38.8002C1354.44 36.2342 1359.86 34.9512 1365.87 34.9512C1371.89 34.9512 1377.31 36.2342 1382.15 38.8002C1386.99 41.3662 1390.8 45.0686 1393.59 49.9073C1396.37 54.6728 1397.77 60.208 1397.77 66.513C1397.77 72.8181 1396.34 78.39 1393.48 83.2287C1390.69 87.9942 1386.84 91.6599 1381.93 94.2259C1377.09 96.7919 1371.67 98.0749 1365.65 98.0749ZM1365.65 81.7991C1369.25 81.7991 1372.29 80.4794 1374.78 77.8401C1377.35 75.2008 1378.63 71.4251 1378.63 66.513C1378.63 61.601 1377.38 57.8253 1374.89 55.186C1372.47 52.5466 1369.47 51.227 1365.87 51.227C1362.21 51.227 1359.17 52.5466 1356.75 55.186C1354.33 57.752 1353.12 61.5277 1353.12 66.513C1353.12 71.4251 1354.29 75.2008 1356.64 77.8401C1359.06 80.4794 1362.06 81.7991 1365.65 81.7991Z" fill="white"/>
<path d="M1324.09 15.8162V97.1952H1305.29V15.8162H1324.09Z" fill="white"/>
<path d="M1295.37 65.5233C1295.37 67.2828 1295.26 69.1157 1295.04 71.0219H1252.48C1252.77 74.8342 1253.98 77.7668 1256.11 79.8196C1258.31 81.7991 1260.98 82.7888 1264.14 82.7888C1268.83 82.7888 1272.09 80.8093 1273.92 76.8504H1293.94C1292.91 80.8827 1291.04 84.5117 1288.33 87.7376C1285.69 90.9634 1282.35 93.4927 1278.32 95.3256C1274.29 97.1585 1269.78 98.0749 1264.8 98.0749C1258.78 98.0749 1253.43 96.7919 1248.74 94.2259C1244.05 91.6599 1240.38 87.9942 1237.74 83.2287C1235.1 78.4633 1233.78 72.8914 1233.78 66.513C1233.78 60.1347 1235.07 54.5628 1237.63 49.7973C1240.27 45.0319 1243.94 41.3662 1248.63 38.8002C1253.32 36.2342 1258.71 34.9512 1264.8 34.9512C1270.73 34.9512 1276.01 36.1975 1280.63 38.6902C1285.25 41.1829 1288.84 44.7386 1291.41 49.3575C1294.05 53.9763 1295.37 59.3649 1295.37 65.5233ZM1276.12 60.5746C1276.12 57.3487 1275.02 54.7827 1272.82 52.8765C1270.62 50.9704 1267.87 50.0173 1264.58 50.0173C1261.42 50.0173 1258.75 50.9337 1256.55 52.7666C1254.42 54.5994 1253.1 57.2021 1252.59 60.5746H1276.12Z" fill="white"/>
<path d="M1196.28 79.5998L1209.59 35.8311H1229.6L1207.83 97.1952H1184.63L1162.85 35.8311H1182.98L1196.28 79.5998Z" fill="white"/>
<path d="M1158.76 65.5233C1158.76 67.2828 1158.65 69.1157 1158.43 71.0219H1115.87C1116.17 74.8342 1117.38 77.7668 1119.5 79.8196C1121.7 81.7991 1124.38 82.7888 1127.53 82.7888C1132.22 82.7888 1135.48 80.8093 1137.32 76.8504H1157.33C1156.31 80.8827 1154.44 84.5117 1151.72 87.7376C1149.08 90.9634 1145.75 93.4927 1141.72 95.3256C1137.68 97.1585 1133.18 98.0749 1128.19 98.0749C1122.18 98.0749 1116.83 96.7919 1112.13 94.2259C1107.44 91.6599 1103.78 87.9942 1101.14 83.2287C1098.5 78.4633 1097.18 72.8914 1097.18 66.513C1097.18 60.1347 1098.46 54.5628 1101.03 49.7973C1103.67 45.0319 1107.33 41.3662 1112.02 38.8002C1116.72 36.2342 1122.1 34.9512 1128.19 34.9512C1134.13 34.9512 1139.41 36.1975 1144.03 38.6902C1148.64 41.1829 1152.24 44.7386 1154.8 49.3575C1157.44 53.9763 1158.76 59.3649 1158.76 65.5233ZM1139.52 60.5746C1139.52 57.3487 1138.42 54.7827 1136.22 52.8765C1134.02 50.9704 1131.27 50.0173 1127.97 50.0173C1124.82 50.0173 1122.14 50.9337 1119.94 52.7666C1117.82 54.5994 1116.5 57.2021 1115.98 60.5746H1139.52Z" fill="white"/>
<path d="M1049.94 19.9951C1058.07 19.9951 1065.19 21.608 1071.27 24.8339C1077.36 28.0597 1082.05 32.6052 1085.35 38.4704C1088.72 44.2622 1090.41 50.9705 1090.41 58.5952C1090.41 66.1466 1088.72 72.8548 1085.35 78.72C1082.05 84.5851 1077.32 89.1306 1071.16 92.3565C1065.08 95.5823 1058 97.1952 1049.94 97.1952H1021.01V19.9951H1049.94ZM1048.73 80.9194C1055.84 80.9194 1061.37 78.9766 1065.33 75.0909C1069.29 71.2052 1071.27 65.7067 1071.27 58.5952C1071.27 51.4837 1069.29 45.9484 1065.33 41.9894C1061.37 38.0305 1055.84 36.051 1048.73 36.051H1039.82V80.9194H1048.73Z" fill="white"/>
<path d="M987.236 81.2494V97.1953H977.669C970.851 97.1953 965.535 95.5457 961.723 92.2466C957.911 88.8741 956.004 83.4122 956.004 75.8608V51.4471H948.526V35.8311H956.004V20.875H974.81V35.8311H987.126V51.4471H974.81V76.0808C974.81 77.9136 975.25 79.2333 976.129 80.0397C977.009 80.8462 978.475 81.2494 980.528 81.2494H987.236Z" fill="white"/>
<path d="M944.197 51.4471H934.079V97.1953H915.274V51.4471H908.456V35.8311H915.274V34.0716C915.274 26.5202 917.437 20.8017 921.763 16.916C926.088 12.957 932.43 10.9775 940.788 10.9775C942.181 10.9775 943.207 11.0142 943.867 11.0875V27.0334C940.274 26.8135 937.745 27.3267 936.279 28.573C934.813 29.8193 934.079 32.0554 934.079 35.2813V35.8311H944.197V51.4471Z" fill="white"/>
<path d="M871.318 98.0749C865.307 98.0749 859.881 96.7919 855.043 94.2259C850.277 91.6599 846.501 87.9942 843.715 83.2287C841.003 78.4633 839.646 72.8914 839.646 66.513C839.646 60.208 841.039 54.6728 843.825 49.9073C846.611 45.0686 850.424 41.3662 855.262 38.8002C860.101 36.2342 865.526 34.9512 871.538 34.9512C877.55 34.9512 882.975 36.2342 887.814 38.8002C892.653 41.3662 896.465 45.0686 899.251 49.9073C902.037 54.6728 903.43 60.208 903.43 66.513C903.43 72.8181 902 78.39 899.141 83.2287C896.355 87.9942 892.506 91.6599 887.594 94.2259C882.755 96.7919 877.33 98.0749 871.318 98.0749ZM871.318 81.7991C874.911 81.7991 877.953 80.4794 880.446 77.8401C883.012 75.2008 884.295 71.4251 884.295 66.513C884.295 61.601 883.049 57.8253 880.556 55.186C878.137 52.5466 875.131 51.227 871.538 51.227C867.873 51.227 864.83 52.5466 862.411 55.186C859.991 57.752 858.782 61.5277 858.782 66.513C858.782 71.4251 859.955 75.2008 862.301 77.8401C864.72 80.4794 867.726 81.7991 871.318 81.7991Z" fill="white"/>
<path d="M807.025 98.0749C801.673 98.0749 796.908 97.1585 792.729 95.3256C788.55 93.4927 785.251 91.0001 782.832 87.8475C780.412 84.6217 779.056 81.0293 778.763 77.0703H797.348C797.568 79.1964 798.558 80.9193 800.317 82.239C802.077 83.5586 804.239 84.2185 806.805 84.2185C809.152 84.2185 810.948 83.7786 812.194 82.8988C813.514 81.9457 814.174 80.736 814.174 79.2697C814.174 77.5102 813.257 76.2272 811.424 75.4207C809.591 74.541 806.622 73.5879 802.517 72.5615C798.118 71.5351 794.452 70.472 791.519 69.3723C788.587 68.1993 786.057 66.4031 783.931 63.9837C781.805 61.491 780.742 58.1552 780.742 53.9763C780.742 50.4572 781.695 47.268 783.601 44.4087C785.581 41.4762 788.44 39.1668 792.179 37.4805C795.992 35.7943 800.5 34.9512 805.706 34.9512C813.404 34.9512 819.452 36.8573 823.851 40.6697C828.323 44.4821 830.889 49.5407 831.549 55.8458H814.174C813.88 53.7197 812.927 52.0334 811.314 50.7871C809.775 49.5407 807.722 48.9176 805.156 48.9176C802.956 48.9176 801.27 49.3575 800.097 50.2372C798.924 51.0437 798.338 52.1801 798.338 53.6464C798.338 55.4059 799.254 56.7256 801.087 57.6053C802.993 58.4851 805.926 59.3649 809.885 60.2446C814.43 61.4177 818.133 62.5907 820.992 63.7637C823.851 64.8635 826.344 66.6963 828.47 69.2623C830.669 71.755 831.806 75.1275 831.879 79.3797C831.879 82.9721 830.853 86.198 828.8 89.0572C826.82 91.8432 823.924 94.0426 820.112 95.6555C816.373 97.2684 812.011 98.0749 807.025 98.0749Z" fill="white"/>
<path d="M739.975 98.0749C733.963 98.0749 728.538 96.7919 723.699 94.2259C718.934 91.6599 715.158 87.9942 712.372 83.2287C709.66 78.4633 708.303 72.8914 708.303 66.513C708.303 60.208 709.696 54.6728 712.482 49.9073C715.268 45.0686 719.08 41.3662 723.919 38.8002C728.758 36.2342 734.183 34.9512 740.195 34.9512C746.207 34.9512 751.632 36.2342 756.471 38.8002C761.31 41.3662 765.122 45.0686 767.908 49.9073C770.694 54.6728 772.087 60.208 772.087 66.513C772.087 72.8181 770.657 78.39 767.798 83.2287C765.012 87.9942 761.163 91.6599 756.251 94.2259C751.412 96.7919 745.987 98.0749 739.975 98.0749ZM739.975 81.7991C743.567 81.7991 746.61 80.4794 749.103 77.8401C751.669 75.2008 752.952 71.4251 752.952 66.513C752.952 61.601 751.705 57.8253 749.213 55.186C746.793 52.5466 743.787 51.227 740.195 51.227C736.529 51.227 733.487 52.5466 731.067 55.186C728.648 57.752 727.438 61.5277 727.438 66.513C727.438 71.4251 728.611 75.2008 730.957 77.8401C733.377 80.4794 736.383 81.7991 739.975 81.7991Z" fill="white"/>
<path d="M683.808 46.0583C686.007 42.6859 688.756 40.0466 692.055 38.1404C695.355 36.1609 699.02 35.1711 703.053 35.1711V55.076H697.884C693.192 55.076 689.673 56.1024 687.327 58.1552C684.981 60.1347 683.808 63.6538 683.808 68.7125V97.1951H665.002V35.831H683.808V46.0583Z" fill="white"/>
<path d="M594.68 66.513C594.68 60.1347 595.963 54.5628 598.529 49.7973C601.169 45.0319 604.798 41.3662 609.416 38.8002C614.109 36.2342 619.46 34.9512 625.472 34.9512C633.17 34.9512 639.585 36.9673 644.717 40.9996C649.923 45.0319 653.332 50.7138 654.945 58.0452H634.93C633.244 53.3531 629.981 51.007 625.142 51.007C621.697 51.007 618.947 52.3634 616.894 55.076C614.842 57.7153 613.815 61.5277 613.815 66.513C613.815 71.4984 614.842 75.3474 616.894 78.0601C618.947 80.6994 621.697 82.019 625.142 82.019C629.981 82.019 633.244 79.673 634.93 74.9809H654.945C653.332 82.1657 649.923 87.8109 644.717 91.9165C639.512 96.0221 633.097 98.0749 625.472 98.0749C619.46 98.0749 614.109 96.7919 609.416 94.2259C604.798 91.6599 601.169 87.9942 598.529 83.2287C595.963 78.4633 594.68 72.8914 594.68 66.513Z" fill="white"/>
<path d="M575.442 29.4527C572.143 29.4527 569.43 28.4996 567.304 26.5934C565.252 24.6139 564.225 22.1945 564.225 19.3353C564.225 16.4027 565.252 13.9833 567.304 12.0771C569.43 10.0977 572.143 9.10791 575.442 9.10791C578.668 9.10791 581.307 10.0977 583.36 12.0771C585.486 13.9833 586.549 16.4027 586.549 19.3353C586.549 22.1945 585.486 24.6139 583.36 26.5934C581.307 28.4996 578.668 29.4527 575.442 29.4527ZM584.79 35.831V97.1952H565.985V35.831H584.79Z" fill="white"/>
<path d="M552.462 19.9951V97.1952H533.657V50.8971L516.391 97.1952H501.215L483.84 50.7872V97.1952H465.035V19.9951H487.249L508.913 73.4413L530.358 19.9951H552.462Z" fill="white"/>
</svg>
