<svg width="1240" height="280" viewBox="0 0 1240 280" fill="none" xmlns="http://www.w3.org/2000/svg">
<path d="M0 0.00140381H139.387V131.71H0V0.00140381Z" fill="#F14F21"/>
<path d="M155.794 0H295.181V131.709H155.794V0Z" fill="#7EB900"/>
<path d="M0 148.174H139.387V279.883H0V148.174Z" fill="#00A3EE"/>
<path d="M155.794 148.172H295.181V279.881H155.794V148.172Z" fill="#FFB901"/>
<path d="M109.246 100.447H93.9206V59.0631C93.9206 57.2945 93.9367 55.5581 93.9687 53.8539C94.0008 52.1497 94.0488 50.2364 94.1128 48.1141H93.7285C93.3762 49.1752 93.0559 50.1399 92.7676 51.0081C92.4794 51.8442 92.2071 52.6481 91.951 53.4198L75.8087 100.447H63.1256L46.6952 53.9022C46.3748 52.9696 46.1026 52.1335 45.8784 51.394C45.6862 50.6544 45.366 49.5611 44.9176 48.1141H44.4852C44.5813 50.9438 44.6454 53.468 44.6774 55.6867C44.7094 57.9055 44.7254 60.076 44.7254 62.1982V100.447H30.5049V31.2807H53.4691L67.5454 72.279C68.0579 73.726 68.4742 75.0123 68.7945 76.1376C69.1149 77.2309 69.5152 78.5976 69.9956 80.2375H70.2838C70.8604 78.5011 71.3087 77.1344 71.6291 76.1376C71.9814 75.1408 72.4458 73.8225 73.0223 72.1825L87.0987 31.2807H109.246V100.447Z" fill="white"/>
<path d="M195.141 100.447V31.2807H219.546C231.781 31.2807 240.957 34.0943 247.074 39.7215C253.192 45.3166 256.25 53.7414 256.25 64.9958C256.25 75.7678 252.904 84.3694 246.21 90.8006C239.548 97.2317 230.66 100.447 219.546 100.447H195.141ZM210.658 44.2072V87.5207H218.345C225.071 87.5207 230.339 85.527 234.151 81.5398C237.994 77.5203 239.916 72.07 239.916 65.1887C239.916 58.6611 238.01 53.5323 234.199 49.8023C230.42 46.0723 225.103 44.2072 218.249 44.2072H210.658Z" fill="white"/>
<path d="M100.248 232.882C97.8135 237.802 94.0501 241.838 88.9577 244.989C83.8972 248.108 78.1642 249.668 71.7586 249.668C61.0611 249.668 52.4936 246.693 46.056 240.744C39.6183 234.764 36.3994 226.307 36.3994 215.374C36.3994 204.088 39.5702 195.068 45.9118 188.315C52.2854 181.53 60.5487 178.138 70.7016 178.138C78.0041 178.138 84.0414 179.777 88.8136 183.057C93.6178 186.305 97.3011 190.79 99.8633 196.514L86.1231 201.675C84.5538 198.171 82.536 195.646 80.0698 194.103C77.6358 192.527 74.609 191.74 70.9899 191.74C65.6732 191.74 61.3014 193.861 57.8744 198.106C54.4473 202.318 52.7339 207.705 52.7339 214.264C52.7339 221.178 54.4954 226.5 58.0184 230.23C61.5416 233.959 66.3137 235.825 72.335 235.825C75.666 235.825 78.5805 235.053 81.0788 233.509C83.5769 231.966 85.5147 229.683 86.8919 226.66L100.248 232.882Z" fill="white"/>
<path d="M254.08 219.697C254.08 228.507 251.63 235.63 246.73 241.064C241.829 246.466 234.639 249.167 225.158 249.167C215.966 249.167 208.984 246.514 204.212 241.209C199.472 235.871 197.102 228.894 197.102 220.276V178.795H212.667V219.697C212.667 224.873 213.868 228.813 216.27 231.514C218.672 234.183 221.827 235.518 225.734 235.518C229.546 235.518 232.637 234.231 235.007 231.659C237.377 229.054 238.562 225.26 238.562 220.276V178.795H254.08V219.697Z" fill="white"/>
<path d="M793.229 212.469C798.678 212.469 803.016 214.248 806.241 217.807C809.522 221.311 811.163 226.149 811.163 232.322V259.515H796.982V234.24C796.982 231.126 796.176 228.707 794.563 226.983C792.95 225.259 790.782 224.397 788.057 224.397C785.332 224.397 783.163 225.259 781.55 226.983C779.938 228.707 779.131 231.126 779.131 234.24V259.515H764.867V212.969H779.131V219.142C780.577 217.085 782.524 215.472 784.97 214.304C787.417 213.081 790.17 212.469 793.229 212.469Z" fill="white"/>
<path d="M705.416 236.159C705.416 231.377 706.306 227.178 708.085 223.564C709.92 219.949 712.395 217.168 715.509 215.222C718.624 213.276 722.099 212.302 725.936 212.302C729.217 212.302 732.081 212.97 734.528 214.304C737.031 215.639 738.949 217.391 740.284 219.56V212.97H754.548V259.516H740.284V252.926C738.894 255.095 736.947 256.846 734.445 258.181C731.998 259.516 729.134 260.183 725.853 260.183C722.071 260.183 718.624 259.21 715.509 257.264C712.395 255.262 709.92 252.453 708.085 248.839C706.306 245.168 705.416 240.942 705.416 236.159ZM740.284 236.243C740.284 232.684 739.283 229.875 737.281 227.818C735.334 225.76 732.943 224.731 730.107 224.731C727.271 224.731 724.852 225.76 722.85 227.818C720.904 229.82 719.93 232.6 719.93 236.159C719.93 239.718 720.904 242.555 722.85 244.668C724.852 246.725 727.271 247.754 730.107 247.754C732.943 247.754 735.334 246.725 737.281 244.668C739.283 242.61 740.284 239.802 740.284 236.243Z" fill="white"/>
<path d="M700.315 247.421V259.516H693.058C687.887 259.516 683.855 258.265 680.963 255.763C678.071 253.205 676.625 249.062 676.625 243.334V224.815H670.953V212.97H676.625V201.626H690.889V212.97H700.232V224.815H690.889V243.501C690.889 244.891 691.223 245.892 691.89 246.503C692.558 247.115 693.67 247.421 695.227 247.421H700.315Z" fill="white"/>
<path d="M646.782 260.183C642.722 260.183 639.107 259.488 635.938 258.098C632.768 256.707 630.265 254.817 628.43 252.425C626.595 249.979 625.566 247.254 625.344 244.251H639.441C639.608 245.863 640.359 247.17 641.693 248.171C643.028 249.172 644.668 249.673 646.615 249.673C648.394 249.673 649.757 249.339 650.702 248.672C651.703 247.949 652.204 247.031 652.204 245.919C652.204 244.584 651.508 243.611 650.118 242.999C648.728 242.332 646.476 241.609 643.362 240.831C640.025 240.052 637.244 239.246 635.02 238.412C632.796 237.522 630.877 236.159 629.264 234.324C627.652 232.433 626.845 229.903 626.845 226.733C626.845 224.064 627.568 221.645 629.014 219.476C630.516 217.252 632.684 215.5 635.52 214.221C638.412 212.942 641.832 212.302 645.781 212.302C651.62 212.302 656.208 213.748 659.544 216.64C662.936 219.532 664.883 223.369 665.383 228.151H652.204C651.981 226.539 651.258 225.26 650.035 224.314C648.867 223.369 647.31 222.896 645.364 222.896C643.695 222.896 642.416 223.23 641.526 223.897C640.637 224.509 640.192 225.371 640.192 226.483C640.192 227.818 640.887 228.819 642.277 229.486C643.723 230.153 645.947 230.821 648.95 231.488C652.398 232.378 655.207 233.268 657.375 234.157C659.544 234.992 661.435 236.382 663.048 238.328C664.716 240.219 665.578 242.777 665.634 246.002C665.634 248.727 664.855 251.174 663.298 253.343C661.796 255.456 659.6 257.125 656.708 258.348C653.872 259.571 650.563 260.183 646.782 260.183Z" fill="white"/>
<path d="M610.419 208.132C607.916 208.132 605.859 207.409 604.246 205.963C602.689 204.461 601.91 202.626 601.91 200.457C601.91 198.233 602.689 196.398 604.246 194.952C605.859 193.45 607.916 192.7 610.419 192.7C612.865 192.7 614.867 193.45 616.424 194.952C618.037 196.398 618.844 198.233 618.844 200.457C618.844 202.626 618.037 204.461 616.424 205.963C614.867 207.409 612.865 208.132 610.419 208.132ZM617.509 212.97V259.516H603.245V212.97H617.509Z" fill="white"/>
<path d="M580.134 259.516L565.954 239.996V259.516H551.689V197.788H565.954V231.905L580.051 212.97H597.652L578.299 236.326L597.818 259.516H580.134Z" fill="white"/>
<path d="M544.166 235.492C544.166 236.827 544.082 238.217 543.916 239.663H511.634C511.856 242.555 512.774 244.779 514.387 246.336C516.055 247.838 518.085 248.588 520.476 248.588C524.035 248.588 526.51 247.087 527.9 244.084H543.082C542.303 247.142 540.885 249.895 538.827 252.342C536.825 254.789 534.295 256.707 531.236 258.098C528.178 259.488 524.758 260.183 520.976 260.183C516.416 260.183 512.357 259.21 508.798 257.264C505.239 255.317 502.458 252.537 500.456 248.922C498.454 245.307 497.453 241.081 497.453 236.243C497.453 231.405 498.426 227.178 500.373 223.564C502.375 219.949 505.155 217.168 508.714 215.222C512.273 213.276 516.361 212.302 520.976 212.302C525.481 212.302 529.485 213.248 532.988 215.139C536.492 217.029 539.217 219.726 541.163 223.23C543.165 226.733 544.166 230.821 544.166 235.492ZM529.568 231.738C529.568 229.291 528.734 227.345 527.066 225.899C525.397 224.453 523.312 223.73 520.81 223.73C518.418 223.73 516.388 224.426 514.72 225.816C513.107 227.206 512.106 229.18 511.717 231.738H529.568Z" fill="white"/>
<path d="M457.942 219.56C459.276 217.391 461.195 215.639 463.698 214.304C466.2 212.97 469.064 212.302 472.289 212.302C476.126 212.302 479.602 213.276 482.716 215.222C485.83 217.168 488.277 219.949 490.057 223.563C491.892 227.178 492.81 231.377 492.81 236.159C492.81 240.942 491.892 245.168 490.057 248.838C488.277 252.453 485.83 255.261 482.716 257.263C479.602 259.21 476.126 260.183 472.289 260.183C469.008 260.183 466.144 259.543 463.698 258.264C461.251 256.93 459.332 255.178 457.942 253.009V259.516H443.678V197.788H457.942V219.56ZM478.295 236.159C478.295 232.6 477.294 229.82 475.292 227.818C473.346 225.76 470.927 224.731 468.035 224.731C465.199 224.731 462.78 225.76 460.778 227.818C458.832 229.875 457.858 232.684 457.858 236.243C457.858 239.802 458.832 242.61 460.778 244.668C462.78 246.725 465.199 247.754 468.035 247.754C470.871 247.754 473.29 246.725 475.292 244.668C477.294 242.554 478.295 239.718 478.295 236.159Z" fill="white"/>
<path d="M415.641 247.755H435.828V259.516H399.709V248.172L419.061 224.732H399.876V212.97H435.411V224.315L415.641 247.755Z" fill="white"/>
<path d="M357.489 200.958V235.993C357.489 239.496 358.351 242.193 360.075 244.084C361.799 245.975 364.329 246.92 367.665 246.92C371.002 246.92 373.56 245.975 375.34 244.084C377.119 242.193 378.009 239.496 378.009 235.993V200.958H392.273V235.909C392.273 241.137 391.161 245.558 388.936 249.172C386.712 252.787 383.709 255.512 379.928 257.347C376.202 259.182 372.031 260.1 367.415 260.1C362.799 260.1 358.657 259.21 354.986 257.43C351.372 255.595 348.508 252.87 346.394 249.256C344.281 245.585 343.225 241.137 343.225 235.909V200.958H357.489Z" fill="white"/>
<path d="M930.982 119.785C936.432 119.785 940.77 121.564 943.995 125.123C947.276 128.627 948.917 133.465 948.917 139.638V166.831H934.736V141.556C934.736 138.442 933.93 136.023 932.317 134.299C930.704 132.575 928.536 131.713 925.811 131.713C923.086 131.713 920.917 132.575 919.304 134.299C917.692 136.023 916.885 138.442 916.885 141.556V166.831H902.621V120.285H916.885V126.458C918.331 124.4 920.277 122.788 922.724 121.62C925.171 120.396 927.924 119.785 930.982 119.785Z" fill="white"/>
<path d="M885.19 115.448C882.688 115.448 880.63 114.725 879.017 113.279C877.46 111.777 876.682 109.942 876.682 107.773C876.682 105.549 877.46 103.714 879.017 102.268C880.63 100.766 882.688 100.016 885.19 100.016C887.637 100.016 889.639 100.766 891.196 102.268C892.809 103.714 893.615 105.549 893.615 107.773C893.615 109.942 892.809 111.777 891.196 113.279C889.639 114.725 887.637 115.448 885.19 115.448ZM892.28 120.286V166.832H878.016V120.286H892.28Z" fill="white"/>
<path d="M855.173 120.286L825.978 188.937H810.629L821.306 165.247L802.371 120.286H818.303L829.064 149.398L839.741 120.286H855.173Z" fill="white"/>
<path d="M799.696 154.736V166.831H792.439C787.267 166.831 783.236 165.58 780.344 163.078C777.452 160.52 776.006 156.377 776.006 150.649V132.131H770.334V120.286H776.006V108.941H790.27V120.286H799.613V132.131H790.27V150.816C790.27 152.206 790.604 153.207 791.271 153.819C791.939 154.43 793.051 154.736 794.608 154.736H799.696Z" fill="white"/>
<path d="M756.325 115.448C753.822 115.448 751.765 114.725 750.152 113.279C748.595 111.777 747.816 109.942 747.816 107.773C747.816 105.549 748.595 103.714 750.152 102.268C751.765 100.766 753.822 100.016 756.325 100.016C758.772 100.016 760.774 100.766 762.331 102.268C763.943 103.714 764.75 105.549 764.75 107.773C764.75 109.942 763.943 111.777 762.331 113.279C760.774 114.725 758.772 115.448 756.325 115.448ZM763.415 120.286V166.832H749.151V120.286H763.415Z" fill="white"/>
<path d="M721.309 119.785C726.758 119.785 731.096 121.564 734.321 125.123C737.602 128.627 739.243 133.465 739.243 139.638V166.831H725.062V141.556C725.062 138.442 724.256 136.023 722.643 134.299C721.031 132.575 718.862 131.713 716.137 131.713C713.412 131.713 711.243 132.575 709.63 134.299C708.018 136.023 707.211 138.442 707.211 141.556V166.831H692.947V120.285H707.211V126.458C708.657 124.4 710.604 122.788 713.05 121.62C715.497 120.396 718.25 119.785 721.309 119.785Z" fill="white"/>
<path d="M682.703 120.286V166.832H668.439V160.492C666.993 162.55 665.019 164.218 662.517 165.497C660.07 166.721 657.345 167.333 654.342 167.333C650.783 167.333 647.641 166.554 644.916 164.997C642.191 163.384 640.078 161.076 638.576 158.073C637.075 155.07 636.324 151.539 636.324 147.48V120.286H650.505V145.561C650.505 148.675 651.311 151.094 652.924 152.818C654.537 154.542 656.705 155.404 659.43 155.404C662.211 155.404 664.407 154.542 666.02 152.818C667.633 151.094 668.439 148.675 668.439 145.561V120.286H682.703Z" fill="white"/>
<path d="M607.826 119.785C613.609 119.785 618.197 121.536 621.589 125.04C625.037 128.543 626.761 133.409 626.761 139.638V166.831H612.58V141.556C612.58 138.553 611.774 136.245 610.161 134.633C608.604 132.964 606.435 132.13 603.655 132.13C600.874 132.13 598.678 132.964 597.065 134.633C595.508 136.245 594.729 138.553 594.729 141.556V166.831H580.549V141.556C580.549 138.553 579.742 136.245 578.13 134.633C576.572 132.964 574.404 132.13 571.623 132.13C568.843 132.13 566.646 132.964 565.033 134.633C563.476 136.245 562.698 138.553 562.698 141.556V166.831H548.434V120.285H562.698V126.124C564.144 124.178 566.034 122.649 568.37 121.536C570.706 120.369 573.347 119.785 576.294 119.785C579.798 119.785 582.912 120.535 585.637 122.037C588.418 123.538 590.586 125.679 592.143 128.46C593.756 125.902 595.953 123.816 598.733 122.204C601.514 120.591 604.545 119.785 607.826 119.785Z" fill="white"/>
<path d="M519.517 119.785C525.3 119.785 529.888 121.536 533.281 125.04C536.728 128.543 538.452 133.409 538.452 139.638V166.831H524.272V141.556C524.272 138.553 523.465 136.245 521.853 134.633C520.296 132.964 518.127 132.13 515.346 132.13C512.566 132.13 510.369 132.964 508.756 134.633C507.199 136.245 506.421 138.553 506.421 141.556V166.831H492.24V141.556C492.24 138.553 491.434 136.245 489.821 134.633C488.264 132.964 486.095 132.13 483.315 132.13C480.534 132.13 478.337 132.964 476.725 134.633C475.168 136.245 474.389 138.553 474.389 141.556V166.831H460.125V120.285H474.389V126.124C475.835 124.178 477.726 122.649 480.061 121.536C482.397 120.369 485.039 119.785 487.986 119.785C491.489 119.785 494.604 120.535 497.328 122.037C500.109 123.538 502.278 125.679 503.835 128.46C505.448 125.902 507.644 123.816 510.425 122.204C513.205 120.591 516.236 119.785 519.517 119.785Z" fill="white"/>
<path d="M428.2 167.499C423.639 167.499 419.524 166.526 415.854 164.579C412.239 162.633 409.375 159.853 407.262 156.238C405.205 152.623 404.176 148.397 404.176 143.559C404.176 138.776 405.232 134.578 407.346 130.963C409.459 127.293 412.351 124.484 416.021 122.538C419.691 120.592 423.806 119.618 428.366 119.618C432.926 119.618 437.042 120.592 440.712 122.538C444.382 124.484 447.274 127.293 449.387 130.963C451.5 134.578 452.557 138.776 452.557 143.559C452.557 148.341 451.473 152.568 449.304 156.238C447.19 159.853 444.271 162.633 440.545 164.579C436.875 166.526 432.76 167.499 428.2 167.499ZM428.2 155.153C430.924 155.153 433.232 154.152 435.123 152.15C437.069 150.149 438.043 147.285 438.043 143.559C438.043 139.833 437.097 136.969 435.206 134.967C433.371 132.965 431.091 131.964 428.366 131.964C425.586 131.964 423.278 132.965 421.443 134.967C419.608 136.913 418.69 139.777 418.69 143.559C418.69 147.285 419.58 150.149 421.359 152.15C423.195 154.152 425.475 155.153 428.2 155.153Z" fill="white"/>
<path d="M341.051 137.469C341.051 131.686 342.302 126.542 344.804 122.037C347.307 117.477 350.783 113.946 355.231 111.443C359.736 108.885 364.824 107.606 370.497 107.606C377.448 107.606 383.398 109.441 388.347 113.112C393.297 116.782 396.606 121.787 398.274 128.127H382.592C381.424 125.68 379.756 123.817 377.587 122.538C375.474 121.259 373.055 120.619 370.33 120.619C365.936 120.619 362.377 122.148 359.652 125.207C356.928 128.266 355.565 132.353 355.565 137.469C355.565 142.585 356.928 146.673 359.652 149.731C362.377 152.79 365.936 154.319 370.33 154.319C373.055 154.319 375.474 153.68 377.587 152.401C379.756 151.121 381.424 149.259 382.592 146.812H398.274C396.606 153.151 393.297 158.156 388.347 161.826C383.398 165.441 377.448 167.249 370.497 167.249C364.824 167.249 359.736 165.997 355.231 163.495C350.783 160.937 347.307 157.405 344.804 152.901C342.302 148.397 341.051 143.253 341.051 137.469Z" fill="white"/>
<path d="M1221.15 74.8149C1217.09 74.8149 1213.47 74.1198 1210.3 72.7295C1207.13 71.3392 1204.63 69.4485 1202.8 67.0572C1200.96 64.6104 1199.93 61.8854 1199.71 58.8825H1213.81C1213.97 60.4952 1214.73 61.802 1216.06 62.803C1217.4 63.804 1219.04 64.3045 1220.98 64.3045C1222.76 64.3045 1224.12 63.9708 1225.07 63.3035C1226.07 62.5806 1226.57 61.663 1226.57 60.5508C1226.57 59.2161 1225.88 58.243 1224.49 57.6313C1223.1 56.9639 1220.84 56.241 1217.73 55.4624C1214.39 54.6839 1211.61 53.8775 1209.39 53.0434C1207.16 52.1536 1205.24 50.7912 1203.63 48.956C1202.02 47.0653 1201.21 44.535 1201.21 41.3652C1201.21 38.6959 1201.94 36.2768 1203.38 34.108C1204.88 31.8836 1207.05 30.1319 1209.89 28.8528C1212.78 27.5738 1216.2 26.9343 1220.15 26.9343C1225.99 26.9343 1230.57 28.3801 1233.91 31.2719C1237.3 34.1636 1239.25 38.0008 1239.75 42.7833H1226.57C1226.35 41.1705 1225.63 39.8915 1224.4 38.9461C1223.23 38.0008 1221.68 37.5281 1219.73 37.5281C1218.06 37.5281 1216.78 37.8617 1215.89 38.5291C1215 39.1408 1214.56 40.0027 1214.56 41.1149C1214.56 42.4496 1215.25 43.4506 1216.64 44.1179C1218.09 44.7852 1220.31 45.4526 1223.32 46.1199C1226.77 47.0096 1229.57 47.8994 1231.74 48.7892C1233.91 49.6233 1235.8 51.0136 1237.41 52.96C1239.08 54.8507 1239.95 57.4088 1240 60.6342C1240 63.3591 1239.22 65.806 1237.67 67.9748C1236.16 70.088 1233.97 71.7563 1231.08 72.9797C1228.24 74.2032 1224.93 74.8149 1221.15 74.8149Z" fill="white"/>
<path d="M1180.82 35.3588C1182.49 32.8007 1184.57 30.7987 1187.08 29.3529C1189.58 27.8514 1192.36 27.1006 1195.42 27.1006V42.1989H1191.5C1187.94 42.1989 1185.27 42.9774 1183.49 44.5345C1181.71 46.036 1180.82 48.7053 1180.82 52.5424V74.1471H1166.56V27.6011H1180.82V35.3588Z" fill="white"/>
<path d="M1159.03 50.1238C1159.03 51.4585 1158.95 52.8487 1158.78 54.2946H1126.5C1126.72 57.1864 1127.64 59.4108 1129.25 60.9679C1130.92 62.4694 1132.95 63.2201 1135.34 63.2201C1138.9 63.2201 1141.38 61.7186 1142.77 58.7157H1157.95C1157.17 61.7742 1155.75 64.5269 1153.69 66.9738C1151.69 69.4207 1149.16 71.3392 1146.1 72.7295C1143.05 74.1198 1139.63 74.8149 1135.84 74.8149C1131.28 74.8149 1127.22 73.8417 1123.66 71.8953C1120.11 69.949 1117.33 67.1684 1115.32 63.5538C1113.32 59.9391 1112.32 55.7127 1112.32 50.8746C1112.32 46.0365 1113.29 41.8101 1115.24 38.1954C1117.24 34.5807 1120.02 31.8002 1123.58 29.8538C1127.14 27.9074 1131.23 26.9343 1135.84 26.9343C1140.35 26.9343 1144.35 27.8796 1147.86 29.7704C1151.36 31.6612 1154.08 34.3583 1156.03 37.8617C1158.03 41.3652 1159.03 45.4526 1159.03 50.1238ZM1144.44 46.3701C1144.44 43.9233 1143.6 41.9769 1141.93 40.531C1140.26 39.0852 1138.18 38.3622 1135.68 38.3622C1133.29 38.3622 1131.26 39.0574 1129.59 40.4476C1127.97 41.8379 1126.97 43.812 1126.58 46.3701H1144.44Z" fill="white"/>
<path d="M1072.8 34.1914C1074.19 32.0226 1076.11 30.2709 1078.55 28.9362C1081 27.6016 1083.87 26.9343 1087.15 26.9343C1090.98 26.9343 1094.46 27.9074 1097.57 29.8538C1100.69 31.8002 1103.13 34.5807 1104.91 38.1954C1106.75 41.8101 1107.67 46.0087 1107.67 50.7912C1107.67 55.5737 1106.75 59.8001 1104.91 63.4703C1103.13 67.085 1100.69 69.8934 1097.57 71.8953C1094.46 73.8417 1090.98 74.8149 1087.15 74.8149C1083.92 74.8149 1081.06 74.1476 1078.55 72.8129C1076.11 71.4783 1074.19 69.7543 1072.8 67.6411V96.3361H1058.54V27.6016H1072.8V34.1914ZM1093.15 50.7912C1093.15 47.2321 1092.15 44.4516 1090.15 42.4496C1088.2 40.392 1085.78 39.3632 1082.89 39.3632C1080.06 39.3632 1077.64 40.392 1075.64 42.4496C1073.69 44.5072 1072.72 47.3155 1072.72 50.8746C1072.72 54.4336 1073.69 57.242 1075.64 59.2996C1077.64 61.3571 1080.06 62.3859 1082.89 62.3859C1085.73 62.3859 1088.15 61.3571 1090.15 59.2996C1092.15 57.1864 1093.15 54.3502 1093.15 50.7912Z" fill="white"/>
<path d="M1026.61 74.8149C1022.05 74.8149 1017.93 73.8417 1014.26 71.8953C1010.65 69.949 1007.79 67.1684 1005.67 63.5538C1003.61 59.9391 1002.59 55.7127 1002.59 50.8746C1002.59 46.0921 1003.64 41.8935 1005.76 38.2788C1007.87 34.6085 1010.76 31.8002 1014.43 29.8538C1018.1 27.9074 1022.22 26.9343 1026.78 26.9343C1031.34 26.9343 1035.45 27.9074 1039.12 29.8538C1042.79 31.8002 1045.68 34.6085 1047.8 38.2788C1049.91 41.8935 1050.97 46.0921 1050.97 50.8746C1050.97 55.6571 1049.88 59.8835 1047.71 63.5538C1045.6 67.1684 1042.68 69.949 1038.96 71.8953C1035.28 73.8417 1031.17 74.8149 1026.61 74.8149ZM1026.61 62.4694C1029.33 62.4694 1031.64 61.4684 1033.53 59.4664C1035.48 57.4644 1036.45 54.6005 1036.45 50.8746C1036.45 47.1487 1035.51 44.2847 1033.62 42.2828C1031.78 40.2808 1029.5 39.2798 1026.78 39.2798C1024 39.2798 1021.69 40.2808 1019.85 42.2828C1018.02 44.2291 1017.1 47.0931 1017.1 50.8746C1017.1 54.6005 1017.99 57.4644 1019.77 59.4664C1021.6 61.4684 1023.88 62.4694 1026.61 62.4694Z" fill="white"/>
<path d="M995.094 12.4192V74.1468H980.83V12.4192H995.094Z" fill="white"/>
<path d="M973.307 50.1238C973.307 51.4585 973.223 52.8487 973.056 54.2946H940.774C940.997 57.1864 941.914 59.4108 943.527 60.9679C945.195 62.4694 947.225 63.2201 949.616 63.2201C953.176 63.2201 955.65 61.7186 957.041 58.7157H972.222C971.444 61.7742 970.026 64.5269 967.968 66.9738C965.966 69.4207 963.436 71.3392 960.377 72.7295C957.319 74.1198 953.899 74.8149 950.117 74.8149C945.557 74.8149 941.497 73.8417 937.938 71.8953C934.379 69.949 931.599 67.1684 929.597 63.5538C927.595 59.9391 926.594 55.7127 926.594 50.8746C926.594 46.0365 927.567 41.8101 929.513 38.1954C931.515 34.5807 934.296 31.8002 937.855 29.8538C941.414 27.9074 945.501 26.9343 950.117 26.9343C954.621 26.9343 958.625 27.8796 962.129 29.7704C965.632 31.6612 968.357 34.3583 970.304 37.8617C972.306 41.3652 973.307 45.4526 973.307 50.1238ZM958.709 46.3701C958.709 43.9233 957.875 41.9769 956.206 40.531C954.538 39.0852 952.453 38.3622 949.95 38.3622C947.559 38.3622 945.529 39.0574 943.861 40.4476C942.248 41.8379 941.247 43.812 940.858 46.3701H958.709Z" fill="white"/>
<path d="M898.128 60.8014L908.221 27.602H923.403L906.887 74.148H889.286L872.77 27.602H888.035L898.128 60.8014Z" fill="white"/>
<path d="M869.682 50.1238C869.682 51.4585 869.598 52.8487 869.431 54.2946H837.149C837.372 57.1864 838.289 59.4108 839.902 60.9679C841.57 62.4694 843.6 63.2201 845.991 63.2201C849.551 63.2201 852.025 61.7186 853.415 58.7157H868.597C867.819 61.7742 866.401 64.5269 864.343 66.9738C862.341 69.4207 859.811 71.3392 856.752 72.7295C853.694 74.1198 850.274 74.8149 846.492 74.8149C841.932 74.8149 837.872 73.8417 834.313 71.8953C830.754 69.949 827.974 67.1684 825.972 63.5538C823.97 59.9391 822.969 55.7127 822.969 50.8746C822.969 46.0365 823.942 41.8101 825.888 38.1954C827.89 34.5807 830.671 31.8002 834.23 29.8538C837.789 27.9074 841.876 26.9343 846.492 26.9343C850.996 26.9343 855 27.8796 858.504 29.7704C862.007 31.6612 864.732 34.3583 866.679 37.8617C868.681 41.3652 869.682 45.4526 869.682 50.1238ZM855.084 46.3701C855.084 43.9233 854.25 41.9769 852.581 40.531C850.913 39.0852 848.828 38.3622 846.325 38.3622C843.934 38.3622 841.904 39.0574 840.236 40.4476C838.623 41.8379 837.622 43.812 837.233 46.3701H855.084Z" fill="white"/>
<path d="M787.128 15.5899C793.301 15.5899 798.695 16.8133 803.31 19.2602C807.926 21.7071 811.485 25.1549 813.988 29.6037C816.546 33.997 817.825 39.0853 817.825 44.8688C817.825 50.5967 816.546 55.6851 813.988 60.1339C811.485 64.5827 807.898 68.0306 803.227 70.4774C798.611 72.9243 793.245 74.1477 787.128 74.1477H765.189V15.5899H787.128ZM786.21 61.8022C791.604 61.8022 795.803 60.3285 798.806 57.3812C801.809 54.4338 803.31 50.263 803.31 44.8688C803.31 39.4746 801.809 35.276 798.806 32.273C795.803 29.2701 791.604 27.7686 786.21 27.7686H779.454V61.8022H786.21Z" fill="white"/>
<path d="M739.579 62.0521V74.1473H732.322C727.15 74.1473 723.118 72.8961 720.227 70.3936C717.335 67.8355 715.889 63.6926 715.889 57.9647V39.4464H710.217V27.6014H715.889V16.2568H730.153V27.6014H739.496V39.4464H730.153V58.1315C730.153 59.5218 730.487 60.5228 731.154 61.1345C731.821 61.7462 732.934 62.0521 734.491 62.0521H739.579Z" fill="white"/>
<path d="M706.928 39.4464H699.254V74.1473H684.99V39.4464H679.818V27.6013H684.99V26.2667C684.99 20.5388 686.631 16.2012 689.912 13.2538C693.193 10.2509 698.003 8.74939 704.343 8.74939C705.399 8.74939 706.178 8.77719 706.678 8.8328V20.9281C703.953 20.7613 702.035 21.1505 700.923 22.0959C699.81 23.0413 699.254 24.7374 699.254 27.1843V27.6013H706.928V39.4464Z" fill="white"/>
<path d="M651.649 74.8149C647.089 74.8149 642.973 73.8417 639.303 71.8953C635.689 69.949 632.825 67.1684 630.711 63.5538C628.654 59.9391 627.625 55.7127 627.625 50.8746C627.625 46.0921 628.682 41.8935 630.795 38.2788C632.908 34.6085 635.8 31.8002 639.47 29.8538C643.14 27.9074 647.255 26.9343 651.816 26.9343C656.376 26.9343 660.491 27.9074 664.161 29.8538C667.831 31.8002 670.723 34.6085 672.836 38.2788C674.95 41.8935 676.006 46.0921 676.006 50.8746C676.006 55.6571 674.922 59.8835 672.753 63.5538C670.64 67.1684 667.72 69.949 663.994 71.8953C660.324 73.8417 656.209 74.8149 651.649 74.8149ZM651.649 62.4694C654.374 62.4694 656.681 61.4684 658.572 59.4664C660.519 57.4644 661.492 54.6005 661.492 50.8746C661.492 47.1487 660.546 44.2847 658.656 42.2828C656.82 40.2808 654.54 39.2798 651.816 39.2798C649.035 39.2798 646.727 40.2808 644.892 42.2828C643.057 44.2291 642.139 47.0931 642.139 50.8746C642.139 54.6005 643.029 57.4644 644.809 59.4664C646.644 61.4684 648.924 62.4694 651.649 62.4694Z" fill="white"/>
<path d="M602.869 74.8149C598.81 74.8149 595.195 74.1198 592.025 72.7295C588.856 71.3392 586.353 69.4485 584.518 67.0572C582.683 64.6104 581.654 61.8854 581.432 58.8825H595.529C595.696 60.4952 596.446 61.802 597.781 62.803C599.116 63.804 600.756 64.3045 602.703 64.3045C604.482 64.3045 605.845 63.9708 606.79 63.3035C607.791 62.5806 608.292 61.663 608.292 60.5508C608.292 59.2161 607.596 58.243 606.206 57.6313C604.816 56.9639 602.564 56.241 599.449 55.4624C596.113 54.6839 593.332 53.8775 591.108 53.0434C588.883 52.1536 586.965 50.7912 585.352 48.956C583.739 47.0653 582.933 44.535 582.933 41.3652C582.933 38.6959 583.656 36.2768 585.102 34.108C586.603 31.8836 588.772 30.1319 591.608 28.8528C594.5 27.5738 597.92 26.9343 601.868 26.9343C607.708 26.9343 612.295 28.3801 615.632 31.2719C619.024 34.1636 620.971 38.0008 621.471 42.7833H608.292C608.069 41.1705 607.346 39.8915 606.123 38.9461C604.955 38.0008 603.398 37.5281 601.451 37.5281C599.783 37.5281 598.504 37.8617 597.614 38.5291C596.725 39.1408 596.28 40.0027 596.28 41.1149C596.28 42.4496 596.975 43.4506 598.365 44.1179C599.811 44.7852 602.035 45.4526 605.038 46.1199C608.486 47.0096 611.294 47.8994 613.463 48.7892C615.632 49.6233 617.523 51.0136 619.136 52.96C620.804 54.8507 621.666 57.4088 621.721 60.6342C621.721 63.3591 620.943 65.806 619.386 67.9748C617.884 70.088 615.688 71.7563 612.796 72.9797C609.96 74.2032 606.651 74.8149 602.869 74.8149Z" fill="white"/>
<path d="M552.018 74.8149C547.458 74.8149 543.343 73.8417 539.672 71.8953C536.058 69.949 533.194 67.1684 531.081 63.5538C529.023 59.9391 527.994 55.7127 527.994 50.8746C527.994 46.0921 529.051 41.8935 531.164 38.2788C533.277 34.6085 536.169 31.8002 539.839 29.8538C543.509 27.9074 547.625 26.9343 552.185 26.9343C556.745 26.9343 560.86 27.9074 564.53 29.8538C568.201 31.8002 571.092 34.6085 573.205 38.2788C575.319 41.8935 576.375 46.0921 576.375 50.8746C576.375 55.6571 575.291 59.8835 573.122 63.5538C571.009 67.1684 568.089 69.949 564.363 71.8953C560.693 73.8417 556.578 74.8149 552.018 74.8149ZM552.018 62.4694C554.743 62.4694 557.051 61.4684 558.941 59.4664C560.888 57.4644 561.861 54.6005 561.861 50.8746C561.861 47.1487 560.916 44.2847 559.025 42.2828C557.19 40.2808 554.91 39.2798 552.185 39.2798C549.404 39.2798 547.096 40.2808 545.261 42.2828C543.426 44.2291 542.508 47.0931 542.508 50.8746C542.508 54.6005 543.398 57.4644 545.178 59.4664C547.013 61.4684 549.293 62.4694 552.018 62.4694Z" fill="white"/>
<path d="M509.42 35.3588C511.089 32.8007 513.174 30.7987 515.677 29.3529C518.179 27.8514 520.96 27.1006 524.018 27.1006V42.1989H520.098C516.538 42.1989 513.869 42.9774 512.09 44.5345C510.31 46.036 509.42 48.7053 509.42 52.5424V74.1471H495.156V27.6011H509.42V35.3588Z" fill="white"/>
<path d="M441.812 50.8746C441.812 46.0365 442.786 41.8101 444.732 38.1954C446.734 34.5807 449.487 31.8002 452.99 29.8538C456.549 27.9074 460.609 26.9343 465.169 26.9343C471.008 26.9343 475.874 28.4636 479.767 31.5221C483.715 34.5807 486.301 38.8905 487.524 44.4516H472.343C471.064 40.8925 468.589 39.113 464.919 39.113C462.305 39.113 460.22 40.1418 458.662 42.1993C457.105 44.2013 456.327 47.0931 456.327 50.8746C456.327 54.6561 457.105 57.5756 458.662 59.6332C460.22 61.6352 462.305 62.6362 464.919 62.6362C468.589 62.6362 471.064 60.8567 472.343 57.2976H487.524C486.301 62.7474 483.715 67.0294 479.767 70.1436C475.818 73.2578 470.952 74.8149 465.169 74.8149C460.609 74.8149 456.549 73.8417 452.99 71.8953C449.487 69.949 446.734 67.1684 444.732 63.5538C442.786 59.9391 441.812 55.7127 441.812 50.8746Z" fill="white"/>
<path d="M427.219 22.7634C424.717 22.7634 422.659 22.0405 421.047 20.5946C419.489 19.0932 418.711 17.258 418.711 15.0892C418.711 12.8648 419.489 11.0296 421.047 9.58377C422.659 8.08228 424.717 7.33154 427.219 7.33154C429.666 7.33154 431.668 8.08228 433.225 9.58377C434.838 11.0296 435.644 12.8648 435.644 15.0892C435.644 17.258 434.838 19.0932 433.225 20.5946C431.668 22.0405 429.666 22.7634 427.219 22.7634ZM434.31 27.6016V74.1475H420.046V27.6016H434.31Z" fill="white"/>
<path d="M409.79 15.5899V74.1477H395.526V39.0297L382.43 74.1477H370.918L357.739 38.9463V74.1477H343.475V15.5899H360.325L376.757 56.1299L393.024 15.5899H409.79Z" fill="white"/>
</svg>
