<svg width="1543" height="266" viewBox="0 0 1543 266" fill="none" xmlns="http://www.w3.org/2000/svg">
<path d="M0 5H127.5V125H0V5Z" fill="#F14F21"/>
<path d="M142.5 5H270V125H142.5V5Z" fill="#7EB900"/>
<path d="M0 140H127.5V260H0V140Z" fill="#00A3EE"/>
<path d="M142.5 140H270V260H142.5V140Z" fill="#FFB901"/>
<path d="M99.9263 96.5176H85.9077V58.8125C85.9077 57.2012 85.9224 55.6191 85.9517 54.0664C85.981 52.5137 86.0249 50.7705 86.0835 48.8369H85.7319C85.4097 49.8037 85.1167 50.6826 84.853 51.4736C84.5894 52.2354 84.3403 52.9678 84.106 53.6709L69.3403 96.5176H57.7388L42.7095 54.1104C42.4165 53.2607 42.1675 52.499 41.9624 51.8252C41.7866 51.1514 41.4937 50.1553 41.0835 48.8369H40.688C40.7759 51.415 40.8345 53.7148 40.8638 55.7363C40.8931 57.7578 40.9077 59.7354 40.9077 61.6689V96.5176H27.8999V33.5H48.9058L61.7817 70.8535C62.2505 72.1719 62.6313 73.3438 62.9243 74.3691C63.2173 75.3652 63.5835 76.6104 64.0229 78.1045H64.2866C64.814 76.5225 65.2241 75.2773 65.5171 74.3691C65.8394 73.4609 66.2642 72.2598 66.7915 70.7656L79.6675 33.5H99.9263V96.5176Z" fill="white"/>
<path d="M178.5 96.5176V33.5H200.824C212.016 33.5 220.409 36.0635 226.005 41.1904C231.601 46.2881 234.398 53.9639 234.398 64.2178C234.398 74.0322 231.337 81.8691 225.214 87.7285C219.12 93.5879 210.99 96.5176 200.824 96.5176H178.5ZM192.694 45.2773V84.7402H199.726C205.878 84.7402 210.697 82.9238 214.184 79.291C217.699 75.6289 219.457 70.6631 219.457 64.3936C219.457 58.4463 217.714 53.7734 214.228 50.375C210.771 46.9766 205.907 45.2773 199.638 45.2773H192.694Z" fill="white"/>
<path d="M91.7031 217.178C89.4766 221.66 86.0342 225.337 81.376 228.208C76.7471 231.05 71.5029 232.471 65.6436 232.471C55.8584 232.471 48.0215 229.761 42.1328 224.341C36.2441 218.892 33.2998 211.187 33.2998 201.226C33.2998 190.943 36.2002 182.725 42.001 176.573C47.8311 170.391 55.3896 167.3 64.6768 167.3C71.3564 167.3 76.8789 168.794 81.2441 171.782C85.6387 174.741 89.0078 178.828 91.3516 184.043L78.7832 188.745C77.3477 185.552 75.502 183.252 73.2461 181.846C71.0195 180.41 68.251 179.693 64.9404 179.693C60.0772 179.693 56.0781 181.626 52.9434 185.493C49.8086 189.331 48.2412 194.239 48.2412 200.215C48.2412 206.514 49.8525 211.363 53.0752 214.761C56.2979 218.159 60.6631 219.859 66.1709 219.859C69.2178 219.859 71.8838 219.156 74.1689 217.749C76.4541 216.343 78.2266 214.263 79.4863 211.509L91.7031 217.178Z" fill="white"/>
<path d="M232.419 205.166C232.419 213.193 230.178 219.682 225.695 224.633C221.213 229.555 214.636 232.016 205.964 232.016C197.556 232.016 191.169 229.599 186.804 224.765C182.468 219.902 180.3 213.545 180.3 205.693V167.9H194.538V205.166C194.538 209.882 195.637 213.471 197.834 215.932C200.031 218.364 202.917 219.58 206.491 219.58C209.978 219.58 212.805 218.408 214.973 216.064C217.141 213.691 218.225 210.234 218.225 205.693V167.9H232.419V205.166Z" fill="white"/>
<path d="M407.549 108H391.973V66.1055C391.973 64.3151 391.989 62.5573 392.021 60.832C392.054 59.1068 392.103 57.1699 392.168 55.0215H391.777C391.419 56.0957 391.094 57.0723 390.801 57.9512C390.508 58.7975 390.231 59.6113 389.971 60.3926L373.564 108H360.674L343.975 60.8809C343.649 59.9368 343.372 59.0905 343.145 58.3418C342.949 57.5931 342.624 56.4863 342.168 55.0215H341.729C341.826 57.8861 341.891 60.4414 341.924 62.6875C341.956 64.9336 341.973 67.1309 341.973 69.2793V108H327.52V37.9805H350.859L365.166 79.4844C365.687 80.9492 366.11 82.2513 366.436 83.3906C366.761 84.4974 367.168 85.8809 367.656 87.541H367.949C368.535 85.7832 368.991 84.3997 369.316 83.3906C369.674 82.3815 370.146 81.0469 370.732 79.3867L385.039 37.9805H407.549V108ZM428.545 51.457C425.876 51.457 423.695 50.6432 422.002 49.0156C420.309 47.3555 419.463 45.3047 419.463 42.8633C419.463 40.3242 420.309 38.2572 422.002 36.6621C423.695 35.0671 425.876 34.2695 428.545 34.2695C431.247 34.2695 433.428 35.0671 435.088 36.6621C436.781 38.2572 437.627 40.3242 437.627 42.8633C437.627 45.4023 436.781 47.4694 435.088 49.0645C433.428 50.6595 431.247 51.457 428.545 51.457ZM436.26 108H420.83V58H436.26V108ZM493.438 96.4277C491.191 100.627 488.132 103.817 484.258 105.998C480.417 108.146 476.006 109.221 471.025 109.221C463.018 109.221 456.751 106.926 452.227 102.336C447.734 97.7135 445.488 91.6751 445.488 84.2207C445.488 75.7246 447.979 69.0352 452.959 64.1523C457.939 59.2695 464.417 56.8281 472.393 56.8281C477.308 56.8281 481.637 57.9837 485.381 60.2949C489.124 62.5736 491.647 65.9102 492.949 70.3047L480.449 74.9434C479.473 72.8275 478.285 71.2812 476.885 70.3047C475.518 69.2956 473.825 68.791 471.807 68.791C468.779 68.791 466.24 69.9629 464.189 72.3066C462.171 74.6178 461.162 78.2474 461.162 83.1953C461.162 87.8828 462.122 91.3171 464.043 93.498C465.964 95.679 468.405 96.7695 471.367 96.7695C473.613 96.7695 475.501 96.2975 477.031 95.3535C478.594 94.377 480.026 92.8307 481.328 90.7148L493.438 96.4277ZM534.6 71.4766C533.525 71.1185 532.467 70.8581 531.426 70.6953C530.384 70.5 529.359 70.4023 528.35 70.4023C525.29 70.4023 522.799 71.6393 520.879 74.1133C518.958 76.5547 517.998 79.8913 517.998 84.123V108H502.568V58H517.998V66.8867H518.193C519.398 63.6315 521.107 61.1901 523.32 59.5625C525.534 57.9349 528.187 57.1211 531.279 57.1211C532.484 57.1211 533.623 57.2188 534.697 57.4141C535.804 57.5768 536.895 57.8698 537.969 58.293L534.6 71.4766ZM568.193 109.221C560.088 109.221 553.545 106.877 548.564 102.189C543.617 97.502 541.159 91.1706 541.191 83.1953C541.224 75.2526 543.714 68.8724 548.662 64.0547C553.643 59.2044 560.381 56.7793 568.877 56.7793C577.243 56.7793 583.802 59.1882 588.555 64.0059C593.307 68.8236 595.684 74.9271 595.684 82.3164C595.684 90.3242 593.112 96.8184 587.969 101.799C582.826 106.747 576.234 109.221 568.193 109.221ZM568.682 97.209C572.458 97.209 575.273 95.8418 577.129 93.1074C579.017 90.373 579.961 86.8737 579.961 82.6094C579.961 78.3451 579.017 74.9759 577.129 72.502C575.241 70.028 572.393 68.791 568.584 68.791C564.873 68.791 561.992 70.1257 559.941 72.7949C557.891 75.4316 556.865 78.8333 556.865 83C556.865 87.1667 557.842 90.5846 559.795 93.2539C561.781 95.8906 564.743 97.209 568.682 97.209ZM601.445 101.604L608.721 92.2285C611.26 94.6048 613.604 96.2324 615.752 97.1113C617.9 97.9902 620.098 98.4297 622.344 98.4297C624.59 98.4297 626.299 98.0553 627.471 97.3066C628.675 96.5254 629.277 95.3861 629.277 93.8887C629.277 92.7493 628.708 91.7891 627.568 91.0078C626.429 90.2266 624.59 89.6732 622.051 89.3477C615.41 88.3711 610.674 86.5482 607.842 83.8789C605.01 81.2096 603.594 77.7266 603.594 73.4297C603.594 68.7096 605.319 64.7546 608.77 61.5645C612.253 58.3743 616.956 56.7793 622.881 56.7793C626.396 56.7793 629.717 57.2676 632.842 58.2441C635.967 59.2207 638.636 60.7018 640.85 62.6875L633.379 71.623C631.458 70.1908 629.652 69.1491 627.959 68.498C626.299 67.8145 624.557 67.4727 622.734 67.4727C620.684 67.4727 619.186 67.847 618.242 68.5957C617.331 69.3118 616.875 70.3372 616.875 71.6719C616.875 72.8112 617.461 73.7715 618.633 74.5527C619.805 75.334 621.872 75.8874 624.834 76.2129C630.693 76.8965 635.137 78.5566 638.164 81.1934C641.224 83.7975 642.754 87.5085 642.754 92.3262C642.754 97.4694 640.801 101.571 636.895 104.631C633.021 107.691 628.089 109.221 622.1 109.221C618.031 109.221 614.189 108.586 610.576 107.316C606.963 106.047 603.919 104.143 601.445 101.604ZM675.518 109.221C667.412 109.221 660.869 106.877 655.889 102.189C650.941 97.502 648.483 91.1706 648.516 83.1953C648.548 75.2526 651.038 68.8724 655.986 64.0547C660.967 59.2044 667.705 56.7793 676.201 56.7793C684.567 56.7793 691.126 59.1882 695.879 64.0059C700.632 68.8236 703.008 74.9271 703.008 82.3164C703.008 90.3242 700.436 96.8184 695.293 101.799C690.15 106.747 683.558 109.221 675.518 109.221ZM676.006 97.209C679.782 97.209 682.598 95.8418 684.453 93.1074C686.341 90.373 687.285 86.8737 687.285 82.6094C687.285 78.3451 686.341 74.9759 684.453 72.502C682.565 70.028 679.717 68.791 675.908 68.791C672.197 68.791 669.316 70.1257 667.266 72.7949C665.215 75.4316 664.189 78.8333 664.189 83C664.189 87.1667 665.166 90.5846 667.119 93.2539C669.105 95.8906 672.067 97.209 676.006 97.209ZM742.461 46.8184C741.452 46.1348 740.475 45.6302 739.531 45.3047C738.62 44.9792 737.692 44.8164 736.748 44.8164C735.055 44.8164 733.753 45.3535 732.842 46.4277C731.963 47.502 731.523 49.1458 731.523 51.3594V58H742.949V69.377H731.523V108H716.143V69.377H707.744V58H716.143V51.6523C716.143 45.5651 717.803 40.9102 721.123 37.6875C724.443 34.4323 729.277 32.8047 735.625 32.8047C737.871 32.8047 740.003 33.0651 742.021 33.5859C744.072 34.0742 746.156 34.8555 748.271 35.9297L742.461 46.8184ZM783.428 104.436C781.898 105.835 780.01 106.991 777.764 107.902C775.518 108.781 773.076 109.221 770.439 109.221C764.71 109.221 760.462 107.902 757.695 105.266C754.928 102.629 753.545 98.6901 753.545 93.4492V69.377H745.439V58H753.545V45.2559L768.926 42.5215V58H780.938V69.377H768.926V93.3516C768.926 94.8815 769.251 96.0371 769.902 96.8184C770.586 97.5996 771.53 97.9902 772.734 97.9902C773.451 97.9902 774.167 97.8763 774.883 97.6484C775.632 97.388 776.413 96.8835 777.227 96.1348L783.428 104.436ZM816.094 108V37.9805H840.898C853.333 37.9805 862.66 40.8288 868.877 46.5254C875.094 52.1895 878.203 60.7181 878.203 72.1113C878.203 83.0163 874.801 91.724 867.998 98.2344C861.227 104.745 852.194 108 840.898 108H816.094ZM831.865 51.0664V94.9141H839.678C846.514 94.9141 851.868 92.8958 855.742 88.8594C859.648 84.7904 861.602 79.2728 861.602 72.3066C861.602 65.6986 859.665 60.5065 855.791 56.7305C851.95 52.9544 846.546 51.0664 839.58 51.0664H831.865ZM932.256 87.3945H899.639C899.867 90.6172 900.973 93.1888 902.959 95.1094C904.977 96.9974 907.614 97.9414 910.869 97.9414C912.855 97.9414 914.661 97.4531 916.289 96.4766C917.949 95.5 919.43 94.0352 920.732 92.082L932.061 98.5273C929.196 102.238 925.99 104.956 922.441 106.682C918.893 108.374 914.954 109.221 910.625 109.221C902.357 109.221 895.911 106.991 891.289 102.531C886.667 98.0391 884.355 91.7891 884.355 83.7812C884.355 75.4805 886.764 68.9049 891.582 64.0547C896.4 59.2044 902.324 56.7793 909.355 56.7793C916.647 56.7793 922.279 58.944 926.25 63.2734C930.254 67.6029 932.256 74.1133 932.256 82.8047V87.3945ZM917.949 77.6289C917.949 74.2109 917.217 71.6556 915.752 69.9629C914.32 68.2376 912.383 67.375 909.941 67.375C907.012 67.375 904.635 68.3516 902.812 70.3047C901.022 72.2578 899.932 74.6992 899.541 77.6289H917.949ZM990.41 58L971.807 108H954.229L936.504 58H952.617L961.455 86.9062C961.911 88.3385 962.269 89.6243 962.529 90.7637C962.822 91.903 963.115 93.1888 963.408 94.6211H963.604C963.929 93.1888 964.238 91.9355 964.531 90.8613C964.824 89.7546 965.182 88.5339 965.605 87.1992L974.688 58H990.41ZM1042.12 87.3945H1009.5C1009.73 90.6172 1010.84 93.1888 1012.82 95.1094C1014.84 96.9974 1017.48 97.9414 1020.73 97.9414C1022.72 97.9414 1024.52 97.4531 1026.15 96.4766C1027.81 95.5 1029.29 94.0352 1030.6 92.082L1041.92 98.5273C1039.06 102.238 1035.85 104.956 1032.3 106.682C1028.76 108.374 1024.82 109.221 1020.49 109.221C1012.22 109.221 1005.77 106.991 1001.15 102.531C996.53 98.0391 994.219 91.7891 994.219 83.7812C994.219 75.4805 996.628 68.9049 1001.45 64.0547C1006.26 59.2044 1012.19 56.7793 1019.22 56.7793C1026.51 56.7793 1032.14 58.944 1036.11 63.2734C1040.12 67.6029 1042.12 74.1133 1042.12 82.8047V87.3945ZM1027.81 77.6289C1027.81 74.2109 1027.08 71.6556 1025.62 69.9629C1024.18 68.2376 1022.25 67.375 1019.8 67.375C1016.88 67.375 1014.5 68.3516 1012.68 70.3047C1010.89 72.2578 1009.79 74.6992 1009.4 77.6289H1027.81ZM1051.59 108V33.9766H1067.02V108H1051.59ZM1103.06 109.221C1094.95 109.221 1088.41 106.877 1083.43 102.189C1078.48 97.502 1076.02 91.1706 1076.05 83.1953C1076.09 75.2526 1078.58 68.8724 1083.53 64.0547C1088.51 59.2044 1095.24 56.7793 1103.74 56.7793C1112.11 56.7793 1118.67 59.1882 1123.42 64.0059C1128.17 68.8236 1130.55 74.9271 1130.55 82.3164C1130.55 90.3242 1127.98 96.8184 1122.83 101.799C1117.69 106.747 1111.1 109.221 1103.06 109.221ZM1103.54 97.209C1107.32 97.209 1110.14 95.8418 1111.99 93.1074C1113.88 90.373 1114.82 86.8737 1114.82 82.6094C1114.82 78.3451 1113.88 74.9759 1111.99 72.502C1110.1 70.028 1107.26 68.791 1103.45 68.791C1099.74 68.791 1096.86 70.1257 1094.8 72.7949C1092.75 75.4316 1091.73 78.8333 1091.73 83C1091.73 87.1667 1092.71 90.5846 1094.66 93.2539C1096.64 95.8906 1099.61 97.209 1103.54 97.209ZM1155.21 103.752H1155.01V130.998H1139.58V58H1155.01V64.4941H1155.21C1157.13 61.9225 1159.49 60.002 1162.29 58.7324C1165.08 57.4303 1168.21 56.7793 1171.66 56.7793C1178.17 56.7793 1183.25 58.944 1186.89 63.2734C1190.54 67.6029 1192.36 73.7064 1192.36 81.584C1192.36 89.9173 1190.25 96.6068 1186.02 101.652C1181.78 106.698 1176.27 109.221 1169.46 109.221C1166.44 109.221 1163.7 108.765 1161.26 107.854C1158.82 106.942 1156.8 105.575 1155.21 103.752ZM1154.77 81.0957V86.2715C1154.77 89.4941 1155.76 92.1146 1157.74 94.1328C1159.73 96.151 1162.24 97.1602 1165.26 97.1602C1168.71 97.1602 1171.45 95.8255 1173.47 93.1562C1175.52 90.487 1176.54 86.6947 1176.54 81.7793C1176.54 77.4499 1175.63 74.2109 1173.81 72.0625C1172.02 69.8815 1169.45 68.791 1166.09 68.791C1162.87 68.791 1160.17 69.9141 1157.99 72.1602C1155.84 74.4062 1154.77 77.3848 1154.77 81.0957ZM1246.32 87.3945H1213.7C1213.93 90.6172 1215.04 93.1888 1217.02 95.1094C1219.04 96.9974 1221.68 97.9414 1224.93 97.9414C1226.92 97.9414 1228.72 97.4531 1230.35 96.4766C1232.01 95.5 1233.49 94.0352 1234.79 92.082L1246.12 98.5273C1243.26 102.238 1240.05 104.956 1236.5 106.682C1232.96 108.374 1229.02 109.221 1224.69 109.221C1216.42 109.221 1209.97 106.991 1205.35 102.531C1200.73 98.0391 1198.42 91.7891 1198.42 83.7812C1198.42 75.4805 1200.83 68.9049 1205.64 64.0547C1210.46 59.2044 1216.39 56.7793 1223.42 56.7793C1230.71 56.7793 1236.34 58.944 1240.31 63.2734C1244.32 67.6029 1246.32 74.1133 1246.32 82.8047V87.3945ZM1232.01 77.6289C1232.01 74.2109 1231.28 71.6556 1229.81 69.9629C1228.38 68.2376 1226.45 67.375 1224 67.375C1221.07 67.375 1218.7 68.3516 1216.88 70.3047C1215.08 72.2578 1213.99 74.6992 1213.6 77.6289H1232.01ZM1287.82 71.4766C1286.75 71.1185 1285.69 70.8581 1284.65 70.6953C1283.61 70.5 1282.58 70.4023 1281.57 70.4023C1278.51 70.4023 1276.02 71.6393 1274.1 74.1133C1272.18 76.5547 1271.22 79.8913 1271.22 84.123V108H1255.79V58H1271.22V66.8867H1271.42C1272.62 63.6315 1274.33 61.1901 1276.54 59.5625C1278.76 57.9349 1281.41 57.1211 1284.5 57.1211C1285.71 57.1211 1286.85 57.2188 1287.92 57.4141C1289.03 57.5768 1290.12 57.8698 1291.19 58.293L1287.82 71.4766ZM1294.12 101.604L1301.4 92.2285C1303.94 94.6048 1306.28 96.2324 1308.43 97.1113C1310.58 97.9902 1312.77 98.4297 1315.02 98.4297C1317.27 98.4297 1318.97 98.0553 1320.15 97.3066C1321.35 96.5254 1321.95 95.3861 1321.95 93.8887C1321.95 92.7493 1321.38 91.7891 1320.24 91.0078C1319.1 90.2266 1317.27 89.6732 1314.73 89.3477C1308.09 88.3711 1303.35 86.5482 1300.52 83.8789C1297.69 81.2096 1296.27 77.7266 1296.27 73.4297C1296.27 68.7096 1297.99 64.7546 1301.45 61.5645C1304.93 58.3743 1309.63 56.7793 1315.56 56.7793C1319.07 56.7793 1322.39 57.2676 1325.52 58.2441C1328.64 59.2207 1331.31 60.7018 1333.53 62.6875L1326.05 71.623C1324.13 70.1908 1322.33 69.1491 1320.63 68.498C1318.97 67.8145 1317.23 67.4727 1315.41 67.4727C1313.36 67.4727 1311.86 67.847 1310.92 68.5957C1310.01 69.3118 1309.55 70.3372 1309.55 71.6719C1309.55 72.8112 1310.14 73.7715 1311.31 74.5527C1312.48 75.334 1314.55 75.8874 1317.51 76.2129C1323.37 76.8965 1327.81 78.5566 1330.84 81.1934C1333.9 83.7975 1335.43 87.5085 1335.43 92.3262C1335.43 97.4694 1333.48 101.571 1329.57 104.631C1325.7 107.691 1320.76 109.221 1314.78 109.221C1310.71 109.221 1306.87 108.586 1303.25 107.316C1299.64 106.047 1296.6 104.143 1294.12 101.604ZM388.018 225.229C385.544 230.209 381.719 234.294 376.543 237.484C371.4 240.642 365.573 242.221 359.062 242.221C348.19 242.221 339.482 239.21 332.939 233.188C326.396 227.133 323.125 218.572 323.125 207.504C323.125 196.078 326.348 186.947 332.793 180.111C339.271 173.243 347.669 169.809 357.988 169.809C365.41 169.809 371.546 171.469 376.396 174.789C381.279 178.077 385.023 182.618 387.627 188.412L373.662 193.637C372.067 190.089 370.016 187.533 367.51 185.971C365.036 184.376 361.96 183.578 358.281 183.578C352.878 183.578 348.434 185.727 344.951 190.023C341.468 194.288 339.727 199.74 339.727 206.381C339.727 213.38 341.517 218.767 345.098 222.543C348.678 226.319 353.529 228.207 359.648 228.207C363.034 228.207 365.996 227.426 368.535 225.863C371.074 224.301 373.044 221.99 374.443 218.93L388.018 225.229ZM421.807 242.221C413.701 242.221 407.158 239.877 402.178 235.189C397.23 230.502 394.772 224.171 394.805 216.195C394.837 208.253 397.327 201.872 402.275 197.055C407.256 192.204 413.994 189.779 422.49 189.779C430.856 189.779 437.415 192.188 442.168 197.006C446.921 201.824 449.297 207.927 449.297 215.316C449.297 223.324 446.725 229.818 441.582 234.799C436.439 239.747 429.847 242.221 421.807 242.221ZM422.295 230.209C426.071 230.209 428.887 228.842 430.742 226.107C432.63 223.373 433.574 219.874 433.574 215.609C433.574 211.345 432.63 207.976 430.742 205.502C428.854 203.028 426.006 201.791 422.197 201.791C418.486 201.791 415.605 203.126 413.555 205.795C411.504 208.432 410.479 211.833 410.479 216C410.479 220.167 411.455 223.585 413.408 226.254C415.394 228.891 418.356 230.209 422.295 230.209ZM537.725 241H522.344V212.094C522.344 208.676 521.676 206.12 520.342 204.428C519.007 202.702 517.005 201.84 514.336 201.84C511.797 201.84 509.73 202.914 508.135 205.062C506.54 207.178 505.742 209.831 505.742 213.021V241H490.312V212.191C490.312 208.741 489.661 206.153 488.359 204.428C487.057 202.702 485.088 201.84 482.451 201.84C479.814 201.84 477.699 202.865 476.104 204.916C474.541 206.934 473.76 209.701 473.76 213.217V241H458.33V191H473.76V197.25H473.955C475.55 195.069 477.78 193.279 480.645 191.879C483.542 190.479 486.52 189.779 489.58 189.779C493.193 189.779 496.221 190.512 498.662 191.977C501.136 193.409 502.943 195.297 504.082 197.641C506.296 195.004 508.851 193.035 511.748 191.732C514.645 190.43 517.868 189.779 521.416 189.779C526.266 189.779 530.189 191.488 533.184 194.906C536.211 198.324 537.725 203.321 537.725 209.896V241ZM628.35 241H612.969V212.094C612.969 208.676 612.301 206.12 610.967 204.428C609.632 202.702 607.63 201.84 604.961 201.84C602.422 201.84 600.355 202.914 598.76 205.062C597.165 207.178 596.367 209.831 596.367 213.021V241H580.938V212.191C580.938 208.741 580.286 206.153 578.984 204.428C577.682 202.702 575.713 201.84 573.076 201.84C570.439 201.84 568.324 202.865 566.729 204.916C565.166 206.934 564.385 209.701 564.385 213.217V241H548.955V191H564.385V197.25H564.58C566.175 195.069 568.405 193.279 571.27 191.879C574.167 190.479 577.145 189.779 580.205 189.779C583.818 189.779 586.846 190.512 589.287 191.977C591.761 193.409 593.568 195.297 594.707 197.641C596.921 195.004 599.476 193.035 602.373 191.732C605.27 190.43 608.493 189.779 612.041 189.779C616.891 189.779 620.814 191.488 623.809 194.906C626.836 198.324 628.35 203.321 628.35 209.896V241ZM687.09 240.951H671.66V234.604H671.465C669.902 236.882 667.705 238.721 664.873 240.121C662.074 241.488 659.258 242.172 656.426 242.172C650.632 242.172 646.237 240.414 643.242 236.898C640.28 233.383 638.799 228.419 638.799 222.006V190.951H654.18V219.662C654.18 222.852 654.863 225.408 656.23 227.328C657.598 229.216 659.632 230.16 662.334 230.16C665.036 230.16 667.266 229.151 669.023 227.133C670.781 225.115 671.66 222.559 671.66 219.467V190.951H687.09V240.951ZM747.441 241H732.061V212.289C732.061 209.099 731.377 206.56 730.01 204.672C728.643 202.751 726.608 201.791 723.906 201.791C721.204 201.791 718.975 202.8 717.217 204.818C715.459 206.837 714.58 209.392 714.58 212.484V241H699.15V191H714.58V197.348H714.775C716.403 195.069 718.665 193.246 721.562 191.879C724.46 190.479 727.373 189.779 730.303 189.779C735.934 189.779 740.199 191.537 743.096 195.053C745.993 198.568 747.441 203.533 747.441 209.945V241ZM766.24 184.457C763.571 184.457 761.39 183.643 759.697 182.016C758.005 180.355 757.158 178.305 757.158 175.863C757.158 173.324 758.005 171.257 759.697 169.662C761.39 168.067 763.571 167.27 766.24 167.27C768.942 167.27 771.123 168.067 772.783 169.662C774.476 171.257 775.322 173.324 775.322 175.863C775.322 178.402 774.476 180.469 772.783 182.064C771.123 183.66 768.942 184.457 766.24 184.457ZM773.955 241H758.525V191H773.955V241ZM819.658 237.436C818.128 238.835 816.24 239.991 813.994 240.902C811.748 241.781 809.307 242.221 806.67 242.221C800.941 242.221 796.693 240.902 793.926 238.266C791.159 235.629 789.775 231.69 789.775 226.449V202.377H781.67V191H789.775V178.256L805.156 175.521V191H817.168V202.377H805.156V226.352C805.156 227.882 805.482 229.037 806.133 229.818C806.816 230.6 807.76 230.99 808.965 230.99C809.681 230.99 810.397 230.876 811.113 230.648C811.862 230.388 812.643 229.883 813.457 229.135L819.658 237.436ZM877.275 191L855.693 248.373C853.74 253.549 851.104 257.52 847.783 260.287C844.495 263.087 840.312 264.486 835.234 264.486C832.858 264.486 830.547 264.193 828.301 263.607C826.055 263.054 824.004 262.143 822.148 260.873L829.229 250.912C830.303 251.661 831.165 252.149 831.816 252.377C832.5 252.605 833.2 252.719 833.916 252.719C835.381 252.719 836.585 252.377 837.529 251.693C838.506 251.042 839.32 250.001 839.971 248.568L842.705 242.465L822.979 191H839.678L849.15 220.639C849.508 221.745 849.801 222.82 850.029 223.861C850.257 224.87 850.501 226.026 850.762 227.328H850.957C851.217 226.059 851.494 224.952 851.787 224.008C852.08 223.031 852.406 221.941 852.764 220.736L861.553 191H877.275ZM915.068 184.457C912.399 184.457 910.218 183.643 908.525 182.016C906.833 180.355 905.986 178.305 905.986 175.863C905.986 173.324 906.833 171.257 908.525 169.662C910.218 168.067 912.399 167.27 915.068 167.27C917.77 167.27 919.951 168.067 921.611 169.662C923.304 171.257 924.15 173.324 924.15 175.863C924.15 178.402 923.304 180.469 921.611 182.064C919.951 183.66 917.77 184.457 915.068 184.457ZM922.783 241H907.354V191H922.783V241ZM983.281 241H967.9V212.289C967.9 209.099 967.217 206.56 965.85 204.672C964.482 202.751 962.448 201.791 959.746 201.791C957.044 201.791 954.814 202.8 953.057 204.818C951.299 206.837 950.42 209.392 950.42 212.484V241H934.99V191H950.42V197.348H950.615C952.243 195.069 954.505 193.246 957.402 191.879C960.299 190.479 963.213 189.779 966.143 189.779C971.774 189.779 976.038 191.537 978.936 195.053C981.833 198.568 983.281 203.533 983.281 209.945V241ZM1076.59 212.387C1076.59 221.306 1074.1 228.516 1069.12 234.018C1064.14 239.486 1056.83 242.221 1047.2 242.221C1037.85 242.221 1030.76 239.535 1025.91 234.164C1021.09 228.76 1018.68 221.697 1018.68 212.973V170.98H1034.5V212.387C1034.5 217.628 1035.72 221.615 1038.16 224.35C1040.61 227.051 1043.81 228.402 1047.78 228.402C1051.66 228.402 1054.8 227.1 1057.21 224.496C1059.62 221.859 1060.82 218.018 1060.82 212.973V170.98H1076.59V212.387ZM1126.88 199.398L1103.3 229.232H1128.25V241H1084.16V232.602L1107.89 202.768H1085.48V191H1126.88V199.398ZM1151.2 236.361H1151.01V241H1135.58V166.977H1151.01V196.957H1151.2C1153.15 194.548 1155.51 192.758 1158.28 191.586C1161.05 190.382 1164.24 189.779 1167.85 189.779C1174.43 189.779 1179.49 191.993 1183.04 196.42C1186.59 200.847 1188.36 206.902 1188.36 214.584C1188.36 222.917 1186.28 229.607 1182.11 234.652C1177.98 239.698 1172.46 242.221 1165.56 242.221C1162.4 242.221 1159.62 241.732 1157.21 240.756C1154.83 239.779 1152.83 238.314 1151.2 236.361ZM1150.76 214.096V219.223C1150.76 222.38 1151.74 225.001 1153.69 227.084C1155.64 229.135 1158.17 230.16 1161.26 230.16C1164.84 230.16 1167.61 228.826 1169.56 226.156C1171.55 223.487 1172.54 219.695 1172.54 214.779C1172.54 210.71 1171.64 207.536 1169.85 205.258C1168.06 202.947 1165.48 201.791 1162.09 201.791C1158.87 201.791 1156.17 202.93 1153.98 205.209C1151.84 207.488 1150.76 210.45 1150.76 214.096ZM1242.31 220.395H1209.7C1209.93 223.617 1211.03 226.189 1213.02 228.109C1215.04 229.997 1217.67 230.941 1220.93 230.941C1222.91 230.941 1224.72 230.453 1226.35 229.477C1228.01 228.5 1229.49 227.035 1230.79 225.082L1242.12 231.527C1239.25 235.238 1236.05 237.956 1232.5 239.682C1228.95 241.374 1225.01 242.221 1220.68 242.221C1212.42 242.221 1205.97 239.991 1201.35 235.531C1196.73 231.039 1194.41 224.789 1194.41 216.781C1194.41 208.48 1196.82 201.905 1201.64 197.055C1206.46 192.204 1212.38 189.779 1219.41 189.779C1226.71 189.779 1232.34 191.944 1236.31 196.273C1240.31 200.603 1242.31 207.113 1242.31 215.805V220.395ZM1228.01 210.629C1228.01 207.211 1227.28 204.656 1225.81 202.963C1224.38 201.238 1222.44 200.375 1220 200.375C1217.07 200.375 1214.69 201.352 1212.87 203.305C1211.08 205.258 1209.99 207.699 1209.6 210.629H1228.01ZM1301.88 241H1283.18L1267.41 217.172H1267.22V241H1251.79V166.977H1267.22V213.168H1267.41L1282.99 191H1300.52L1283.09 214.486L1301.88 241ZM1316.24 184.457C1313.57 184.457 1311.39 183.643 1309.7 182.016C1308 180.355 1307.16 178.305 1307.16 175.863C1307.16 173.324 1308 171.257 1309.7 169.662C1311.39 168.067 1313.57 167.27 1316.24 167.27C1318.94 167.27 1321.12 168.067 1322.78 169.662C1324.48 171.257 1325.32 173.324 1325.32 175.863C1325.32 178.402 1324.48 180.469 1322.78 182.064C1321.12 183.66 1318.94 184.457 1316.24 184.457ZM1323.96 241H1308.53V191H1323.96V241ZM1332.89 234.604L1340.17 225.229C1342.71 227.605 1345.05 229.232 1347.2 230.111C1349.35 230.99 1351.54 231.43 1353.79 231.43C1356.04 231.43 1357.74 231.055 1358.92 230.307C1360.12 229.525 1360.72 228.386 1360.72 226.889C1360.72 225.749 1360.15 224.789 1359.01 224.008C1357.87 223.227 1356.04 222.673 1353.5 222.348C1346.86 221.371 1342.12 219.548 1339.29 216.879C1336.46 214.21 1335.04 210.727 1335.04 206.43C1335.04 201.71 1336.76 197.755 1340.21 194.564C1343.7 191.374 1348.4 189.779 1354.33 189.779C1357.84 189.779 1361.16 190.268 1364.29 191.244C1367.41 192.221 1370.08 193.702 1372.29 195.688L1364.82 204.623C1362.9 203.191 1361.1 202.149 1359.4 201.498C1357.74 200.814 1356 200.473 1354.18 200.473C1352.13 200.473 1350.63 200.847 1349.69 201.596C1348.78 202.312 1348.32 203.337 1348.32 204.672C1348.32 205.811 1348.91 206.771 1350.08 207.553C1351.25 208.334 1353.32 208.887 1356.28 209.213C1362.14 209.896 1366.58 211.557 1369.61 214.193C1372.67 216.798 1374.2 220.508 1374.2 225.326C1374.2 230.469 1372.25 234.571 1368.34 237.631C1364.47 240.691 1359.53 242.221 1353.54 242.221C1349.48 242.221 1345.63 241.586 1342.02 240.316C1338.41 239.047 1335.36 237.143 1332.89 234.604ZM1416.44 237.436C1414.91 238.835 1413.02 239.991 1410.77 240.902C1408.53 241.781 1406.08 242.221 1403.45 242.221C1397.72 242.221 1393.47 240.902 1390.7 238.266C1387.94 235.629 1386.55 231.69 1386.55 226.449V202.377H1378.45V191H1386.55V178.256L1401.93 175.521V191H1413.95V202.377H1401.93V226.352C1401.93 227.882 1402.26 229.037 1402.91 229.818C1403.59 230.6 1404.54 230.99 1405.74 230.99C1406.46 230.99 1407.17 230.876 1407.89 230.648C1408.64 230.388 1409.42 229.883 1410.23 229.135L1416.44 237.436ZM1465.75 241H1451.15V235.385H1450.96C1449.1 237.663 1446.92 239.372 1444.41 240.512C1441.94 241.651 1439.16 242.221 1436.06 242.221C1431.83 242.221 1428.17 240.919 1425.08 238.314C1421.99 235.678 1420.44 232.064 1420.44 227.475C1420.44 223.015 1421.92 219.288 1424.88 216.293C1427.85 213.266 1432.21 211.443 1437.97 210.824L1451.25 209.408V207.895C1451.25 205.453 1450.47 203.614 1448.91 202.377C1447.38 201.14 1445.46 200.521 1443.14 200.521C1440.83 200.521 1438.8 201.059 1437.04 202.133C1435.28 203.207 1433.69 204.802 1432.26 206.918L1421.95 200.766C1423.74 197.901 1426.61 195.362 1430.55 193.148C1434.49 190.902 1439.14 189.779 1444.51 189.779C1451.41 189.779 1456.67 191.553 1460.28 195.102C1463.93 198.65 1465.75 203.988 1465.75 211.117V241ZM1451.25 220.688V218.783L1441.29 219.76C1438.98 220.02 1437.29 220.671 1436.21 221.713C1435.17 222.722 1434.65 224.105 1434.65 225.863C1434.65 227.426 1435.23 228.728 1436.41 229.77C1437.58 230.779 1439.06 231.283 1440.85 231.283C1443.91 231.283 1446.4 230.29 1448.32 228.305C1450.27 226.286 1451.25 223.747 1451.25 220.688ZM1525.27 241H1509.89V212.289C1509.89 209.099 1509.21 206.56 1507.84 204.672C1506.47 202.751 1504.44 201.791 1501.74 201.791C1499.04 201.791 1496.81 202.8 1495.05 204.818C1493.29 206.837 1492.41 209.392 1492.41 212.484V241H1476.98V191H1492.41V197.348H1492.61C1494.24 195.069 1496.5 193.246 1499.39 191.879C1502.29 190.479 1505.21 189.779 1508.13 189.779C1513.77 189.779 1518.03 191.537 1520.93 195.053C1523.82 198.568 1525.27 203.533 1525.27 209.945V241Z" fill="white"/>
</svg>
