<svg width="1647" height="369" viewBox="0 0 1647 369" fill="none" xmlns="http://www.w3.org/2000/svg">
<path d="M0 0H183.761V173.639H0V0Z" fill="#F14F21"/>
<path d="M205.379 0H389.141V173.639H205.379V0Z" fill="#7EB900"/>
<path d="M0 195.344H183.761V368.984H0V195.344Z" fill="#00A3EE"/>
<path d="M205.379 195.344H389.141V368.984H205.379V195.344Z" fill="#FFB901"/>
<path d="M144.019 132.426H123.815V77.8664C123.815 75.5349 123.836 73.2456 123.878 70.9989C123.92 68.7521 123.983 66.2297 124.068 63.4318H123.561C123.097 64.8308 122.674 66.1025 122.294 67.2471C121.915 68.3494 121.555 69.4092 121.218 70.4266L99.9365 132.426H83.2157L61.5545 71.0625C61.1322 69.833 60.7733 68.7308 60.4777 67.7559C60.2244 66.7809 59.8022 65.3395 59.211 63.4318H58.641C58.7677 67.1623 58.8521 70.4901 58.8944 73.4152C58.9366 76.3403 58.9576 79.2019 58.9576 81.9996V132.426H40.21V41.2394H70.485L89.0426 95.2897C89.7183 97.1974 90.2671 98.8932 90.6894 100.377C91.1117 101.818 91.6395 103.62 92.2728 105.782H92.6528C93.4129 103.493 94.004 101.691 94.4263 100.377C94.8908 99.0626 95.503 97.3246 96.263 95.1625L114.821 41.2394H144.019V132.426Z" fill="white"/>
<path d="M257.266 132.426V41.2394H289.44C305.571 41.2394 317.668 44.9488 325.733 52.3674C333.798 59.7437 337.829 70.8505 337.829 85.6879C337.829 99.8893 333.418 111.229 324.593 119.708C315.81 128.186 304.092 132.426 289.44 132.426H257.266ZM277.723 58.2811V115.384H287.858C296.725 115.384 303.67 112.755 308.696 107.499C313.762 102.2 316.295 95.0142 316.295 85.9423C316.295 77.3366 313.783 70.5749 308.759 65.6574C303.777 60.74 296.766 58.2811 287.731 58.2811H277.723Z" fill="white"/>
<path d="M132.168 307.021C128.959 313.506 123.997 318.827 117.284 322.981C110.612 327.093 103.054 329.15 94.6091 329.15C80.5061 329.15 69.211 325.228 60.724 317.385C52.2368 309.501 47.9932 298.352 47.9932 283.938C47.9932 269.059 52.1734 257.167 60.5339 248.265C68.9366 239.32 79.8305 234.847 93.2157 234.847C102.843 234.847 110.802 237.009 117.094 241.333C123.427 245.614 128.283 251.528 131.661 259.074L113.547 265.878C111.478 261.258 108.818 257.93 105.566 255.895C102.357 253.818 98.3671 252.78 93.5958 252.78C86.5865 252.78 80.8229 255.577 76.3048 261.173C71.7867 266.726 69.5278 273.828 69.5278 282.475C69.5278 291.59 71.8501 298.606 76.4947 303.523C81.1395 308.44 87.4309 310.9 95.3691 310.9C99.7605 310.9 103.603 309.883 106.896 307.847C110.19 305.812 112.745 302.803 114.56 298.818L132.168 307.021Z" fill="white"/>
<path d="M334.979 289.639C334.979 301.254 331.749 310.644 325.289 317.808C318.828 324.93 309.349 328.491 296.85 328.491C284.732 328.491 275.526 324.994 269.235 317.999C262.986 310.962 259.861 301.764 259.861 290.402V235.716H280.382V289.639C280.382 296.463 281.966 301.657 285.132 305.218C288.299 308.737 292.458 310.496 297.609 310.496C302.635 310.496 306.71 308.8 309.834 305.409C312.959 301.975 314.521 296.973 314.521 290.402V235.716H334.979V289.639Z" fill="white"/>
<path d="M1057.98 278.984C1065.16 278.984 1070.88 281.33 1075.13 286.023C1079.46 290.641 1081.62 297.02 1081.62 305.158V341.008H1062.92V307.687C1062.92 303.581 1061.86 300.392 1059.73 298.119C1057.61 295.847 1054.75 294.71 1051.16 294.71C1047.56 294.71 1044.71 295.847 1042.58 298.119C1040.45 300.392 1039.39 303.581 1039.39 307.687V341.008H1020.58V279.644H1039.39V287.782C1041.3 285.069 1043.86 282.943 1047.09 281.404C1050.31 279.791 1053.94 278.984 1057.98 278.984Z" fill="#3D67AD"/>
<path d="M942.208 310.217C942.208 303.911 943.381 298.376 945.727 293.611C948.147 288.845 951.409 285.18 955.515 282.614C959.62 280.048 964.202 278.765 969.261 278.765C973.587 278.765 977.362 279.644 980.588 281.404C983.887 283.164 986.417 285.473 988.176 288.332V279.644H1006.98V341.009H988.176V332.321C986.343 335.18 983.777 337.49 980.478 339.249C977.252 341.009 973.477 341.888 969.151 341.888C964.166 341.888 959.62 340.605 955.515 338.039C951.409 335.4 948.147 331.698 945.727 326.932C943.381 322.093 942.208 316.522 942.208 310.217ZM988.176 310.327C988.176 305.634 986.856 301.932 984.217 299.219C981.651 296.507 978.499 295.15 974.76 295.15C971.021 295.15 967.831 296.507 965.192 299.219C962.626 301.859 961.343 305.524 961.343 310.217C961.343 314.909 962.626 318.648 965.192 321.434C967.831 324.146 971.021 325.503 974.76 325.503C978.499 325.503 981.651 324.146 984.217 321.434C986.856 318.721 988.176 315.019 988.176 310.327Z" fill="#3D67AD"/>
<path d="M935.472 325.063V341.009H925.905C919.086 341.009 913.771 339.359 909.959 336.06C906.146 332.687 904.24 327.225 904.24 319.674V295.26H896.762V279.644H904.24V264.688H923.045V279.644H935.362V295.26H923.045V319.894C923.045 321.727 923.485 323.047 924.365 323.853C925.245 324.659 926.711 325.063 928.764 325.063H935.472Z" fill="#3D67AD"/>
<path d="M864.911 341.888C859.559 341.888 854.794 340.972 850.615 339.139C846.436 337.306 843.137 334.814 840.717 331.661C838.298 328.435 836.942 324.843 836.648 320.884H855.234C855.454 323.01 856.443 324.733 858.203 326.052C859.962 327.372 862.125 328.032 864.691 328.032C867.037 328.032 868.833 327.592 870.08 326.712C871.399 325.759 872.059 324.549 872.059 323.083C872.059 321.324 871.143 320.041 869.31 319.234C867.477 318.354 864.508 317.401 860.402 316.375C856.003 315.349 852.338 314.285 849.405 313.186C846.473 312.013 843.943 310.217 841.817 307.797C839.691 305.304 838.628 301.969 838.628 297.79C838.628 294.271 839.581 291.081 841.487 288.222C843.467 285.29 846.326 282.98 850.065 281.294C853.877 279.608 858.386 278.765 863.591 278.765C871.289 278.765 877.338 280.671 881.737 284.483C886.209 288.296 888.775 293.354 889.435 299.659H872.059C871.766 297.533 870.813 295.847 869.2 294.601C867.66 293.354 865.608 292.731 863.042 292.731C860.842 292.731 859.156 293.171 857.983 294.051C856.81 294.857 856.223 295.994 856.223 297.46C856.223 299.219 857.14 300.539 858.973 301.419C860.879 302.299 863.811 303.178 867.77 304.058C872.316 305.231 876.018 306.404 878.878 307.577C881.737 308.677 884.229 310.51 886.356 313.076C888.555 315.568 889.691 318.941 889.765 323.193C889.765 326.786 888.738 330.011 886.686 332.871C884.706 335.657 881.81 337.856 877.998 339.469C874.259 341.082 869.897 341.888 864.911 341.888Z" fill="#3D67AD"/>
<path d="M816.972 273.266C813.672 273.266 810.96 272.313 808.834 270.407C806.781 268.427 805.754 266.008 805.754 263.149C805.754 260.216 806.781 257.797 808.834 255.89C810.96 253.911 813.672 252.921 816.972 252.921C820.197 252.921 822.837 253.911 824.889 255.89C827.016 257.797 828.079 260.216 828.079 263.149C828.079 266.008 827.016 268.427 824.889 270.407C822.837 272.313 820.197 273.266 816.972 273.266ZM826.319 279.644V341.008H807.514V279.644H826.319Z" fill="#3D67AD"/>
<path d="M777.035 341.008L758.339 315.275V341.008H739.534V259.629H758.339V304.608L776.925 279.644H800.129L774.615 310.436L800.348 341.008H777.035Z" fill="#3D67AD"/>
<path d="M729.615 309.337C729.615 311.096 729.505 312.929 729.285 314.835H686.726C687.019 318.648 688.229 321.58 690.355 323.633C692.554 325.613 695.23 326.602 698.383 326.602C703.075 326.602 706.338 324.623 708.17 320.664H728.185C727.159 324.696 725.289 328.325 722.577 331.551C719.937 334.777 716.602 337.306 712.569 339.139C708.537 340.972 704.028 341.888 699.043 341.888C693.031 341.888 687.679 340.605 682.987 338.039C678.295 335.473 674.629 331.808 671.99 327.042C669.35 322.277 668.031 316.705 668.031 310.327C668.031 303.948 669.314 298.376 671.88 293.611C674.519 288.845 678.185 285.18 682.877 282.614C687.569 280.048 692.958 278.765 699.043 278.765C704.981 278.765 710.26 280.011 714.879 282.504C719.497 284.996 723.09 288.552 725.656 293.171C728.295 297.79 729.615 303.178 729.615 309.337ZM710.37 304.388C710.37 301.162 709.27 298.596 707.071 296.69C704.871 294.784 702.122 293.831 698.823 293.831C695.67 293.831 692.994 294.747 690.795 296.58C688.669 298.413 687.349 301.016 686.836 304.388H710.37Z" fill="#3D67AD"/>
<path d="M615.935 288.332C617.694 285.473 620.223 283.163 623.523 281.404C626.822 279.644 630.597 278.764 634.85 278.764C639.908 278.764 644.491 280.047 648.596 282.613C652.702 285.179 655.928 288.845 658.274 293.611C660.693 298.376 661.903 303.911 661.903 310.216C661.903 316.521 660.693 322.093 658.274 326.932C655.928 331.697 652.702 335.4 648.596 338.039C644.491 340.605 639.908 341.888 634.85 341.888C630.524 341.888 626.748 341.045 623.523 339.359C620.297 337.599 617.767 335.29 615.935 332.431V341.008H597.129V259.629H615.935V288.332ZM642.768 310.216C642.768 305.524 641.448 301.858 638.809 299.219C636.243 296.507 633.053 295.15 629.241 295.15C625.502 295.15 622.313 296.507 619.674 299.219C617.108 301.932 615.825 305.634 615.825 310.326C615.825 315.018 617.108 318.721 619.674 321.433C622.313 324.146 625.502 325.502 629.241 325.502C632.98 325.502 636.169 324.146 638.809 321.433C641.448 318.648 642.768 314.908 642.768 310.216Z" fill="#3D67AD"/>
<path d="M560.168 325.502H586.781V341.008H539.164V326.052L564.677 295.15H539.384V279.644H586.231V294.6L560.168 325.502Z" fill="#3D67AD"/>
<path d="M483.509 263.808V309.996C483.509 314.615 484.645 318.171 486.918 320.664C489.191 323.156 492.526 324.403 496.925 324.403C501.324 324.403 504.697 323.156 507.043 320.664C509.389 318.171 510.562 314.615 510.562 309.996V263.808H529.367V309.886C529.367 316.778 527.901 322.607 524.968 327.372C522.035 332.137 518.077 335.73 513.091 338.149C508.179 340.569 502.68 341.778 496.595 341.778C490.51 341.778 485.048 340.605 480.21 338.259C475.444 335.84 471.668 332.247 468.883 327.482C466.097 322.643 464.704 316.778 464.704 309.886V263.808H483.509Z" fill="#3D67AD"/>
<path d="M1239.58 156.794C1246.76 156.794 1252.48 159.14 1256.73 163.832C1261.06 168.451 1263.22 174.829 1263.22 182.967V218.818H1244.53V185.496C1244.53 181.391 1243.46 178.202 1241.34 175.929C1239.21 173.656 1236.35 172.52 1232.76 172.52C1229.17 172.52 1226.31 173.656 1224.18 175.929C1222.06 178.202 1220.99 181.391 1220.99 185.496V218.818H1202.19V157.454H1220.99V165.592C1222.9 162.879 1225.47 160.753 1228.69 159.213C1231.92 157.6 1235.55 156.794 1239.58 156.794Z" fill="#3D67AD"/>
<path d="M1179.21 151.075C1175.91 151.075 1173.2 150.122 1171.07 148.216C1169.02 146.236 1168 143.817 1168 140.958C1168 138.025 1169.02 135.606 1171.07 133.7C1173.2 131.72 1175.91 130.73 1179.21 130.73C1182.44 130.73 1185.08 131.72 1187.13 133.7C1189.26 135.606 1190.32 138.025 1190.32 140.958C1190.32 143.817 1189.26 146.236 1187.13 148.216C1185.08 150.122 1182.44 151.075 1179.21 151.075ZM1188.56 157.454V218.818H1169.75V157.454H1188.56Z" fill="#3D67AD"/>
<path d="M1139.65 157.454L1101.16 247.96H1080.93L1095 216.728L1070.04 157.454H1091.04L1105.23 195.834L1119.31 157.454H1139.65Z" fill="#3D67AD"/>
<path d="M1066.49 202.872V218.818H1056.93C1050.11 218.818 1044.79 217.168 1040.98 213.869C1037.17 210.497 1035.26 205.035 1035.26 197.483V173.07H1027.78V157.454H1035.26V142.498H1054.07V157.454H1066.38V173.07H1054.07V197.703C1054.07 199.536 1054.51 200.856 1055.39 201.662C1056.27 202.469 1057.73 202.872 1059.78 202.872H1066.49Z" fill="#3D67AD"/>
<path d="M1009.31 151.075C1006.02 151.075 1003.3 150.122 1001.18 148.216C999.124 146.236 998.098 143.817 998.098 140.958C998.098 138.025 999.124 135.606 1001.18 133.7C1003.3 131.72 1006.02 130.73 1009.31 130.73C1012.54 130.73 1015.18 131.72 1017.23 133.7C1019.36 135.606 1020.42 138.025 1020.42 140.958C1020.42 143.817 1019.36 146.236 1017.23 148.216C1015.18 150.122 1012.54 151.075 1009.31 151.075ZM1018.66 157.454V218.818H999.857V157.454H1018.66Z" fill="#3D67AD"/>
<path d="M963.146 156.794C970.331 156.794 976.05 159.14 980.302 163.832C984.627 168.451 986.79 174.829 986.79 182.967V218.818H968.095V185.496C968.095 181.391 967.032 178.202 964.906 175.929C962.78 173.656 959.92 172.52 956.328 172.52C952.736 172.52 949.876 173.656 947.75 175.929C945.624 178.202 944.561 181.391 944.561 185.496V218.818H925.756V157.454H944.561V165.592C946.467 162.879 949.033 160.753 952.259 159.213C955.485 157.6 959.114 156.794 963.146 156.794Z" fill="#3D67AD"/>
<path d="M912.249 157.454V218.818H893.444V210.46C891.538 213.173 888.935 215.372 885.636 217.058C882.41 218.671 878.818 219.478 874.859 219.478C870.167 219.478 866.024 218.451 862.432 216.398C858.84 214.272 856.054 211.23 854.074 207.271C852.095 203.312 851.105 198.656 851.105 193.304V157.454H869.8V190.775C869.8 194.881 870.863 198.07 872.989 200.343C875.115 202.615 877.975 203.752 881.567 203.752C885.233 203.752 888.129 202.615 890.255 200.343C892.381 198.07 893.444 194.881 893.444 190.775V157.454H912.249Z" fill="#3D67AD"/>
<path d="M813.538 156.794C821.163 156.794 827.211 159.103 831.683 163.722C836.229 168.341 838.502 174.756 838.502 182.967V218.818H819.806V185.496C819.806 181.537 818.743 178.495 816.617 176.369C814.564 174.169 811.705 173.07 808.04 173.07C804.374 173.07 801.478 174.169 799.352 176.369C797.299 178.495 796.273 181.537 796.273 185.496V218.818H777.577V185.496C777.577 181.537 776.514 178.495 774.388 176.369C772.335 174.169 769.476 173.07 765.81 173.07C762.145 173.07 759.249 174.169 757.123 176.369C755.07 178.495 754.043 181.537 754.043 185.496V218.818H735.238V157.454H754.043V165.152C755.95 162.586 758.442 160.57 761.521 159.103C764.601 157.564 768.083 156.794 771.969 156.794C776.588 156.794 780.693 157.784 784.286 159.763C787.951 161.743 790.811 164.565 792.863 168.231C794.99 164.858 797.885 162.109 801.551 159.983C805.217 157.857 809.213 156.794 813.538 156.794Z" fill="#3D67AD"/>
<path d="M697.123 156.794C704.748 156.794 710.796 159.103 715.268 163.722C719.814 168.341 722.087 174.756 722.087 182.967V218.818H703.391V185.496C703.391 181.537 702.328 178.495 700.202 176.369C698.149 174.169 695.29 173.07 691.624 173.07C687.959 173.07 685.063 174.169 682.937 176.369C680.884 178.495 679.857 181.537 679.857 185.496V218.818H661.162V185.496C661.162 181.537 660.099 178.495 657.973 176.369C655.92 174.169 653.061 173.07 649.395 173.07C645.73 173.07 642.834 174.169 640.708 176.369C638.655 178.495 637.628 181.537 637.628 185.496V218.818H618.823V157.454H637.628V165.152C639.535 162.586 642.027 160.57 645.106 159.103C648.186 157.564 651.668 156.794 655.554 156.794C660.173 156.794 664.278 157.784 667.871 159.763C671.536 161.743 674.396 164.565 676.448 168.231C678.574 164.858 681.47 162.109 685.136 159.983C688.802 157.857 692.797 156.794 697.123 156.794Z" fill="#3D67AD"/>
<path d="M576.736 219.698C570.724 219.698 565.299 218.415 560.46 215.849C555.695 213.283 551.919 209.617 549.133 204.851C546.42 200.086 545.064 194.514 545.064 188.136C545.064 181.831 546.457 176.295 549.243 171.53C552.029 166.691 555.841 162.989 560.68 160.423C565.519 157.857 570.944 156.574 576.956 156.574C582.968 156.574 588.393 157.857 593.232 160.423C598.07 162.989 601.883 166.691 604.669 171.53C607.455 176.295 608.848 181.831 608.848 188.136C608.848 194.441 607.418 200.013 604.559 204.851C601.773 209.617 597.924 213.283 593.012 215.849C588.173 218.415 582.748 219.698 576.736 219.698ZM576.736 203.422C580.328 203.422 583.371 202.102 585.863 199.463C588.429 196.823 589.712 193.048 589.712 188.136C589.712 183.224 588.466 179.448 585.973 176.809C583.554 174.169 580.548 172.85 576.956 172.85C573.29 172.85 570.247 174.169 567.828 176.809C565.409 179.375 564.199 183.15 564.199 188.136C564.199 193.048 565.372 196.823 567.718 199.463C570.137 202.102 573.143 203.422 576.736 203.422Z" fill="#3D67AD"/>
<path d="M461.846 180.108C461.846 172.483 463.495 165.701 466.794 159.763C470.094 153.751 474.676 149.096 480.541 145.797C486.479 142.424 493.188 140.738 500.666 140.738C509.83 140.738 517.675 143.157 524.2 147.996C530.725 152.835 535.087 159.433 537.286 167.791H516.612C515.072 164.565 512.873 162.109 510.013 160.423C507.227 158.737 504.038 157.893 500.446 157.893C494.654 157.893 489.962 159.91 486.369 163.942C482.777 167.974 480.981 173.363 480.981 180.108C480.981 186.853 482.777 192.241 486.369 196.274C489.962 200.306 494.654 202.322 500.446 202.322C504.038 202.322 507.227 201.479 510.013 199.793C512.873 198.106 515.072 195.65 516.612 192.425H537.286C535.087 200.782 530.725 207.381 524.2 212.219C517.675 216.985 509.83 219.368 500.666 219.368C493.188 219.368 486.479 217.718 480.541 214.419C474.676 211.046 470.094 206.391 466.794 200.453C463.495 194.514 461.846 187.732 461.846 180.108Z" fill="#3D67AD"/>
<path d="M1622.15 97.5069C1616.8 97.5069 1612.03 96.5905 1607.85 94.7576C1603.67 92.9248 1600.37 90.4321 1597.95 87.2795C1595.53 84.0537 1594.18 80.4613 1593.88 76.5023H1612.47C1612.69 78.6284 1613.68 80.3513 1615.44 81.671C1617.2 82.9906 1619.36 83.6505 1621.93 83.6505C1624.27 83.6505 1626.07 83.2106 1627.32 82.3308C1628.64 81.3777 1629.3 80.168 1629.3 78.7018C1629.3 76.9422 1628.38 75.6592 1626.55 74.8527C1624.71 73.973 1621.74 73.0199 1617.64 71.9935C1613.24 70.9671 1609.57 69.904 1606.64 68.8043C1603.71 67.6313 1601.18 65.8351 1599.05 63.4157C1596.93 60.923 1595.86 57.5872 1595.86 53.4083C1595.86 49.8892 1596.82 46.7 1598.72 43.8407C1600.7 40.9082 1603.56 38.5988 1607.3 36.9125C1611.11 35.2263 1615.62 34.3832 1620.83 34.3832C1628.53 34.3832 1634.57 36.2894 1638.97 40.1017C1643.45 43.9141 1646.01 48.9727 1646.67 55.2778H1629.3C1629 53.1517 1628.05 51.4654 1626.44 50.2191C1624.9 48.9727 1622.84 48.3496 1620.28 48.3496C1618.08 48.3496 1616.39 48.7895 1615.22 49.6692C1614.05 50.4757 1613.46 51.6121 1613.46 53.0784C1613.46 54.8379 1614.38 56.1576 1616.21 57.0373C1618.12 57.9171 1621.05 58.7969 1625.01 59.6767C1629.55 60.8497 1633.25 62.0227 1636.11 63.1958C1638.97 64.2955 1641.47 66.1283 1643.59 68.6943C1645.79 71.187 1646.93 74.5595 1647 78.8117C1647 82.4041 1645.97 85.63 1643.92 88.4892C1641.94 91.2752 1639.05 93.4746 1635.23 95.0875C1631.5 96.7004 1627.13 97.5069 1622.15 97.5069Z" fill="#3D67AD"/>
<path d="M1568.95 45.4903C1571.15 42.1179 1573.9 39.4786 1577.2 37.5724C1580.5 35.5929 1584.16 34.6031 1588.2 34.6031V54.508H1583.03C1578.33 54.508 1574.82 55.5344 1572.47 57.5872C1570.12 59.5667 1568.95 63.0858 1568.95 68.1445V96.6272H1550.15V35.263H1568.95V45.4903Z" fill="#3D67AD"/>
<path d="M1540.23 64.9553C1540.23 66.7148 1540.12 68.5477 1539.9 70.4539H1497.34C1497.63 74.2662 1498.84 77.1988 1500.97 79.2516C1503.17 81.2311 1505.84 82.2208 1508.99 82.2208C1513.69 82.2208 1516.95 80.2414 1518.78 76.2824H1538.8C1537.77 80.3147 1535.9 83.9437 1533.19 87.1696C1530.55 90.3954 1527.21 92.9248 1523.18 94.7576C1519.15 96.5905 1514.64 97.5069 1509.65 97.5069C1503.64 97.5069 1498.29 96.2239 1493.6 93.6579C1488.91 91.0919 1485.24 87.4262 1482.6 82.6607C1479.96 77.8953 1478.64 72.3234 1478.64 65.945C1478.64 59.5667 1479.92 53.9948 1482.49 49.2294C1485.13 44.4639 1488.8 40.7982 1493.49 38.2322C1498.18 35.6662 1503.57 34.3832 1509.65 34.3832C1515.59 34.3832 1520.87 35.6295 1525.49 38.1222C1530.11 40.6149 1533.7 44.1707 1536.27 48.7895C1538.91 53.4083 1540.23 58.7969 1540.23 64.9553ZM1520.98 60.0066C1520.98 56.7807 1519.88 54.2147 1517.68 52.3086C1515.48 50.4024 1512.73 49.4493 1509.43 49.4493C1506.28 49.4493 1503.61 50.3657 1501.41 52.1986C1499.28 54.0314 1497.96 56.6341 1497.45 60.0066H1520.98Z" fill="#3D67AD"/>
<path d="M1426.55 43.9507C1428.38 41.0914 1430.91 38.782 1434.13 37.0225C1437.36 35.263 1441.14 34.3832 1445.46 34.3832C1450.52 34.3832 1455.1 35.6662 1459.21 38.2322C1463.31 40.7982 1466.54 44.4639 1468.88 49.2293C1471.3 53.9948 1472.51 59.53 1472.51 65.8351C1472.51 72.1401 1471.3 77.712 1468.88 82.5508C1466.54 87.3162 1463.31 91.0186 1459.21 93.6579C1455.1 96.2239 1450.52 97.5069 1445.46 97.5069C1441.21 97.5069 1437.43 96.6271 1434.13 94.8676C1430.91 93.108 1428.38 90.8353 1426.55 88.0493V125.88H1407.74V35.263H1426.55V43.9507ZM1453.38 65.8351C1453.38 61.1429 1452.06 57.4772 1449.42 54.8379C1446.85 52.1253 1443.66 50.769 1439.85 50.769C1436.11 50.769 1432.92 52.1253 1430.28 54.8379C1427.72 57.5505 1426.44 61.2529 1426.44 65.945C1426.44 70.6372 1427.72 74.3395 1430.28 77.0522C1432.92 79.7648 1436.11 81.1211 1439.85 81.1211C1443.59 81.1211 1446.78 79.7648 1449.42 77.0522C1452.06 74.2662 1453.38 70.5272 1453.38 65.8351Z" fill="#3D67AD"/>
<path d="M1365.65 97.5069C1359.64 97.5069 1354.22 96.2239 1349.38 93.6579C1344.61 91.0919 1340.84 87.4262 1338.05 82.6607C1335.34 77.8953 1333.98 72.3234 1333.98 65.945C1333.98 59.64 1335.37 54.1048 1338.16 49.3393C1340.95 44.5006 1344.76 40.7982 1349.6 38.2322C1354.44 35.6662 1359.86 34.3832 1365.87 34.3832C1371.89 34.3832 1377.31 35.6662 1382.15 38.2322C1386.99 40.7982 1390.8 44.5006 1393.59 49.3393C1396.37 54.1048 1397.77 59.64 1397.77 65.945C1397.77 72.2501 1396.34 77.822 1393.48 82.6607C1390.69 87.4262 1386.84 91.0919 1381.93 93.6579C1377.09 96.2239 1371.67 97.5069 1365.65 97.5069ZM1365.65 81.2311C1369.25 81.2311 1372.29 79.9114 1374.78 77.2721C1377.35 74.6328 1378.63 70.8571 1378.63 65.945C1378.63 61.033 1377.38 57.2573 1374.89 54.618C1372.47 51.9786 1369.47 50.659 1365.87 50.659C1362.21 50.659 1359.17 51.9786 1356.75 54.618C1354.33 57.184 1353.12 60.9597 1353.12 65.945C1353.12 70.8571 1354.29 74.6328 1356.64 77.2721C1359.06 79.9114 1362.06 81.2311 1365.65 81.2311Z" fill="#3D67AD"/>
<path d="M1324.09 15.248V96.6271H1305.29V15.248H1324.09Z" fill="#3D67AD"/>
<path d="M1295.37 64.9553C1295.37 66.7148 1295.26 68.5477 1295.04 70.4539H1252.48C1252.77 74.2662 1253.98 77.1988 1256.11 79.2516C1258.31 81.2311 1260.98 82.2208 1264.14 82.2208C1268.83 82.2208 1272.09 80.2414 1273.92 76.2824H1293.94C1292.91 80.3147 1291.04 83.9437 1288.33 87.1696C1285.69 90.3954 1282.35 92.9248 1278.32 94.7576C1274.29 96.5905 1269.78 97.5069 1264.8 97.5069C1258.78 97.5069 1253.43 96.2239 1248.74 93.6579C1244.05 91.0919 1240.38 87.4262 1237.74 82.6607C1235.1 77.8953 1233.78 72.3234 1233.78 65.945C1233.78 59.5667 1235.07 53.9948 1237.63 49.2294C1240.27 44.4639 1243.94 40.7982 1248.63 38.2322C1253.32 35.6662 1258.71 34.3832 1264.8 34.3832C1270.73 34.3832 1276.01 35.6295 1280.63 38.1222C1285.25 40.6149 1288.84 44.1707 1291.41 48.7895C1294.05 53.4083 1295.37 58.7969 1295.37 64.9553ZM1276.12 60.0066C1276.12 56.7807 1275.02 54.2147 1272.82 52.3086C1270.62 50.4024 1267.87 49.4493 1264.58 49.4493C1261.42 49.4493 1258.75 50.3657 1256.55 52.1986C1254.42 54.0314 1253.1 56.6341 1252.59 60.0066H1276.12Z" fill="#3D67AD"/>
<path d="M1196.28 79.0317L1209.59 35.2629H1229.6L1207.83 96.6271H1184.63L1162.85 35.2629H1182.98L1196.28 79.0317Z" fill="#3D67AD"/>
<path d="M1158.76 64.9553C1158.76 66.7148 1158.65 68.5477 1158.43 70.4539H1115.87C1116.17 74.2662 1117.38 77.1988 1119.5 79.2516C1121.7 81.2311 1124.38 82.2208 1127.53 82.2208C1132.22 82.2208 1135.48 80.2414 1137.32 76.2824H1157.33C1156.31 80.3147 1154.44 83.9437 1151.72 87.1696C1149.08 90.3954 1145.75 92.9248 1141.72 94.7576C1137.68 96.5905 1133.18 97.5069 1128.19 97.5069C1122.18 97.5069 1116.83 96.2239 1112.13 93.6579C1107.44 91.0919 1103.78 87.4262 1101.14 82.6607C1098.5 77.8953 1097.18 72.3234 1097.18 65.945C1097.18 59.5667 1098.46 53.9948 1101.03 49.2294C1103.67 44.4639 1107.33 40.7982 1112.02 38.2322C1116.72 35.6662 1122.1 34.3832 1128.19 34.3832C1134.13 34.3832 1139.41 35.6295 1144.03 38.1222C1148.64 40.6149 1152.24 44.1707 1154.8 48.7895C1157.44 53.4083 1158.76 58.7969 1158.76 64.9553ZM1139.52 60.0066C1139.52 56.7807 1138.42 54.2147 1136.22 52.3086C1134.02 50.4024 1131.27 49.4493 1127.97 49.4493C1124.82 49.4493 1122.14 50.3657 1119.94 52.1986C1117.82 54.0314 1116.5 56.6341 1115.98 60.0066H1139.52Z" fill="#3D67AD"/>
<path d="M1049.94 19.427C1058.07 19.427 1065.19 21.0399 1071.27 24.2658C1077.36 27.4916 1082.05 32.0371 1085.35 37.9022C1088.72 43.6941 1090.41 50.4024 1090.41 58.0271C1090.41 65.5784 1088.72 72.2867 1085.35 78.1519C1082.05 84.017 1077.32 88.5625 1071.16 91.7883C1065.08 95.0142 1058 96.6271 1049.94 96.6271H1021.01V19.427H1049.94ZM1048.73 80.3513C1055.84 80.3513 1061.37 78.4085 1065.33 74.5228C1069.29 70.6371 1071.27 65.1385 1071.27 58.0271C1071.27 50.9156 1069.29 45.3803 1065.33 41.4213C1061.37 37.4623 1055.84 35.4829 1048.73 35.4829H1039.82V80.3513H1048.73Z" fill="#3D67AD"/>
<path d="M987.236 80.6812V96.6271H977.669C970.851 96.6271 965.535 94.9775 961.723 91.6783C957.911 88.3059 956.004 82.844 956.004 75.2926V50.8789H948.526V35.2629H956.004V20.3068H974.81V35.2629H987.126V50.8789H974.81V75.5125C974.81 77.3454 975.25 78.665 976.129 79.4715C977.009 80.278 978.475 80.6812 980.528 80.6812H987.236Z" fill="#3D67AD"/>
<path d="M944.197 50.8789H934.079V96.6271H915.274V50.8789H908.456V35.2629H915.274V33.5034C915.274 25.952 917.437 20.2334 921.763 16.3478C926.088 12.3888 932.43 10.4093 940.788 10.4093C942.181 10.4093 943.207 10.446 943.867 10.5193V26.4652C940.274 26.2452 937.745 26.7584 936.279 28.0048C934.813 29.2511 934.079 31.4872 934.079 34.713V35.2629H944.197V50.8789Z" fill="#3D67AD"/>
<path d="M871.318 97.5069C865.307 97.5069 859.881 96.2239 855.043 93.6579C850.277 91.0919 846.501 87.4262 843.715 82.6607C841.003 77.8953 839.646 72.3234 839.646 65.945C839.646 59.64 841.039 54.1048 843.825 49.3393C846.611 44.5006 850.424 40.7982 855.262 38.2322C860.101 35.6662 865.526 34.3832 871.538 34.3832C877.55 34.3832 882.975 35.6662 887.814 38.2322C892.653 40.7982 896.465 44.5006 899.251 49.3393C902.037 54.1048 903.43 59.64 903.43 65.945C903.43 72.2501 902 77.822 899.141 82.6607C896.355 87.4262 892.506 91.0919 887.594 93.6579C882.755 96.2239 877.33 97.5069 871.318 97.5069ZM871.318 81.2311C874.911 81.2311 877.953 79.9114 880.446 77.2721C883.012 74.6328 884.295 70.8571 884.295 65.945C884.295 61.033 883.049 57.2573 880.556 54.618C878.137 51.9786 875.131 50.659 871.538 50.659C867.873 50.659 864.83 51.9786 862.411 54.618C859.991 57.184 858.782 60.9597 858.782 65.945C858.782 70.8571 859.955 74.6328 862.301 77.2721C864.72 79.9114 867.726 81.2311 871.318 81.2311Z" fill="#3D67AD"/>
<path d="M807.025 97.5069C801.673 97.5069 796.908 96.5905 792.729 94.7576C788.55 92.9248 785.251 90.4321 782.832 87.2795C780.412 84.0537 779.056 80.4613 778.763 76.5023H797.348C797.568 78.6284 798.558 80.3513 800.317 81.671C802.077 82.9906 804.239 83.6505 806.805 83.6505C809.152 83.6505 810.948 83.2106 812.194 82.3308C813.514 81.3777 814.174 80.168 814.174 78.7018C814.174 76.9422 813.257 75.6592 811.424 74.8527C809.591 73.973 806.622 73.0199 802.517 71.9935C798.118 70.9671 794.452 69.904 791.519 68.8043C788.587 67.6313 786.057 65.8351 783.931 63.4157C781.805 60.923 780.742 57.5872 780.742 53.4083C780.742 49.8892 781.695 46.7 783.601 43.8407C785.581 40.9082 788.44 38.5988 792.179 36.9125C795.992 35.2263 800.5 34.3832 805.706 34.3832C813.404 34.3832 819.452 36.2894 823.851 40.1017C828.323 43.9141 830.889 48.9727 831.549 55.2778H814.174C813.88 53.1517 812.927 51.4654 811.314 50.2191C809.775 48.9727 807.722 48.3496 805.156 48.3496C802.956 48.3496 801.27 48.7895 800.097 49.6692C798.924 50.4757 798.338 51.6121 798.338 53.0784C798.338 54.8379 799.254 56.1576 801.087 57.0373C802.993 57.9171 805.926 58.7969 809.885 59.6767C814.43 60.8497 818.133 62.0227 820.992 63.1958C823.851 64.2955 826.344 66.1283 828.47 68.6943C830.669 71.187 831.806 74.5595 831.879 78.8117C831.879 82.4041 830.853 85.63 828.8 88.4892C826.82 91.2752 823.924 93.4746 820.112 95.0875C816.373 96.7004 812.011 97.5069 807.025 97.5069Z" fill="#3D67AD"/>
<path d="M739.975 97.5069C733.963 97.5069 728.538 96.2239 723.699 93.6579C718.934 91.0919 715.158 87.4262 712.372 82.6607C709.66 77.8953 708.303 72.3234 708.303 65.945C708.303 59.64 709.696 54.1048 712.482 49.3393C715.268 44.5006 719.08 40.7982 723.919 38.2322C728.758 35.6662 734.183 34.3832 740.195 34.3832C746.207 34.3832 751.632 35.6662 756.471 38.2322C761.31 40.7982 765.122 44.5006 767.908 49.3393C770.694 54.1048 772.087 59.64 772.087 65.945C772.087 72.2501 770.657 77.822 767.798 82.6607C765.012 87.4262 761.163 91.0919 756.251 93.6579C751.412 96.2239 745.987 97.5069 739.975 97.5069ZM739.975 81.2311C743.567 81.2311 746.61 79.9114 749.103 77.2721C751.669 74.6328 752.952 70.8571 752.952 65.945C752.952 61.033 751.705 57.2573 749.213 54.618C746.793 51.9786 743.787 50.659 740.195 50.659C736.529 50.659 733.487 51.9786 731.067 54.618C728.648 57.184 727.438 60.9597 727.438 65.945C727.438 70.8571 728.611 74.6328 730.957 77.2721C733.377 79.9114 736.383 81.2311 739.975 81.2311Z" fill="#3D67AD"/>
<path d="M683.808 45.4903C686.007 42.1179 688.756 39.4786 692.055 37.5724C695.355 35.5929 699.02 34.6031 703.053 34.6031V54.508H697.884C693.192 54.508 689.673 55.5344 687.327 57.5872C684.981 59.5667 683.808 63.0858 683.808 68.1445V96.6272H665.002V35.263H683.808V45.4903Z" fill="#3D67AD"/>
<path d="M594.68 65.945C594.68 59.5667 595.963 53.9948 598.529 49.2294C601.169 44.4639 604.798 40.7982 609.416 38.2322C614.109 35.6662 619.46 34.3832 625.472 34.3832C633.17 34.3832 639.585 36.3993 644.717 40.4316C649.923 44.4639 653.332 50.1458 654.945 57.4772H634.93C633.244 52.7851 629.981 50.439 625.142 50.439C621.697 50.439 618.947 51.7954 616.894 54.508C614.842 57.1473 613.815 60.9597 613.815 65.945C613.815 70.9304 614.842 74.7794 616.894 77.4921C618.947 80.1314 621.697 81.451 625.142 81.451C629.981 81.451 633.244 79.105 634.93 74.4129H654.945C653.332 81.5977 649.923 87.2429 644.717 91.3485C639.512 95.4541 633.097 97.5069 625.472 97.5069C619.46 97.5069 614.109 96.2239 609.416 93.6579C604.798 91.0919 601.169 87.4262 598.529 82.6607C595.963 77.8953 594.68 72.3234 594.68 65.945Z" fill="#3D67AD"/>
<path d="M575.442 28.8845C572.143 28.8845 569.43 27.9315 567.304 26.0253C565.252 24.0458 564.225 21.6264 564.225 18.7672C564.225 15.8346 565.252 13.4152 567.304 11.509C569.43 9.52954 572.143 8.53979 575.442 8.53979C578.668 8.53979 581.307 9.52954 583.36 11.509C585.486 13.4152 586.549 15.8346 586.549 18.7672C586.549 21.6264 585.486 24.0458 583.36 26.0253C581.307 27.9315 578.668 28.8845 575.442 28.8845ZM584.79 35.2629V96.6271H565.985V35.2629H584.79Z" fill="#3D67AD"/>
<path d="M552.462 19.427V96.6271H533.657V50.329L516.391 96.6271H501.215L483.84 50.2191V96.6271H465.035V19.427H487.249L508.913 72.8732L530.358 19.427H552.462Z" fill="#3D67AD"/>
</svg>
