<svg width="1240" height="337" viewBox="0 0 1240 337" fill="none" xmlns="http://www.w3.org/2000/svg">
<path d="M166.4 174.008C170.149 174.008 173.189 170.968 173.189 167.219C173.189 163.469 170.149 160.429 166.4 160.429C162.65 160.429 159.61 163.469 159.61 167.219C159.61 170.968 162.65 174.008 166.4 174.008Z" fill="#00B2B3"/>
<path fill-rule="evenodd" clip-rule="evenodd" d="M149.603 184.013C151.389 180.797 161.633 175.794 161.633 175.794C161.633 175.794 162.824 187.229 161.037 190.325C159.25 193.422 149.007 198.544 149.007 198.544C149.007 198.544 147.816 187.229 149.603 184.013Z" fill="#00B2B3"/>
<path fill-rule="evenodd" clip-rule="evenodd" d="M172.587 190.207C170.681 187.11 171.515 175.676 171.515 175.676C171.515 175.676 181.996 180.321 183.902 183.537C185.808 186.634 184.974 198.068 184.974 198.068C184.974 198.068 174.492 193.304 172.587 190.207Z" fill="#00B2B3"/>
<path fill-rule="evenodd" clip-rule="evenodd" d="M189.5 173.292C185.927 173.411 176.398 166.98 176.398 166.98C176.398 166.98 185.689 160.309 189.381 160.19C193.074 160.071 202.483 166.503 202.483 166.503C202.483 166.503 193.193 173.292 189.5 173.292Z" fill="#00B2B3"/>
<path fill-rule="evenodd" clip-rule="evenodd" d="M183.312 150.305C181.526 153.521 171.282 158.523 171.282 158.523C171.282 158.523 170.091 147.089 171.878 143.992C173.665 140.895 183.908 135.773 183.908 135.773C183.908 135.773 185.099 147.089 183.312 150.305Z" fill="#00B2B3"/>
<path fill-rule="evenodd" clip-rule="evenodd" d="M160.205 144.111C162.11 147.208 161.277 158.642 161.277 158.642C161.277 158.642 150.795 153.997 148.889 150.781C146.984 147.684 147.817 136.25 147.817 136.25C147.817 136.25 158.418 141.014 160.205 144.111Z" fill="#00B2B3"/>
<path fill-rule="evenodd" clip-rule="evenodd" d="M143.409 161.025C146.982 160.906 156.511 167.338 156.511 167.338C156.511 167.338 147.22 174.008 143.528 174.127C139.835 174.246 130.426 167.815 130.426 167.815C130.426 167.815 139.716 161.025 143.409 161.025Z" fill="#00B2B3"/>
<path d="M22.6307 207.477V252.381L61.5792 274.893L84.0908 313.841H128.995L167.943 336.353L206.892 313.841H251.677L274.188 274.893L313.137 252.381V207.477L335.649 168.529L313.137 129.58V84.6761L274.188 62.1645L251.677 23.335H206.773L167.824 0.823486L128.876 23.335H83.9717L61.4601 62.2836L22.5116 84.7952V129.699L0 168.648L22.6307 207.477ZM35.1371 209.264H73.2519L90.4036 179.487L122.087 197.829V227.368H83.9717L63.9614 261.91L35.018 245.235V209.264H35.1371ZM134.593 147.804V110.404L167.824 129.58L201.056 110.404V147.804L232.5 165.908L201.056 184.013V223.914L167.824 204.738L134.593 223.914V190.326L97.6692 169.005L134.593 147.804ZM73.4901 270.605L91.2373 239.875H122.682L142.692 274.416L127.208 301.335H91.3564L73.4901 270.605ZM139.238 305.265L157.104 274.416L135.903 237.731L167.824 219.269L197.006 236.182L178.663 267.984L199.269 303.717L167.824 321.822L139.238 305.265ZM244.53 301.335H212.371L193.194 268.104L209.512 239.875H244.53L262.278 270.605L244.53 301.335ZM271.687 261.91L251.677 227.368H213.562V191.398L242.505 174.722L262.516 209.264H300.631V245.235L271.687 261.91ZM321.117 168.529L304.799 196.757H269.662L251.915 166.027L269.662 135.297H301.822L321.117 168.529ZM300.631 122.791H262.516L242.505 157.332L213.562 140.657V107.188H251.677L270.496 74.5518L300.511 91.9417V122.791H300.631ZM261.444 65.2613L244.53 94.6812H210.823L193.075 63.9511L209.393 35.7224H244.53L261.444 65.2613ZM197.006 32.1491L178.663 63.9511L198.197 97.6589L167.824 115.168L137.452 97.6589L156.985 63.9511L138.643 32.1491L167.824 15.2356L197.006 32.1491ZM91.2373 35.8415H126.374L142.692 64.0702L124.945 94.8003H91.2373L74.2048 65.2613L91.2373 35.8415ZM65.1525 74.5518L83.9717 107.188H122.087V140.657L90.4036 159L73.2519 129.223H35.1371V91.9417L65.1525 74.5518ZM30.1345 141.61H65.9863L81.9468 169.124L65.9863 196.638H30.8492L14.5313 168.41L30.1345 141.61Z" fill="#00B2B3"/>
<path d="M566.51 24.2306C566.51 25.1454 565.748 25.7553 564.986 25.7553C548.823 25.7553 529.763 39.0208 522.75 55.3358L460.082 200.799H482.801C510.551 200.799 533.118 178.232 533.118 150.481C533.118 149.566 533.88 148.957 534.643 148.957C535.405 148.957 536.167 149.719 536.167 150.481V202.323C536.167 203.238 535.405 203.848 534.643 203.848H455.507H444.681H418.608H388.113C387.198 203.848 386.588 203.086 386.588 202.323C386.588 201.408 387.35 200.799 388.113 200.799C404.428 200.799 423.335 187.533 430.349 171.218L481.123 54.116C488.747 36.7337 509.179 22.7058 526.561 22.7058H564.833C565.9 22.7058 566.51 23.3157 566.51 24.2306ZM416.931 76.0726V24.2306C416.931 23.3157 417.693 22.7058 418.456 22.7058H470.298C471.212 22.7058 471.822 23.4682 471.822 24.2306C471.822 25.1454 471.06 25.7553 470.298 25.7553C442.547 25.7553 419.98 48.3219 419.98 76.0726C419.98 76.9875 419.218 77.5974 418.456 77.5974C417.693 77.5974 416.931 76.9875 416.931 76.0726Z" fill="white"/>
<path d="M648.695 41.6128L592.431 191.497C591.363 194.242 591.516 196.681 592.736 198.511C593.803 200.036 595.785 200.951 598.225 200.951H601.427C602.342 200.951 602.952 201.713 602.952 202.476C602.952 203.238 602.189 204 601.427 204H598.225H582.977H571.389H568.187C567.272 204 566.662 203.238 566.662 202.476C566.662 201.713 567.424 200.951 568.187 200.951H571.389C577.183 200.951 583.739 196.224 585.874 190.43L642.138 40.6979C642.443 39.9355 647.017 39.4781 647.78 39.783C648.695 39.783 648.999 40.6979 648.695 41.6128Z" fill="white"/>
<path d="M741.4 202.323C741.4 203.238 740.638 203.848 739.875 203.848H736.673H725.085H688.491H676.903H673.548C672.633 203.848 672.023 203.086 672.023 202.323C672.023 201.561 672.786 200.799 673.548 200.799H676.75C679.19 200.799 681.172 199.884 682.392 198.206C683.764 196.377 683.916 193.937 683.002 191.193L668.821 147.889H606.763C605.848 147.889 605.239 143.62 605.239 142.705C605.239 141.79 606.001 141.18 606.763 141.18H666.534L638.631 55.1834C633.294 39.0208 615.912 25.7553 599.749 25.7553C598.835 25.7553 598.225 24.993 598.225 24.2306C598.225 23.3157 598.987 22.7058 599.749 22.7058H636.344C653.574 22.7058 672.328 36.7337 678.122 53.9635L722.646 190.278C724.475 196.072 730.727 200.799 736.521 200.799H739.723C740.638 200.799 741.4 201.561 741.4 202.323Z" fill="white"/>
<path d="M928.337 37.1918L876.952 174.726V174.878C876.952 174.878 876.952 174.878 876.952 175.031L866.432 203.086C866.127 203.696 865.517 204.154 864.907 204.154C864.907 204.154 874.97 204.154 878.63 204.154H860.637C839.748 204.154 838.986 190.126 833.192 172.896L794.92 55.3365C789.583 39.174 772.201 26.061 756.038 26.061C755.124 26.061 754.514 25.2986 754.514 24.5362C754.514 23.7739 755.276 23.0115 756.038 23.0115H792.633C810.015 23.0115 828.77 37.0393 834.564 54.4217L834.716 54.5742L872.226 169.846L922.085 36.5819C922.39 35.8195 926.965 35.3621 927.727 35.667C928.185 35.5145 928.642 36.4294 928.337 37.1918Z" fill="white"/>
<path d="M802.086 202.324C802.086 203.239 801.324 203.848 800.562 203.848H797.36H785.771H770.524H767.322C766.407 203.848 765.797 203.086 765.797 202.324C765.797 201.561 766.559 200.799 767.322 200.799H770.524C776.013 200.799 780.587 196.377 780.587 190.735V30.7875C780.587 29.8726 784.856 29.2627 785.771 29.2627C786.686 29.2627 787.296 30.0251 787.296 30.7875V190.735C787.296 196.225 791.718 200.799 797.36 200.799H800.562C801.324 200.799 802.086 201.561 802.086 202.324Z" fill="white"/>
<path d="M973.621 202.323C973.621 203.238 972.858 203.848 972.096 203.848H968.894H957.306H923.456H911.868H908.361C907.446 203.848 906.836 203.086 906.836 202.323C906.836 201.561 907.598 200.799 908.361 200.799H911.563C917.052 200.799 921.626 196.377 921.626 190.735V24.2306C921.626 23.3157 922.389 22.7058 923.151 22.7058H968.589H971.791C972.706 22.7058 973.316 23.4682 973.316 24.2306C973.316 24.993 972.553 25.7553 971.791 25.7553H968.589C963.1 25.7553 958.526 30.1772 958.526 35.8188V190.735C958.526 196.224 962.947 200.799 968.589 200.799H971.791C972.858 200.799 973.621 201.561 973.621 202.323Z" fill="white"/>
<path d="M1060.84 202.323C1060.84 203.238 1060.08 203.848 1059.31 203.848H1056.11H999.086H995.884C994.969 203.848 994.359 203.086 994.359 202.323C994.359 201.561 995.122 200.799 995.884 200.799H999.086C1004.58 200.799 1009.15 196.377 1009.15 190.735V35.8188C1009.15 30.3297 1004.73 25.7553 999.086 25.7553H995.884C994.969 25.7553 994.359 24.993 994.359 24.2306C994.359 23.4682 995.122 22.7058 995.884 22.7058H999.086H1010.67H1044.52H1056.11H1059.31C1060.23 22.7058 1060.84 23.4682 1060.84 24.2306C1060.84 24.993 1060.08 25.7553 1059.31 25.7553H1056.11C1050.62 25.7553 1046.05 30.1772 1046.05 35.8188V190.735C1046.05 196.224 1050.47 200.799 1056.11 200.799H1059.31C1060.08 200.799 1060.84 201.561 1060.84 202.323Z" fill="white"/>
<path d="M1240 30.0247V202.323C1240 203.238 1235.73 203.848 1234.81 203.848H1226.73C1209.35 203.848 1189.07 189.668 1181.6 172.438L1130.82 55.3358C1123.81 39.0208 1104.75 25.7553 1088.59 25.7553C1087.67 25.7553 1087.06 24.993 1087.06 24.2306C1087.06 23.3157 1087.82 22.7058 1088.59 22.7058H1126.86C1144.24 22.7058 1164.67 36.7337 1172.3 54.116L1223.07 171.218C1225.36 176.402 1228.87 181.434 1233.29 185.856V30.0247C1233.29 29.1099 1234.05 28.5 1234.81 28.5C1235.57 28.5 1240 29.1099 1240 30.0247Z" fill="white"/>
<path d="M1138.9 202.324C1138.9 203.239 1138.14 203.848 1137.38 203.848H1134.02H1122.44H1107.34H1104.14C1103.22 203.848 1102.61 203.086 1102.61 202.324C1102.61 201.409 1103.38 200.799 1104.14 200.799H1107.34C1112.52 200.799 1116.79 196.835 1117.25 191.803V35.8192C1117.25 34.9043 1121.52 34.2944 1122.44 34.2944C1123.35 34.2944 1123.96 35.0568 1123.96 35.8192V190.431C1123.96 190.583 1123.96 190.735 1123.96 190.735C1123.96 196.225 1128.38 200.799 1134.02 200.799H1137.23C1138.14 200.799 1138.9 201.561 1138.9 202.324Z" fill="white"/>
<path d="M561.474 277.647V281.306H549.886V324.304H545.921V281.306H541.957V277.647H545.921V266.973C545.921 259.807 550.801 256.3 560.559 256.3H563.456V259.959H560.559C553.393 259.959 549.886 262.246 549.886 267.126V277.799H561.474V277.647Z" fill="white"/>
<path d="M620.787 314.699C620.787 321.865 615.908 325.372 606.149 325.372C596.391 325.372 591.512 321.712 591.512 314.699V287.405C591.512 280.239 596.391 276.732 606.149 276.732C615.908 276.732 620.787 280.391 620.787 287.405V314.699ZM616.823 287.405C616.823 282.679 613.163 280.239 606.149 280.239C599.136 280.239 595.476 282.526 595.476 287.405V314.699C595.476 319.425 599.136 321.865 606.149 321.865C613.163 321.865 616.823 319.578 616.823 314.699V287.405Z" fill="white"/>
<path d="M677.667 277.646H681.631V324.304H678.124L677.667 322.78C674.465 324.457 670.195 325.219 665.011 325.219C657.692 325.219 652.355 321.865 652.355 314.546V277.646H656.32V314.546C656.32 319.273 659.979 321.712 666.993 321.712C670.958 321.712 674.922 320.95 676.447 320.492L677.667 320.035V277.646V277.646Z" fill="white"/>
<path d="M718.525 324.305H714.713V277.647H718.067L718.525 279.172C721.727 277.494 725.996 276.732 731.18 276.732C738.499 276.732 743.836 280.086 743.836 287.405V324.305H739.872V287.405C739.872 282.679 736.212 280.239 729.198 280.239C725.234 280.239 721.269 281.001 719.745 281.459L718.525 281.916V324.305V324.305Z" fill="white"/>
<path d="M800.715 256.3H804.68V324.304H801.325L800.868 322.78C797.666 324.457 793.396 325.219 788.212 325.219C780.893 325.219 775.557 321.865 775.557 314.546V287.253C775.557 279.934 780.741 276.579 788.212 276.579C792.939 276.579 797.513 277.494 799.495 278.256L800.868 278.866V256.3H800.715ZM800.715 320.035V282.068C798.123 280.849 794.616 280.391 790.042 280.391C782.876 280.391 779.369 282.678 779.369 287.558V314.851C779.369 319.578 783.028 322.017 790.042 322.017C794.006 322.017 797.971 321.255 799.495 320.797L800.715 320.035Z" fill="white"/>
<path d="M862.312 277.646H865.666V324.304H862.312L861.854 322.779C858.652 324.456 854.383 325.219 849.199 325.219C841.88 325.219 836.543 321.864 836.543 314.545V287.252C836.543 279.933 841.727 276.579 849.199 276.579C853.925 276.579 858.5 277.494 860.482 278.256L861.854 278.866L862.312 277.646ZM861.854 320.034V282.068C859.262 280.848 855.755 280.391 851.181 280.391C844.014 280.391 840.507 282.678 840.507 287.557V314.85C840.507 319.577 844.167 322.017 851.181 322.017C855.145 322.017 859.11 321.254 860.634 320.797L861.854 320.034Z" fill="white"/>
<path d="M915.831 281.306H904.243V313.631C904.243 318.357 907.903 320.797 914.917 320.797H917.814V324.457H914.917C905.158 324.457 900.279 320.797 900.279 313.783V281.458H896.314V277.799H900.279V269.108L902.718 268.193H904.243V277.951H915.831V281.306Z" fill="white"/>
<path d="M947.846 256.3H951.658V271.852H947.846V256.3ZM947.846 324.304V277.647H951.658V324.304H947.846Z" fill="white"/>
<path d="M1013.11 314.699C1013.11 321.865 1008.23 325.372 998.476 325.372C988.717 325.372 983.838 321.712 983.838 314.699V287.405C983.838 280.239 988.717 276.732 998.476 276.732C1008.23 276.732 1013.11 280.391 1013.11 287.405V314.699ZM1009.15 287.405C1009.15 282.679 1005.49 280.239 998.476 280.239C991.309 280.239 987.802 282.526 987.802 287.405V314.699C987.802 319.425 991.462 321.865 998.476 321.865C1005.64 321.865 1009.15 319.578 1009.15 314.699V287.405Z" fill="white"/>
<path d="M1049.09 324.305H1045.28V277.647H1048.63L1049.09 279.172C1052.29 277.494 1056.56 276.732 1061.75 276.732C1069.07 276.732 1074.4 280.086 1074.4 287.405V324.305H1070.44V287.405C1070.44 282.679 1066.78 280.239 1059.76 280.239C1055.8 280.239 1051.84 281.001 1050.31 281.459L1049.09 281.916V324.305Z" fill="white"/>
</svg>
