<svg width="1240" height="336" viewBox="0 0 1240 336" fill="none" xmlns="http://www.w3.org/2000/svg">
<path d="M166.398 173.655C170.147 173.655 173.187 170.615 173.187 166.865C173.187 163.116 170.147 160.076 166.398 160.076C162.648 160.076 159.608 163.116 159.608 166.865C159.608 170.615 162.648 173.655 166.398 173.655Z" fill="#00B2B3"/>
<path fill-rule="evenodd" clip-rule="evenodd" d="M149.603 183.659C151.389 180.443 161.633 175.441 161.633 175.441C161.633 175.441 162.824 186.875 161.037 189.972C159.25 193.069 149.007 198.191 149.007 198.191C149.007 198.191 147.816 186.875 149.603 183.659Z" fill="#00B2B3"/>
<path fill-rule="evenodd" clip-rule="evenodd" d="M172.587 189.853C170.681 186.756 171.515 175.322 171.515 175.322C171.515 175.322 181.996 179.967 183.902 183.183C185.808 186.28 184.974 197.714 184.974 197.714C184.974 197.714 174.492 192.95 172.587 189.853Z" fill="#00B2B3"/>
<path fill-rule="evenodd" clip-rule="evenodd" d="M189.5 172.939C185.927 173.058 176.398 166.626 176.398 166.626C176.398 166.626 185.689 159.956 189.381 159.837C193.074 159.718 202.483 166.15 202.483 166.15C202.483 166.15 193.193 172.939 189.5 172.939Z" fill="#00B2B3"/>
<path fill-rule="evenodd" clip-rule="evenodd" d="M183.31 149.951C181.523 153.167 171.28 158.17 171.28 158.17C171.28 158.17 170.088 146.735 171.875 143.639C173.662 140.542 183.905 135.42 183.905 135.42C183.905 135.42 185.096 146.735 183.31 149.951Z" fill="#00B2B3"/>
<path fill-rule="evenodd" clip-rule="evenodd" d="M160.205 143.758C162.11 146.855 161.277 158.289 161.277 158.289C161.277 158.289 150.795 153.644 148.889 150.428C146.984 147.331 147.817 135.897 147.817 135.897C147.817 135.897 158.418 140.661 160.205 143.758Z" fill="#00B2B3"/>
<path fill-rule="evenodd" clip-rule="evenodd" d="M143.409 160.671C146.982 160.552 156.511 166.984 156.511 166.984C156.511 166.984 147.22 173.654 143.528 173.773C139.835 173.892 130.426 167.461 130.426 167.461C130.426 167.461 139.716 160.671 143.409 160.671Z" fill="#00B2B3"/>
<path d="M22.6307 207.124V252.028L61.5792 274.54L84.0908 313.488H128.995L167.943 336L206.892 313.488H251.677L274.188 274.54L313.137 252.028V207.124L335.648 168.176L313.137 129.227V84.3232L274.188 61.8117L251.677 22.9823H206.773L167.824 0.470703L128.876 22.9823H83.9717L61.4601 61.9308L22.5116 84.4424V129.346L0 168.295L22.6307 207.124ZM35.1371 208.911H73.2519L90.4036 179.134L122.086 197.477V227.016H83.9717L63.9614 261.557L35.018 244.882V208.911H35.1371ZM134.593 147.451V110.051L167.824 129.227L201.056 110.051V147.451L232.5 165.555L201.056 183.66V223.561L167.824 204.385L134.593 223.561V189.973L97.6692 168.652L134.593 147.451ZM73.4901 270.252L91.2373 239.522H122.682L142.692 274.063L127.208 300.982H91.3564L73.4901 270.252ZM139.238 304.913L157.104 274.063L135.903 237.378L167.824 218.916L197.006 235.83L178.663 267.632L199.269 303.364L167.824 321.469L139.238 304.913ZM244.53 300.982H212.371L193.194 267.751L209.512 239.522H244.53L262.277 270.252L244.53 300.982ZM271.687 261.557L251.677 227.016H213.562V191.045L242.505 174.369L262.516 208.911H300.63V244.882L271.687 261.557ZM321.117 168.176L304.799 196.405H269.662L251.915 165.675L269.662 134.944H301.822L321.117 168.176ZM300.63 122.438H262.516L242.505 156.98L213.562 140.304V106.835H251.677L270.496 74.199L300.511 91.5889V122.438H300.63ZM261.444 64.9085L244.53 94.3284H210.823L193.075 63.5983L209.393 35.3696H244.53L261.444 64.9085ZM197.006 31.7963L178.663 63.5983L198.197 97.3061L167.824 114.815L137.452 97.3061L156.985 63.5983L138.643 31.7963L167.824 14.8829L197.006 31.7963ZM91.2373 35.4887H126.374L142.692 63.7174L124.945 94.4475H91.2373L74.2048 64.9085L91.2373 35.4887ZM65.1525 74.199L83.9717 106.835H122.086V140.304L90.4036 158.647L73.2519 128.87H35.1371V91.5889L65.1525 74.199ZM30.1345 141.257H65.9863L81.9468 168.771L65.9863 196.285H30.8492L14.5313 168.057L30.1345 141.257Z" fill="#00B2B3"/>
<path d="M566.51 23.8778C566.51 24.7927 565.748 25.4026 564.986 25.4026C548.823 25.4026 529.763 38.6681 522.749 54.9831L460.082 200.446H482.801C510.551 200.446 533.118 177.879 533.118 150.128C533.118 149.214 533.88 148.604 534.643 148.604C535.405 148.604 536.167 149.366 536.167 150.128V201.971C536.167 202.885 535.405 203.495 534.643 203.495H455.507H444.681H418.608H388.113C387.198 203.495 386.588 202.733 386.588 201.971C386.588 201.056 387.35 200.446 388.113 200.446C404.428 200.446 423.335 187.18 430.349 170.865L481.123 53.7632C488.747 36.3809 509.179 22.353 526.561 22.353H564.833C565.9 22.353 566.51 22.9629 566.51 23.8778ZM416.931 75.7198V23.8778C416.931 22.9629 417.693 22.353 418.456 22.353H470.298C471.212 22.353 471.822 23.1154 471.822 23.8778C471.822 24.7927 471.06 25.4026 470.298 25.4026C442.547 25.4026 419.98 47.9691 419.98 75.7198C419.98 76.6347 419.218 77.2446 418.456 77.2446C417.693 77.2446 416.931 76.6347 416.931 75.7198Z" fill="#232856"/>
<path d="M648.695 41.26L592.431 191.144C591.363 193.889 591.516 196.329 592.736 198.158C593.803 199.683 595.785 200.598 598.225 200.598H601.427C602.342 200.598 602.952 201.36 602.952 202.123C602.952 202.885 602.189 203.648 601.427 203.648H598.225H582.977H571.389H568.187C567.272 203.648 566.662 202.885 566.662 202.123C566.662 201.36 567.424 200.598 568.187 200.598H571.389C577.183 200.598 583.739 195.871 585.874 190.077L642.138 40.3451C642.443 39.5827 647.017 39.1253 647.78 39.4302C648.695 39.4302 648.999 40.3451 648.695 41.26Z" fill="#232856"/>
<path d="M741.4 201.971C741.4 202.885 740.638 203.495 739.875 203.495H736.673H725.085H688.491H676.903H673.548C672.633 203.495 672.023 202.733 672.023 201.971C672.023 201.208 672.786 200.446 673.548 200.446H676.75C679.19 200.446 681.172 199.531 682.392 197.854C683.764 196.024 683.916 193.584 683.002 190.84L668.821 147.536H606.763C605.848 147.536 605.239 143.267 605.239 142.352C605.239 141.437 606.001 140.827 606.763 140.827H666.534L638.631 54.8306C633.294 38.6681 615.912 25.4026 599.749 25.4026C598.835 25.4026 598.225 24.6402 598.225 23.8778C598.225 22.9629 598.987 22.353 599.749 22.353H636.344C653.574 22.353 672.328 36.3809 678.122 53.6107L722.646 189.925C724.475 195.719 730.727 200.446 736.521 200.446H739.723C740.638 200.446 741.4 201.208 741.4 201.971Z" fill="#232856"/>
<path d="M928.337 36.839L876.952 174.373V174.525C876.952 174.525 876.952 174.525 876.952 174.678L866.431 202.734C866.127 203.343 865.517 203.801 864.907 203.801C864.907 203.801 874.97 203.801 878.63 203.801H860.637C839.748 203.801 838.986 189.773 833.192 172.543L794.92 54.9837C789.583 38.8212 772.201 25.7082 756.038 25.7082C755.124 25.7082 754.514 24.9458 754.514 24.1835C754.514 23.4211 755.276 22.6587 756.038 22.6587H792.633C810.015 22.6587 828.77 36.6865 834.564 54.0689L834.716 54.2214L872.226 169.494L922.085 36.2291C922.39 35.4667 926.965 35.0093 927.727 35.3142C928.185 35.1618 928.642 36.0766 928.337 36.839Z" fill="#232856"/>
<path d="M802.086 201.971C802.086 202.886 801.324 203.496 800.562 203.496H797.36H785.771H770.524H767.322C766.407 203.496 765.797 202.733 765.797 201.971C765.797 201.208 766.559 200.446 767.322 200.446H770.524C776.013 200.446 780.587 196.024 780.587 190.383V30.4347C780.587 29.5198 784.856 28.9099 785.771 28.9099C786.686 28.9099 787.296 29.6723 787.296 30.4347V190.383C787.296 195.872 791.718 200.446 797.36 200.446H800.562C801.324 200.446 802.086 201.208 802.086 201.971Z" fill="#232856"/>
<path d="M973.621 201.971C973.621 202.885 972.858 203.495 972.096 203.495H968.894H957.306H923.456H911.868H908.361C907.446 203.495 906.836 202.733 906.836 201.971C906.836 201.208 907.598 200.446 908.361 200.446H911.563C917.052 200.446 921.626 196.024 921.626 190.382V23.8778C921.626 22.9629 922.389 22.353 923.151 22.353H968.589H971.791C972.706 22.353 973.316 23.1154 973.316 23.8778C973.316 24.6402 972.553 25.4026 971.791 25.4026H968.589C963.1 25.4026 958.525 29.8244 958.525 35.466V190.382C958.525 195.871 962.947 200.446 968.589 200.446H971.791C972.858 200.446 973.621 201.208 973.621 201.971Z" fill="#232856"/>
<path d="M1060.84 201.971C1060.84 202.885 1060.08 203.495 1059.31 203.495H1056.11H999.086H995.884C994.969 203.495 994.359 202.733 994.359 201.971C994.359 201.208 995.122 200.446 995.884 200.446H999.086C1004.58 200.446 1009.15 196.024 1009.15 190.382V35.466C1009.15 29.9769 1004.73 25.4026 999.086 25.4026H995.884C994.969 25.4026 994.359 24.6402 994.359 23.8778C994.359 23.1154 995.122 22.353 995.884 22.353H999.086H1010.67H1044.52H1056.11H1059.31C1060.23 22.353 1060.84 23.1154 1060.84 23.8778C1060.84 24.6402 1060.08 25.4026 1059.31 25.4026H1056.11C1050.62 25.4026 1046.05 29.8244 1046.05 35.466V190.382C1046.05 195.871 1050.47 200.446 1056.11 200.446H1059.31C1060.08 200.446 1060.84 201.208 1060.84 201.971Z" fill="#232856"/>
<path d="M1240 29.6719V201.971C1240 202.885 1235.73 203.495 1234.81 203.495H1226.73C1209.35 203.495 1189.07 189.315 1181.6 172.085L1130.82 54.9831C1123.81 38.6681 1104.75 25.4026 1088.59 25.4026C1087.67 25.4026 1087.06 24.6402 1087.06 23.8778C1087.06 22.9629 1087.82 22.353 1088.59 22.353H1126.86C1144.24 22.353 1164.67 36.3809 1172.3 53.7632L1223.07 170.865C1225.36 176.049 1228.87 181.081 1233.29 185.503V29.6719C1233.29 28.7571 1234.05 28.1472 1234.81 28.1472C1235.57 28.1472 1240 28.7571 1240 29.6719Z" fill="#232856"/>
<path d="M1138.9 201.971C1138.9 202.886 1138.14 203.496 1137.38 203.496H1134.02H1122.44H1107.34H1104.14C1103.22 203.496 1102.61 202.733 1102.61 201.971C1102.61 201.056 1103.38 200.446 1104.14 200.446H1107.34C1112.52 200.446 1116.79 196.482 1117.25 191.45V35.4664C1117.25 34.5516 1121.52 33.9417 1122.44 33.9417C1123.35 33.9417 1123.96 34.704 1123.96 35.4664V190.078C1123.96 190.23 1123.96 190.383 1123.96 190.383C1123.96 195.872 1128.38 200.446 1134.02 200.446H1137.23C1138.14 200.446 1138.9 201.209 1138.9 201.971Z" fill="#232856"/>
<path d="M561.474 277.294V280.953H549.886V323.952H545.921V280.953H541.957V277.294H545.921V266.621C545.921 259.454 550.801 255.947 560.559 255.947H563.456V259.607H560.559C553.393 259.607 549.886 261.894 549.886 266.773V277.446H561.474V277.294Z" fill="#232856"/>
<path d="M620.787 314.346C620.787 321.512 615.908 325.019 606.149 325.019C596.391 325.019 591.512 321.36 591.512 314.346V287.053C591.512 279.886 596.391 276.379 606.149 276.379C615.908 276.379 620.787 280.039 620.787 287.053V314.346ZM616.823 287.053C616.823 282.326 613.163 279.886 606.149 279.886C599.136 279.886 595.476 282.174 595.476 287.053V314.346C595.476 319.073 599.136 321.512 606.149 321.512C613.163 321.512 616.823 319.225 616.823 314.346V287.053Z" fill="#232856"/>
<path d="M677.661 277.294H681.625V323.952H678.118L677.661 322.427C674.459 324.104 670.189 324.867 665.005 324.867C657.686 324.867 652.35 321.512 652.35 314.193V277.294H656.314V314.193C656.314 318.92 659.973 321.36 666.987 321.36C670.952 321.36 674.916 320.597 676.441 320.14L677.661 319.682V277.294V277.294Z" fill="#232856"/>
<path d="M718.525 323.952H714.713V277.294H718.067L718.525 278.819C721.727 277.142 725.996 276.379 731.18 276.379C738.499 276.379 743.836 279.734 743.836 287.053V323.952H739.872V287.053C739.872 282.326 736.212 279.886 729.198 279.886C725.234 279.886 721.269 280.649 719.745 281.106L718.525 281.564V323.952V323.952Z" fill="#232856"/>
<path d="M800.709 255.947H804.674V323.952H801.319L800.862 322.427C797.66 324.104 793.391 324.867 788.206 324.867C780.887 324.867 775.551 321.512 775.551 314.193V286.9C775.551 279.581 780.735 276.227 788.206 276.227C792.933 276.227 797.507 277.142 799.49 277.904L800.862 278.514V255.947H800.709ZM800.709 319.682V281.716C798.117 280.496 794.61 280.039 790.036 280.039C782.87 280.039 779.363 282.326 779.363 287.205V314.498C779.363 319.225 783.022 321.665 790.036 321.665C794 321.665 797.965 320.902 799.49 320.445L800.709 319.682Z" fill="#232856"/>
<path d="M862.312 277.293H865.666V323.951H862.312L861.854 322.426C858.652 324.104 854.383 324.866 849.199 324.866C841.88 324.866 836.543 321.512 836.543 314.193V286.899C836.543 279.581 841.727 276.226 849.199 276.226C853.925 276.226 858.5 277.141 860.482 277.903L861.854 278.513L862.312 277.293ZM861.854 319.682V281.715C859.262 280.495 855.755 280.038 851.181 280.038C844.014 280.038 840.507 282.325 840.507 287.204V314.498C840.507 319.225 844.167 321.664 851.181 321.664C855.145 321.664 859.11 320.902 860.634 320.444L861.854 319.682Z" fill="#232856"/>
<path d="M915.831 280.953H904.243V313.278C904.243 318.005 907.903 320.445 914.917 320.445H917.814V324.104H914.917C905.158 324.104 900.279 320.445 900.279 313.431V281.106H896.314V277.446H900.279V268.755L902.718 267.84H904.243V277.599H915.831V280.953Z" fill="#232856"/>
<path d="M947.846 255.947H951.658V271.5H947.846V255.947ZM947.846 323.952V277.294H951.658V323.952H947.846Z" fill="#232856"/>
<path d="M1013.11 314.346C1013.11 321.512 1008.23 325.019 998.47 325.019C988.711 325.019 983.832 321.36 983.832 314.346V287.053C983.832 279.886 988.711 276.379 998.47 276.379C1008.23 276.379 1013.11 280.039 1013.11 287.053V314.346ZM1009.14 287.053C1009.14 282.326 1005.48 279.886 998.47 279.886C991.303 279.886 987.796 282.174 987.796 287.053V314.346C987.796 319.073 991.456 321.512 998.47 321.512C1005.64 321.512 1009.14 319.225 1009.14 314.346V287.053Z" fill="#232856"/>
<path d="M1049.09 323.952H1045.28V277.294H1048.63L1049.09 278.819C1052.29 277.142 1056.56 276.379 1061.75 276.379C1069.07 276.379 1074.4 279.734 1074.4 287.053V323.952H1070.44V287.053C1070.44 282.326 1066.78 279.886 1059.76 279.886C1055.8 279.886 1051.84 280.649 1050.31 281.106L1049.09 281.564V323.952Z" fill="#232856"/>
</svg>
